<svg xmlns="http://www.w3.org/2000/svg" fill="none" viewBox="0 0 20 21" height="21" width="20">
<path stroke-linejoin="round" stroke-linecap="round" stroke-width="2" stroke="#024E28" d="M17.5 8.83337C17.5 14.6667 10 19.6667 10 19.6667C10 19.6667 2.5 14.6667 2.5 8.83337C2.5 6.84425 3.29018 4.9366 4.6967 3.53007C6.10322 2.12355 8.01088 1.33337 10 1.33337C11.9891 1.33337 13.8968 2.12355 15.3033 3.53007C16.7098 4.9366 17.5 6.84425 17.5 8.83337Z"></path>
<path stroke-linejoin="round" stroke-linecap="round" stroke-width="2" stroke="#024E28" d="M10 11.3334C11.3807 11.3334 12.5 10.2141 12.5 8.83337C12.5 7.45266 11.3807 6.33337 10 6.33337C8.61929 6.33337 7.5 7.45266 7.5 8.83337C7.5 10.2141 8.61929 11.3334 10 11.3334Z"></path>
</svg>
