<svg width="77" height="76" viewBox="0 0 77 76" fill="none" xmlns="http://www.w3.org/2000/svg">
<path d="M75.7969 23.4935V14.5065L72.479 13.6907C72.3329 13.2964 72.1679 12.9022 71.985 12.5091L73.7568 9.58194L67.4013 3.22644L64.4752 4.99938C64.0822 4.8165 63.6879 4.65144 63.2937 4.50537L62.4779 1.1875H53.4909L52.6751 4.50537C52.2808 4.65144 51.8866 4.8165 51.4935 4.99938L48.5663 3.22762L42.2108 9.58312L43.9826 12.5103C43.7997 12.9034 43.6346 13.2976 43.4886 13.6919L40.1719 14.5065V22.5625H8.10938C4.83544 22.5625 2.17188 25.2261 2.17188 28.5V57C2.17188 60.2739 4.83544 62.9375 8.10938 62.9375H17.6094V67.6875H12.8594C11.5496 67.6875 10.4844 68.7527 10.4844 70.0625V72.4375C10.4844 73.7473 11.5496 74.8125 12.8594 74.8125H37.7969H40.2194H75.7969V70.0625C75.7969 61.4222 69.9936 54.1227 62.0824 51.8261C64.6225 50.1184 66.2969 47.2209 66.2969 43.9375C66.2969 40.8393 64.7994 38.0914 62.4981 36.3565L62.6192 36.2389L63.2937 33.4946C63.6879 33.3486 64.0822 33.1835 64.4752 33.0006L67.4024 34.7724L73.7579 28.4169L71.9862 25.4897C72.1691 25.0966 72.3341 24.7024 72.4802 24.3081L75.7969 23.4935ZM8.10938 24.9375H48.4844C50.4485 24.9375 52.0469 26.5359 52.0469 28.5V35.7224C51.1527 36.2413 50.3511 36.9027 49.6719 37.6746V29.6875C49.6719 28.3777 48.6067 27.3125 47.2969 27.3125H9.29688C7.98706 27.3125 6.92188 28.3777 6.92188 29.6875V53.4375H4.54688V28.5C4.54688 26.5359 6.14525 24.9375 8.10938 24.9375ZM49.6719 19C49.6719 14.4174 53.4018 10.6875 57.9844 10.6875C62.5669 10.6875 66.2969 14.4174 66.2969 19C66.2969 23.5826 62.5669 27.3125 57.9844 27.3125C56.5736 27.3125 55.2009 26.9408 53.9777 26.2639C53.3745 24.7879 52.1965 23.6099 50.7192 23.0066C50.0436 21.7811 49.6719 20.4096 49.6719 19ZM62.5753 65.2757L58.4831 72.4375H58.3596L63.2723 54.7509C63.7794 54.9658 64.2734 55.2081 64.7543 55.4705L64.0014 59.9913L61.2904 62.7024L62.5753 65.2757ZM55.1106 72.4375L51.0185 65.2757L52.3046 62.7036L49.5935 59.9925L48.8406 55.4717C49.3204 55.2093 49.8144 54.967 50.3226 54.7521L55.2341 72.4375H55.1106ZM42.5469 53.4375H40.1719V34.4375H42.5469V53.4375ZM49.6719 52.4614V50.2004C50.2134 50.8167 50.8273 51.3677 51.5113 51.8261C50.8843 52.0078 50.2704 52.2179 49.6719 52.4614ZM47.2969 53.4375H44.9219V32.0625H37.7969V53.4375H35.4219V36.8125H28.2969V53.4375H25.9219V41.5625H18.7969V53.4375H9.29688V29.6875H47.2969V53.4375ZM33.0469 53.4375H30.6719V39.1875H33.0469V53.4375ZM23.5469 53.4375H21.1719V43.9375H23.5469V53.4375ZM4.54688 57V55.8125H44.2723C42.7274 57.1722 41.4069 58.7729 40.3678 60.5625H8.10938C6.14525 60.5625 4.54688 58.9641 4.54688 57ZM19.9844 62.9375H39.1958C38.5866 64.4361 38.1697 66.0286 37.9619 67.6875H19.9844V62.9375ZM12.8594 72.4375V70.0625H37.7969V72.4375H12.8594ZM40.1719 72.4375V70.0625C40.1719 64.7069 42.7274 59.9486 46.6722 56.9062L47.3764 61.1325L49.4154 63.1714L48.3264 65.3493L52.3758 72.4375H46.1094V62.9375H43.7344V72.4375H40.2194H40.1719ZM73.4219 70.0625V72.4375H69.8594V62.9375H67.4844V72.4375H61.2179L65.2685 65.3493L64.1796 63.1714L66.2185 61.1325L66.9227 56.9062C70.8664 59.9486 73.4219 64.7069 73.4219 70.0625ZM61.0149 54.0004L56.7969 69.1861L52.5789 54.0004C53.9291 53.6453 55.3374 53.4375 56.7969 53.4375C58.2563 53.4375 59.6647 53.6453 61.0149 54.0004ZM63.9219 43.9375C63.9219 47.8669 60.7263 51.0625 56.7969 51.0625C52.8674 51.0625 49.6719 47.8669 49.6719 43.9375C49.6719 40.0081 52.8674 36.8125 56.7969 36.8125C60.7263 36.8125 63.9219 40.0081 63.9219 43.9375ZM70.7607 28.0559L67.0402 31.7763L64.5774 30.286L63.986 30.5936C63.3056 30.9474 62.6156 31.236 61.9376 31.4509L61.3011 31.6516L60.4757 35.0122L60.3499 35.1346C59.2514 34.6881 58.0532 34.4375 56.7969 34.4375C55.9751 34.4375 55.1831 34.5527 54.4219 34.7498V29.051C55.5619 29.4548 56.7601 29.6875 57.9844 29.6875C63.8779 29.6875 68.6719 24.8936 68.6719 19C68.6719 13.1064 63.8779 8.3125 57.9844 8.3125C52.0908 8.3125 47.2969 13.1064 47.2969 19C47.2969 20.2243 47.5296 21.4225 47.9334 22.5625H42.5469V16.3685L45.3339 15.6833L45.5346 15.0468C45.7496 14.3699 46.0381 13.68 46.392 12.9984L46.6996 12.407L45.2093 9.94412L48.9297 6.22369L51.3926 7.714L51.9839 7.40644C52.6644 7.05256 53.3543 6.764 54.0324 6.54906L54.6689 6.34838L55.3529 3.5625H60.6159L61.3011 6.34956L61.9376 6.55025C62.6144 6.76519 63.3044 7.05375 63.986 7.40762L64.5774 7.71519L67.0402 6.22488L70.7607 9.94531L69.2704 12.4082L69.5779 12.9996C69.9318 13.68 70.2204 14.3699 70.4353 15.048L70.636 15.6845L73.4219 16.3685V21.6315L70.6348 22.3167L70.4341 22.952C70.2192 23.6301 69.9306 24.32 69.5768 25.0016L69.2692 25.593L70.7607 28.0559Z" fill="#10112F"/>
<path d="M57.9844 24.9375C61.2583 24.9375 63.9219 22.2739 63.9219 19C63.9219 15.7261 61.2583 13.0625 57.9844 13.0625C54.7104 13.0625 52.0469 15.7261 52.0469 19C52.0469 22.2739 54.7104 24.9375 57.9844 24.9375ZM57.9844 15.4375C59.9485 15.4375 61.5469 17.0359 61.5469 19C61.5469 20.9641 59.9485 22.5625 57.9844 22.5625C56.0202 22.5625 54.4219 20.9641 54.4219 19C54.4219 17.0359 56.0202 15.4375 57.9844 15.4375Z" fill="#5CC3B4"/>
<path d="M11.6719 32.0625H14.0469V34.4375H11.6719V32.0625Z" fill="#5CC3B4"/>
<path d="M16.4219 32.0625H18.7969V34.4375H16.4219V32.0625Z" fill="#5CC3B4"/>
<path d="M21.1719 32.0625H23.5469V34.4375H21.1719V32.0625Z" fill="#5CC3B4"/>
<path d="M11.6719 36.8125H23.5469V39.1875H11.6719V36.8125Z" fill="#5CC3B4"/>
</svg>
