<svg width="76" height="77" viewBox="0 0 76 77" fill="none" xmlns="http://www.w3.org/2000/svg">
<path d="M69.4688 37.8943H46.4609C46.2247 37.8943 45.9982 37.9881 45.8312 38.1551C45.6641 38.3222 45.5703 38.5487 45.5703 38.7849V43.9802C45.5703 44.2164 45.6641 44.443 45.8312 44.61C45.9982 44.777 46.2247 44.8708 46.4609 44.8708H69.4688C69.705 44.8708 69.9315 44.777 70.0985 44.61C70.2655 44.443 70.3594 44.2164 70.3594 43.9802V38.7849C70.3594 38.5487 70.2655 38.3222 70.0985 38.1551C69.9315 37.9881 69.705 37.8943 69.4688 37.8943ZM68.4297 43.0896H47.3516V39.6755H68.4297V43.0896Z" fill="#5CC3B4"/>
<path d="M49.5133 71.9458C50.2181 71.9458 50.9071 71.7369 51.4931 71.3453C52.0791 70.9537 52.5358 70.3972 52.8055 69.7461C53.0752 69.0949 53.1458 68.3784 53.0083 67.6872C52.8707 66.996 52.5313 66.361 52.033 65.8627C51.5346 65.3644 50.8997 65.025 50.2084 64.8875C49.5172 64.75 48.8007 64.8206 48.1496 65.0904C47.4985 65.3601 46.942 65.8168 46.5504 66.4028C46.1589 66.9889 45.9499 67.6778 45.95 68.3826C45.9511 69.3273 46.3268 70.233 46.9949 70.901C47.6629 71.569 48.5686 71.9448 49.5133 71.9458ZM49.5133 66.6005C49.8658 66.6005 50.2104 66.705 50.5034 66.9008C50.7965 67.0966 51.0249 67.375 51.1598 67.7006C51.2947 68.0262 51.33 68.3846 51.2612 68.7303C51.1925 69.076 51.0227 69.3935 50.7735 69.6428C50.5243 69.892 50.2067 70.0617 49.861 70.1305C49.5153 70.1993 49.157 70.164 48.8313 70.0291C48.5057 69.8942 48.2274 69.6658 48.0315 69.3727C47.8357 69.0796 47.7312 68.7351 47.7312 68.3826C47.7316 67.9101 47.9195 67.457 48.2536 67.1228C48.5878 66.7886 49.0408 66.6007 49.5133 66.6002V66.6005Z" fill="#5CC3B4"/>
<path d="M57.9667 71.9458C58.6715 71.9458 59.3604 71.7369 59.9464 71.3453C60.5324 70.9537 60.9892 70.3972 61.2589 69.7461C61.5286 69.0949 61.5991 68.3784 61.4616 67.6872C61.3241 66.996 60.9847 66.361 60.4864 65.8627C59.988 65.3644 59.353 65.025 58.6618 64.8875C57.9706 64.75 57.2541 64.8206 56.603 65.0904C55.9518 65.3601 55.3953 65.8168 55.0038 66.4028C54.6123 66.9889 54.4033 67.6778 54.4033 68.3826C54.4044 69.3273 54.7802 70.233 55.4482 70.901C56.1163 71.569 57.022 71.9448 57.9667 71.9458ZM57.9667 66.6005C58.3192 66.6005 58.6637 66.705 58.9568 66.9008C59.2499 67.0966 59.4783 67.375 59.6132 67.7006C59.7481 68.0262 59.7834 68.3846 59.7146 68.7303C59.6458 69.076 59.4761 69.3935 59.2269 69.6428C58.9776 69.892 58.6601 70.0617 58.3144 70.1305C57.9687 70.1993 57.6104 70.164 57.2847 70.0291C56.9591 69.8942 56.6807 69.6658 56.4849 69.3727C56.2891 69.0796 56.1846 68.7351 56.1846 68.3826C56.185 67.9101 56.3729 67.457 56.707 67.1228C57.0411 66.7886 57.4942 66.6007 57.9667 66.6002V66.6005Z" fill="#5CC3B4"/>
<path d="M66.4203 71.9458C67.1251 71.9458 67.8141 71.7369 68.4001 71.3453C68.9861 70.9537 69.4428 70.3972 69.7125 69.7461C69.9822 69.0949 70.0527 68.3784 69.9152 67.6872C69.7777 66.996 69.4383 66.361 68.94 65.8627C68.4416 65.3644 67.8067 65.025 67.1154 64.8875C66.4242 64.75 65.7077 64.8206 65.0566 65.0904C64.4054 65.3601 63.8489 65.8168 63.4574 66.4028C63.0659 66.9889 62.8569 67.6778 62.8569 68.3826C62.858 69.3273 63.2338 70.233 63.9018 70.901C64.5699 71.569 65.4756 71.9448 66.4203 71.9458ZM66.4203 66.6005C66.7728 66.6005 67.1174 66.705 67.4104 66.9008C67.7035 67.0966 67.9319 67.375 68.0668 67.7006C68.2017 68.0262 68.237 68.3846 68.1682 68.7303C68.0995 69.076 67.9297 69.3935 67.6805 69.6428C67.4312 69.892 67.1137 70.0617 66.768 70.1305C66.4223 70.1993 66.064 70.164 65.7383 70.0291C65.4127 69.8942 65.1344 69.6658 64.9385 69.3727C64.7427 69.0796 64.6382 68.7351 64.6382 68.3826C64.6386 67.91 64.8265 67.4569 65.1606 67.1228C65.4947 66.7886 65.9478 66.6006 66.4203 66.6002V66.6005Z" fill="#5CC3B4"/>
<path d="M49.5133 64.0824C50.2181 64.0824 50.9071 63.8734 51.4931 63.4818C52.0791 63.0903 52.5358 62.5338 52.8055 61.8826C53.0752 61.2315 53.1458 60.515 53.0083 59.8238C52.8708 59.1326 52.5314 58.4976 52.033 57.9993C51.5347 57.5009 50.8998 57.1616 50.2085 57.0241C49.5173 56.8866 48.8008 56.9571 48.1497 57.2268C47.4986 57.4966 46.942 57.9533 46.5505 58.5393C46.1589 59.1253 45.95 59.8142 45.95 60.519C45.951 61.4637 46.3268 62.3695 46.9948 63.0375C47.6629 63.7056 48.5686 64.0813 49.5133 64.0824ZM49.5133 58.737C49.8659 58.737 50.2104 58.8415 50.5035 59.0374C50.7966 59.2333 51.025 59.5117 51.1599 59.8373C51.2948 60.163 51.33 60.5214 51.2612 60.8671C51.1923 61.2129 51.0225 61.5304 50.7732 61.7796C50.5239 62.0288 50.2062 62.1985 49.8605 62.2671C49.5147 62.3358 49.1564 62.3004 48.8307 62.1654C48.5051 62.0303 48.2268 61.8018 48.0311 61.5086C47.8354 61.2154 47.731 60.8708 47.7312 60.5182C47.7319 60.0459 47.92 59.5931 48.2541 59.2592C48.5881 58.9253 49.041 58.7375 49.5133 58.737Z" fill="#5CC3B4"/>
<path d="M57.9667 64.0824C58.6715 64.0824 59.3604 63.8734 59.9464 63.4818C60.5324 63.0903 60.9892 62.5338 61.2589 61.8826C61.5286 61.2315 61.5991 60.515 61.4616 59.8238C61.3241 59.1326 60.9848 58.4976 60.4864 57.9993C59.9881 57.5009 59.3531 57.1616 58.6619 57.0241C57.9707 56.8866 57.2542 56.9571 56.6031 57.2268C55.9519 57.4966 55.3954 57.9533 55.0039 58.5393C54.6123 59.1253 54.4033 59.8142 54.4033 60.519C54.4044 61.4637 54.7802 62.3695 55.4482 63.0375C56.1162 63.7056 57.022 64.0813 57.9667 64.0824ZM57.9667 58.737C58.3192 58.737 58.6638 58.8415 58.9569 59.0374C59.25 59.2333 59.4784 59.5117 59.6133 59.8373C59.7481 60.163 59.7834 60.5214 59.7145 60.8671C59.6457 61.2129 59.4759 61.5304 59.2266 61.7796C58.9772 62.0288 58.6596 62.1985 58.3138 62.2671C57.9681 62.3358 57.6097 62.3004 57.2841 62.1654C56.9585 62.0303 56.6802 61.8018 56.4845 61.5086C56.2888 61.2154 56.1844 60.8708 56.1846 60.5182C56.1853 60.0459 56.3733 59.5931 56.7074 59.2592C57.0415 58.9253 57.4944 58.7375 57.9667 58.737Z" fill="#5CC3B4"/>
<path d="M66.4203 64.0824C67.1251 64.0824 67.814 63.8734 68.4 63.4818C68.986 63.0903 69.4428 62.5338 69.7125 61.8826C69.9822 61.2315 70.0527 60.515 69.9152 59.8238C69.7777 59.1326 69.4384 58.4976 68.94 57.9993C68.4417 57.5009 67.8067 57.1616 67.1155 57.0241C66.4243 56.8866 65.7078 56.9571 65.0567 57.2268C64.4055 57.4966 63.849 57.9533 63.4575 58.5393C63.0659 59.1253 62.8569 59.8142 62.8569 60.519C62.858 61.4637 63.2338 62.3695 63.9018 63.0375C64.5698 63.7056 65.4756 64.0813 66.4203 64.0824ZM66.4203 58.737C66.7728 58.737 67.1174 58.8415 67.4105 59.0374C67.7036 59.2333 67.932 59.5117 68.0669 59.8373C68.2018 60.163 68.237 60.5214 68.1682 60.8671C68.0993 61.2129 67.9295 61.5304 67.6802 61.7796C67.4308 62.0288 67.1132 62.1985 66.7675 62.2671C66.4217 62.3358 66.0633 62.3004 65.7377 62.1654C65.4121 62.0303 65.1338 61.8018 64.9381 61.5086C64.7424 61.2154 64.638 60.8708 64.6382 60.5182C64.6389 60.0459 64.8269 59.5931 65.161 59.2592C65.4951 58.9253 65.948 58.7375 66.4203 58.737Z" fill="#5CC3B4"/>
<path d="M49.5133 56.2193C50.2181 56.2193 50.9071 56.0104 51.4931 55.6188C52.0791 55.2273 52.5358 54.6707 52.8055 54.0196C53.0752 53.3685 53.1458 52.652 53.0083 51.9608C52.8708 51.2695 52.5314 50.6346 52.033 50.1363C51.5347 49.6379 50.8998 49.2985 50.2085 49.161C49.5173 49.0235 48.8008 49.0941 48.1497 49.3638C47.4986 49.6335 46.942 50.0902 46.5505 50.6762C46.1589 51.2622 45.95 51.9512 45.95 52.6559C45.951 53.6007 46.3268 54.5064 46.9948 55.1745C47.6629 55.8425 48.5686 56.2183 49.5133 56.2193ZM49.5133 50.8738C49.8658 50.8738 50.2104 50.9783 50.5034 51.1742C50.7965 51.37 51.0249 51.6483 51.1598 51.974C51.2947 52.2996 51.33 52.6579 51.2612 53.0036C51.1925 53.3493 51.0227 53.6669 50.7735 53.9161C50.5243 54.1654 50.2067 54.3351 49.861 54.4038C49.5153 54.4726 49.157 54.4373 48.8313 54.3024C48.5057 54.1675 48.2274 53.9391 48.0315 53.6461C47.8357 53.353 47.7312 53.0084 47.7312 52.6559C47.7318 52.1835 47.9197 51.7305 48.2538 51.3964C48.5879 51.0623 49.0409 50.8744 49.5133 50.8738Z" fill="#5CC3B4"/>
<path d="M57.9667 56.2193C58.6715 56.2193 59.3604 56.0104 59.9464 55.6188C60.5324 55.2273 60.9892 54.6707 61.2589 54.0196C61.5286 53.3685 61.5991 52.652 61.4616 51.9608C61.3241 51.2695 60.9848 50.6346 60.4864 50.1363C59.9881 49.6379 59.3531 49.2985 58.6619 49.161C57.9707 49.0235 57.2542 49.0941 56.6031 49.3638C55.9519 49.6335 55.3954 50.0902 55.0039 50.6762C54.6123 51.2622 54.4033 51.9512 54.4033 52.6559C54.4044 53.6007 54.7802 54.5064 55.4482 55.1745C56.1162 55.8425 57.022 56.2183 57.9667 56.2193ZM57.9667 50.8738C58.3192 50.8738 58.6637 50.9783 58.9568 51.1742C59.2499 51.37 59.4783 51.6483 59.6132 51.974C59.7481 52.2996 59.7834 52.6579 59.7146 53.0036C59.6458 53.3493 59.4761 53.6669 59.2269 53.9161C58.9776 54.1654 58.6601 54.3351 58.3144 54.4038C57.9687 54.4726 57.6104 54.4373 57.2847 54.3024C56.9591 54.1675 56.6807 53.9391 56.4849 53.6461C56.2891 53.353 56.1846 53.0084 56.1846 52.6559C56.1851 52.1835 56.3731 51.7305 56.7072 51.3964C57.0413 51.0623 57.4942 50.8744 57.9667 50.8738Z" fill="#5CC3B4"/>
<path d="M66.4203 56.2193C67.1251 56.2193 67.814 56.0104 68.4 55.6188C68.986 55.2273 69.4428 54.6707 69.7125 54.0196C69.9822 53.3685 70.0527 52.652 69.9152 51.9608C69.7777 51.2695 69.4384 50.6346 68.94 50.1363C68.4417 49.6379 67.8067 49.2985 67.1155 49.161C66.4243 49.0235 65.7078 49.0941 65.0567 49.3638C64.4055 49.6335 63.849 50.0902 63.4575 50.6762C63.0659 51.2622 62.8569 51.9512 62.8569 52.6559C62.858 53.6007 63.2338 54.5064 63.9018 55.1745C64.5698 55.8425 65.4756 56.2183 66.4203 56.2193ZM66.4203 50.8738C66.7728 50.8738 67.1174 50.9783 67.4104 51.1742C67.7035 51.37 67.9319 51.6483 68.0668 51.974C68.2017 52.2996 68.237 52.6579 68.1682 53.0036C68.0995 53.3493 67.9297 53.6669 67.6805 53.9161C67.4312 54.1654 67.1137 54.3351 66.768 54.4038C66.4223 54.4726 66.064 54.4373 65.7383 54.3024C65.4127 54.1675 65.1344 53.9391 64.9385 53.6461C64.7427 53.353 64.6382 53.0084 64.6382 52.6559C64.6387 52.1835 64.8266 51.7305 65.1607 51.3964C65.4948 51.0622 65.9478 50.8743 66.4203 50.8738Z" fill="#5CC3B4"/>
<path d="M32.9607 46.2068H23.6833C23.4471 46.2068 23.2206 46.3006 23.0536 46.4676C22.8866 46.6347 22.7927 46.8612 22.7927 47.0974C22.7927 47.3336 22.8866 47.5602 23.0536 47.7272C23.2206 47.8942 23.4471 47.988 23.6833 47.988H32.9607C33.1969 47.988 33.4234 47.8942 33.5905 47.7272C33.7575 47.5602 33.8513 47.3336 33.8513 47.0974C33.8513 46.8612 33.7575 46.6347 33.5905 46.4676C33.4234 46.3006 33.1969 46.2068 32.9607 46.2068Z" fill="#5CC3B4"/>
<path d="M19.4431 47.988H20.3486C20.5848 47.988 20.8113 47.8942 20.9784 47.7272C21.1454 47.5602 21.2392 47.3336 21.2392 47.0974C21.2392 46.8612 21.1454 46.6347 20.9784 46.4676C20.8113 46.3006 20.5848 46.2068 20.3486 46.2068H19.4431C19.2069 46.2068 18.9804 46.3006 18.8133 46.4676C18.6463 46.6347 18.5525 46.8612 18.5525 47.0974C18.5525 47.3336 18.6463 47.5602 18.8133 47.7272C18.9804 47.8942 19.2069 47.988 19.4431 47.988Z" fill="#5CC3B4"/>
<path d="M31.6389 53.7771H26.7942C26.558 53.7771 26.3314 53.8709 26.1644 54.038C25.9974 54.205 25.9036 54.4315 25.9036 54.6677C25.9036 54.9039 25.9974 55.1305 26.1644 55.2975C26.3314 55.4645 26.558 55.5583 26.7942 55.5583H31.6389C31.8751 55.5583 32.1016 55.4645 32.2687 55.2975C32.4357 55.1305 32.5295 54.9039 32.5295 54.6677C32.5295 54.4315 32.4357 54.205 32.2687 54.038C32.1016 53.8709 31.8751 53.7771 31.6389 53.7771Z" fill="#5CC3B4"/>
<path d="M23.3145 53.7771H19.4431C19.2069 53.7771 18.9804 53.8709 18.8133 54.038C18.6463 54.205 18.5525 54.4315 18.5525 54.6677C18.5525 54.9039 18.6463 55.1305 18.8133 55.2975C18.9804 55.4645 19.2069 55.5583 19.4431 55.5583H23.3145C23.5507 55.5583 23.7773 55.4645 23.9443 55.2975C24.1113 55.1305 24.2051 54.9039 24.2051 54.6677C24.2051 54.4315 24.1113 54.205 23.9443 54.038C23.7773 53.8709 23.5507 53.7771 23.3145 53.7771Z" fill="#5CC3B4"/>
<path d="M15.8828 7.28735C15.6466 7.28735 15.4201 7.38119 15.253 7.54821C15.086 7.71524 14.9922 7.94177 14.9922 8.17798V8.53616C14.9922 8.77237 15.086 8.9989 15.253 9.16593C15.4201 9.33295 15.6466 9.42678 15.8828 9.42678C16.119 9.42678 16.3456 9.33295 16.5126 9.16593C16.6796 8.9989 16.7734 8.77237 16.7734 8.53616V8.17798C16.7734 7.94177 16.6796 7.71524 16.5126 7.54821C16.3456 7.38119 16.119 7.28735 15.8828 7.28735Z" fill="#5CC3B4"/>
<path d="M15.8828 11.1234C15.6466 11.1234 15.4201 11.2173 15.253 11.3843C15.086 11.5513 14.9922 11.7779 14.9922 12.0141V23.8116C14.9922 24.0478 15.086 24.2743 15.253 24.4414C15.4201 24.6084 15.6466 24.7022 15.8828 24.7022C16.119 24.7022 16.3456 24.6084 16.5126 24.4414C16.6796 24.2743 16.7734 24.0478 16.7734 23.8116V12.0141C16.7734 11.7779 16.6796 11.5513 16.5126 11.3843C16.3456 11.2173 16.119 11.1234 15.8828 11.1234Z" fill="#5CC3B4"/>
<path d="M34.2297 9.96637C31.6305 9.96637 29.0896 10.7371 26.9284 12.1812C24.7672 13.6253 23.0827 15.6778 22.088 18.0792C21.0933 20.4806 20.8331 23.123 21.3402 25.6723C21.8473 28.2216 23.0989 30.5633 24.9369 32.4013C26.7748 34.2392 29.1165 35.4909 31.6658 35.998C34.2151 36.5051 36.8576 36.2448 39.259 35.2501C41.6604 34.2554 43.7129 32.571 45.1569 30.4098C46.601 28.2486 47.3718 25.7077 47.3718 23.1084C47.3678 19.6241 45.982 16.2837 43.5182 13.8199C41.0545 11.3562 37.714 9.9703 34.2297 9.96637ZM45.5703 22.4568H36.1408L42.8624 15.7352C44.478 17.618 45.4295 19.9799 45.5703 22.4568ZM34.2297 11.7476C36.9346 11.7459 39.5505 12.7139 41.6029 14.4758L34.234 21.8446L28.4349 13.3427C30.1869 12.2972 32.1894 11.7459 34.2297 11.7476ZM34.2297 34.4691C31.8928 34.4702 29.6125 33.7504 27.6998 32.4077C25.7871 31.065 24.3353 29.1649 23.5423 26.9666C22.7494 24.7684 22.654 22.379 23.2692 20.1245C23.8843 17.87 25.18 15.8602 26.9796 14.3693L33.4451 23.8493C33.5268 23.9691 33.6365 24.0671 33.7648 24.1349C33.893 24.2026 34.0358 24.238 34.1809 24.238H45.5341C45.2506 27.0402 43.9376 29.6376 41.8494 31.5275C39.7612 33.4174 37.0462 34.4656 34.2297 34.4691Z" fill="#5CC3B4"/>
<path d="M69.856 34.1833H57.8906V14.9962C57.8951 14.3454 57.6432 13.7191 57.1894 13.2526L46.0535 1.83496C45.8218 1.59746 45.5451 1.40853 45.2396 1.27921C44.934 1.14989 44.6058 1.08277 44.274 1.08179H13.1237C12.7993 1.08372 12.4785 1.15002 12.1799 1.27684C11.8814 1.40367 11.6109 1.58849 11.3843 1.82061C11.1577 2.05272 10.9795 2.32751 10.8598 2.62904C10.7402 2.93056 10.6816 3.25284 10.6875 3.57717V5.98022H8.31814C7.98977 5.97344 7.66332 6.03175 7.3576 6.15177C7.05188 6.27179 6.77294 6.45115 6.53689 6.67951C6.303 6.90331 6.11632 7.1717 5.98787 7.46884C5.85943 7.76599 5.79183 8.08585 5.78906 8.40955V9.8396H3.99297C3.66588 9.8334 3.34083 9.89232 3.03674 10.0129C2.73264 10.1335 2.45557 10.3134 2.22166 10.5422C1.98914 10.7671 1.80409 11.0364 1.67745 11.334C1.55081 11.6317 1.48516 11.9518 1.48438 12.2753V71.4391C1.48676 72.1055 1.75154 72.7442 2.22138 73.2169C2.69122 73.6896 3.32832 73.9582 3.99475 73.9646H42.3034C42.7262 74.4759 43.2569 74.8874 43.8574 75.1697C44.4578 75.452 45.1133 75.598 45.7768 75.5974H69.856C71.0524 75.5974 72.1999 75.1221 73.0459 74.2761C73.8919 73.4301 74.3671 72.2827 74.3672 71.0863V38.6945C74.3671 37.4981 73.8919 36.3507 73.0459 35.5047C72.1999 34.6587 71.0524 34.1834 69.856 34.1833ZM45.5703 3.88859L54.9357 13.5505H50.0791C49.4843 13.5458 48.8963 13.4235 48.3489 13.1907C47.8016 12.9579 47.3057 12.6191 46.8898 12.1938C46.0408 11.3359 45.5664 10.1766 45.5703 8.96961V3.88859ZM7.57031 8.40851C7.57378 8.31862 7.59576 8.23042 7.63486 8.1494C7.67396 8.06839 7.72935 7.99631 7.79757 7.93767C7.94158 7.81236 8.12928 7.74903 8.31977 7.76147H10.6875V62.9018C10.682 63.2243 10.7411 63.5445 10.8615 63.8436C10.9819 64.1428 11.161 64.4148 11.3883 64.6435C11.6155 64.8722 11.8864 65.053 12.1848 65.1753C12.4831 65.2975 12.803 65.3587 13.1254 65.3552H41.2656V68.1755H8.32037C8.12235 68.1654 7.93537 68.0813 7.79645 67.9398C7.65754 67.7983 7.57683 67.6098 7.57031 67.4117V8.40851ZM3.9952 72.1833C3.80173 72.1782 3.61791 72.0978 3.48279 71.9592C3.3457 71.8204 3.26785 71.6337 3.26562 71.4386V12.274C3.26715 12.1843 3.2872 12.0958 3.32452 12.0143C3.36184 11.9327 3.41562 11.8597 3.48249 11.7999C3.55173 11.7375 3.63269 11.6896 3.72063 11.6589C3.80858 11.6281 3.90176 11.6152 3.99475 11.6208H5.78906V67.412C5.79613 68.0823 6.06459 68.7233 6.53727 69.1987C7.00996 69.674 7.64952 69.946 8.31977 69.9568H41.2656V71.0863C41.2655 71.4561 41.3109 71.8246 41.4007 72.1833H3.9952ZM41.2656 38.6945V46.6156C41.1851 46.4902 41.0744 46.3871 40.9437 46.3157C40.8129 46.2442 40.6663 46.2068 40.5174 46.2068H37.1846C36.9484 46.2068 36.7219 46.3006 36.5549 46.4676C36.3878 46.6347 36.294 46.8612 36.294 47.0974C36.294 47.3336 36.3878 47.5602 36.5549 47.7272C36.7219 47.8942 36.9484 47.988 37.1846 47.988H40.5174C40.6663 47.988 40.8129 47.9506 40.9437 47.8792C41.0744 47.8077 41.1851 47.7046 41.2656 47.5792V53.7771H35.0633C34.8271 53.7771 34.6006 53.8709 34.4335 54.038C34.2665 54.205 34.1727 54.4315 34.1727 54.6677C34.1727 54.9039 34.2665 55.1305 34.4335 55.2975C34.6006 55.4645 34.8271 55.5583 35.0633 55.5583H41.2656V63.574H13.1259C13.0377 63.5779 12.9498 63.5632 12.8677 63.5307C12.7857 63.4983 12.7114 63.449 12.6497 63.3859C12.5874 63.3223 12.5391 63.2463 12.508 63.1629C12.4768 63.0795 12.4635 62.9904 12.4688 62.9016V3.57554C12.4628 3.48512 12.4753 3.39443 12.5055 3.309C12.5357 3.22356 12.5829 3.14514 12.6444 3.07851C12.7058 3.01188 12.7801 2.95842 12.8628 2.92138C12.9455 2.88434 13.0348 2.86449 13.1254 2.86304H43.7891V8.96916C43.7857 10.645 44.4448 12.2542 45.6229 13.4461C46.801 14.6379 48.4025 15.3157 50.0782 15.3318H56.1094V34.1833H45.7768C44.5804 34.1834 43.433 34.6587 42.587 35.5047C41.741 36.3507 41.2657 37.4981 41.2656 38.6945ZM72.7344 71.0863C72.7295 71.8119 72.4379 72.5061 71.9231 73.0175C71.4084 73.5289 70.7123 73.816 69.9866 73.8162H45.8485C44.3432 73.8162 43.0469 72.5916 43.0469 71.0863V47.988H72.7344V71.0863ZM72.7344 46.2068H43.0469V38.6976C43.0469 37.1923 44.3432 35.9646 45.8485 35.9646H69.9866C70.7126 35.9654 71.4088 36.2532 71.9235 36.7651C72.4382 37.2771 72.7296 37.9717 72.7344 38.6976V46.2068Z" fill="#10112F"/>
</svg>
