<svg width="71" height="71" viewBox="0 0 71 71" fill="none" xmlns="http://www.w3.org/2000/svg">
<g clip-path="url(#clip0_23_90)">
<path d="M68.9135 37.8118H51.8544V31.1176C51.8544 30.5432 51.3888 30.0775 50.8143 30.0775C50.2398 30.0775 49.7743 30.5432 49.7743 31.1176V67.1458H44.9694V53.8904C44.9694 52.5329 43.8651 51.4287 42.5077 51.4287H28.4766C27.1193 51.4287 26.0149 52.5329 26.0149 53.8904V67.1458H21.2095V16.8001H49.7743V26.5425C49.7743 27.1169 50.2398 27.5825 50.8143 27.5825C51.3888 27.5825 51.8544 27.1169 51.8544 26.5425V16.746C52.7771 16.5344 53.4679 15.7085 53.4679 14.7225V11.8512C53.4679 10.7056 52.5359 9.77359 51.3904 9.77359H48.0957C48.3399 9.27867 48.4776 8.72218 48.4776 8.13394V5.49432C48.4776 3.44322 46.8089 1.77458 44.758 1.77458C42.7069 1.77458 41.0382 3.44322 41.0382 5.49432V8.13408C41.0382 8.72232 41.1761 9.27867 41.4201 9.77373H38.9767C39.2209 9.27881 39.3586 8.72232 39.3586 8.13408V7.47414C39.3586 6.89976 38.8931 6.4341 38.3186 6.4341H36.6387C36.0642 6.4341 35.5987 6.89976 35.5987 7.47414C35.5987 8.04852 36.0642 8.51418 36.6387 8.51418H37.2342C37.0624 9.23569 36.4123 9.77373 35.6389 9.77373C34.7348 9.77373 33.9992 9.03822 33.9992 8.13408V5.49432C33.9992 4.59018 34.7349 3.85466 35.6389 3.85466C36.2224 3.85466 36.7495 4.15447 37.0488 4.6566C37.343 5.15014 37.9813 5.31141 38.4747 5.01743C38.9681 4.7233 39.1297 4.08486 38.8356 3.5916C38.1674 2.47086 36.9426 1.77472 35.6389 1.77472C33.5878 1.77472 31.9192 3.44336 31.9192 5.49446V8.13421C31.9192 8.72246 32.057 9.27881 32.3011 9.77387H29.9463V2.81448C29.9463 2.24011 29.4808 1.77445 28.9062 1.77445C28.3317 1.77445 27.8662 2.24011 27.8662 2.81448V7.39274L24.4109 2.23553C24.1562 1.85529 23.6822 1.68597 23.2444 1.81937C22.8063 1.9525 22.507 2.35659 22.507 2.81448V9.77359H19.5936C18.448 9.77359 17.5162 10.7056 17.5162 11.8512V14.7227C17.5162 15.7085 18.207 16.5344 19.1296 16.7462V37.8118H2.06949C0.923924 37.8118 -0.0078125 38.7437 -0.0078125 39.8891V42.761C-0.0078125 43.7468 0.683051 44.5727 1.60577 44.7842V68.1856C1.60577 68.76 2.07129 69.2257 2.64581 69.2257H68.3383C68.9128 69.2257 69.3783 68.76 69.3783 68.1856V60.1323C69.3783 59.5579 68.9128 59.0922 68.3383 59.0922C67.7638 59.0922 67.2982 59.5579 67.2982 60.1323V67.1455H51.8544V44.8382H67.2981V55.5574C67.2981 56.1317 67.7636 56.5974 68.3381 56.5974C68.9127 56.5974 69.3782 56.1317 69.3782 55.5574V44.7839C70.301 44.5722 70.9922 43.7464 70.9922 42.7609V39.889C70.9922 38.7437 70.0596 37.8118 68.9135 37.8118ZM43.1182 8.13394V5.49432C43.1182 4.59018 43.8538 3.85466 44.7578 3.85466C45.6618 3.85466 46.3973 4.59018 46.3973 5.49432V8.13408C46.3973 9.03822 45.6618 9.77373 44.7578 9.77373C43.8538 9.77373 43.1182 9.03808 43.1182 8.13394ZM24.5869 6.23538L26.9575 9.77359H24.5869V6.23538ZM51.3879 11.8512L51.3913 14.72L19.5961 14.7227L19.5935 11.8538L51.3879 11.8512ZM3.68585 44.8382H9.03082C9.60534 44.8382 10.0709 44.3725 10.0709 43.7981C10.0709 43.2237 9.60534 42.7581 9.03082 42.7581L2.07227 42.7609L2.06949 39.8917H19.1293V42.7581H13.607C13.0325 42.7581 12.567 43.2237 12.567 43.7981C12.567 44.3725 13.0325 44.8382 13.607 44.8382H19.1295V67.1455H3.68585V44.8382ZM28.095 53.8901C28.095 53.6796 28.2661 53.5085 28.4766 53.5085H34.4521V67.1455H28.095V53.8901ZM42.8894 67.1456H36.5322V53.5086H42.5077C42.7182 53.5086 42.8894 53.6797 42.8894 53.8903V67.1456ZM51.8544 39.8917L68.9121 39.889L68.9135 42.7581H51.8544V39.8917Z" fill="#10112F"/>
<path d="M64.6267 57.6849V52.5046C64.6267 51.1472 63.5223 50.0429 62.165 50.0429H56.9848C55.6273 50.0429 54.5229 51.1473 54.5229 52.5046V57.6849C54.5229 59.0423 55.6273 60.1466 56.9848 60.1466H62.165C63.5223 60.1466 64.6267 59.0422 64.6267 57.6849ZM62.5466 52.5045V57.6847C62.5466 57.8952 62.3755 58.0664 62.165 58.0664H60.6148V52.1227H62.165C62.3754 52.1229 62.5466 52.2941 62.5466 52.5045ZM56.6029 57.6849V52.5046C56.6029 52.2941 56.7742 52.123 56.9847 52.123H58.5347V58.0666H56.9847C56.7743 58.0665 56.6029 57.8952 56.6029 57.6849Z" fill="#10112F"/>
<path d="M13.9997 50.0428H8.81937C7.46205 50.0428 6.35767 51.1472 6.35767 52.5045V57.6847C6.35767 59.0422 7.46205 60.1464 8.81937 60.1464H13.9996C15.3571 60.1464 16.4614 59.0422 16.4614 57.6847V52.5045C16.4616 51.1472 15.3572 50.0428 13.9997 50.0428ZM8.43774 57.6849V52.5046C8.43774 52.2941 8.60887 52.123 8.81937 52.123H10.3696V58.0666H8.81937C8.609 58.0665 8.43774 57.8952 8.43774 57.6849ZM14.3815 57.6849C14.3815 57.8954 14.2102 58.0665 13.9997 58.0665H12.4497V52.1229H13.9997C14.2102 52.1229 14.3815 52.2941 14.3815 52.5045V57.6849Z" fill="#10112F"/>
<path d="M40.5442 23.5074C40.5442 22.1499 39.4398 21.0457 38.0825 21.0457H32.9021C31.5448 21.0457 30.4404 22.1501 30.4404 23.5074V28.6876C30.4404 30.0451 31.5448 31.1493 32.9021 31.1493H38.0825C39.4398 31.1493 40.5442 30.0451 40.5442 28.6876V23.5074ZM32.5204 28.6876V23.5074C32.5204 23.2969 32.6915 23.1258 32.902 23.1258H34.4522V29.0694H32.902C32.6916 29.0692 32.5204 28.8981 32.5204 28.6876ZM38.4641 28.6876C38.4641 28.8981 38.293 29.0692 38.0825 29.0692H36.5323V23.1256H38.0825C38.293 23.1256 38.4641 23.2969 38.4641 23.5072V28.6876Z" fill="#10112F"/>
<path d="M38.0825 35.8836H32.9021C31.5448 35.8836 30.4404 36.9879 30.4404 38.3453V43.5255C30.4404 44.883 31.5448 45.9872 32.9021 45.9872H38.0825C39.4398 45.9872 40.5442 44.883 40.5442 43.5255V38.3453C40.5442 36.9879 39.4398 35.8836 38.0825 35.8836ZM32.5204 43.5256V38.3454C32.5204 38.1349 32.6915 37.9638 32.902 37.9638H34.4522V43.9074H32.902C32.6916 43.9073 32.5204 43.7361 32.5204 43.5256ZM38.4641 43.5256C38.4641 43.7361 38.293 43.9073 38.0825 43.9073H36.5323V37.9636H38.0825C38.293 37.9636 38.4641 38.1349 38.4641 38.3453V43.5256Z" fill="#10112F"/>
<path d="M26.4308 22.3948C26.4308 21.8204 25.9653 21.3548 25.3907 21.3548H23.9836C23.4091 21.3548 22.9436 21.8204 22.9436 22.3948C22.9436 22.9692 23.4091 23.4349 23.9836 23.4349H25.3907C25.9653 23.4349 26.4308 22.9692 26.4308 22.3948Z" fill="#5CC3B4"/>
<path d="M27.9701 25.6135C27.9701 25.0391 27.5046 24.5735 26.9301 24.5735H25.5229C24.9484 24.5735 24.4829 25.0391 24.4829 25.6135C24.4829 26.1879 24.9484 26.6536 25.5229 26.6536H26.9301C27.5044 26.6536 27.9701 26.1879 27.9701 25.6135Z" fill="#5CC3B4"/>
<path d="M44.0542 37.442H45.4613C46.0358 37.442 46.5013 36.9763 46.5013 36.4019C46.5013 35.8275 46.0358 35.3619 45.4613 35.3619H44.0542C43.4797 35.3619 43.0142 35.8275 43.0142 36.4019C43.0142 36.9763 43.4798 37.442 44.0542 37.442Z" fill="#5CC3B4"/>
<path d="M58.8713 62.6346C58.2968 62.6346 57.8313 63.1003 57.8313 63.6747C57.8313 64.249 58.2968 64.7147 58.8713 64.7147H60.2784C60.853 64.7147 61.3185 64.249 61.3185 63.6747C61.3185 63.1003 60.853 62.6346 60.2784 62.6346H58.8713Z" fill="#5CC3B4"/>
<path d="M44.0542 47.0913H45.4613C46.0358 47.0913 46.5013 46.6257 46.5013 46.0513C46.5013 45.4769 46.0358 45.0112 45.4613 45.0112H44.0542C43.4797 45.0112 43.0142 45.4769 43.0142 46.0513C43.0142 46.6257 43.4798 47.0913 44.0542 47.0913Z" fill="#5CC3B4"/>
<path d="M48.5117 42.3658C48.5117 41.7914 48.0462 41.3257 47.4717 41.3257H46.0645C45.4899 41.3257 45.0244 41.7914 45.0244 42.3658C45.0244 42.9402 45.4899 43.4058 46.0645 43.4058H47.4716C48.0461 43.4058 48.5117 42.9402 48.5117 42.3658Z" fill="#5CC3B4"/>
<path d="M24.8193 48.8696H26.2264C26.801 48.8696 27.2665 48.404 27.2665 47.8296C27.2665 47.2552 26.801 46.7896 26.2264 46.7896H24.8193C24.2448 46.7896 23.7793 47.2552 23.7793 47.8296C23.7793 48.404 24.245 48.8696 24.8193 48.8696Z" fill="#5CC3B4"/>
<path d="M8.37048 62.6346H6.96338C6.38886 62.6346 5.92334 63.1003 5.92334 63.6747C5.92334 64.249 6.38886 64.7147 6.96338 64.7147H8.37048C8.945 64.7147 9.41052 64.249 9.41052 63.6747C9.41052 63.1003 8.945 62.6346 8.37048 62.6346Z" fill="#5CC3B4"/>
<path d="M55.942 48.8696C56.5165 48.8696 56.9821 48.404 56.9821 47.8296C56.9821 47.2552 56.5165 46.7896 55.942 46.7896H54.5349C53.9604 46.7896 53.4949 47.2552 53.4949 47.8296C53.4949 48.404 53.9604 48.8696 54.5349 48.8696H55.942Z" fill="#5CC3B4"/>
</g>
<defs>
<clipPath id="clip0_23_90">
<rect width="71" height="71" fill="white" transform="translate(-0.0078125)"/>
</clipPath>
</defs>
</svg>
