<svg width="69" height="68" viewBox="0 0 69 68" fill="none" xmlns="http://www.w3.org/2000/svg">
<g clip-path="url(#clip0_11_1626)">
<path d="M60.8254 17.0127C59.9864 17.012 59.1523 17.1384 58.3524 17.3877C58.4283 16.7936 58.4666 16.1952 58.4674 15.5963C58.318 6.83686 50.9916 -0.144871 42.1032 0.00228411C35.6172 0.109641 29.8304 4.0436 27.4251 9.98094C22.7733 7.13825 16.664 8.55032 13.7797 13.1346C12.8406 14.627 12.3273 16.3413 12.2937 18.097C11.0413 17.3844 9.62028 17.0103 8.17423 17.0127C3.72943 17.0127 0.126221 20.5636 0.126221 24.944C0.126221 29.3244 3.72943 32.8754 8.17423 32.8754C8.80916 32.8754 9.32394 32.3681 9.32394 31.7423C9.32394 31.1166 8.80916 30.6093 8.17423 30.6093C4.99972 30.5584 2.46819 27.9812 2.51978 24.8527C2.57138 21.7242 5.18655 19.2293 8.36105 19.2802C10.2934 19.3112 12.0807 20.297 13.118 21.9039C13.4658 22.4275 14.1783 22.5741 14.7096 22.2315C15.1688 21.9353 15.3516 21.3608 15.1461 20.8592C14.7841 19.9987 14.5951 19.0771 14.5896 18.1456C14.6358 14.0394 18.0457 10.7449 22.2122 10.7807C24.0688 10.788 25.8597 11.4577 27.2537 12.6661C27.7323 13.0774 28.4586 13.0284 28.8759 12.5568C28.989 12.429 29.0714 12.2778 29.1174 12.1143C31.2211 4.90019 38.8607 0.732678 46.1808 2.80588C51.9929 4.45192 56.0389 9.63762 56.1599 15.5962C56.155 16.7839 55.9867 17.9656 55.6598 19.1087C55.4897 19.7116 55.8477 20.3362 56.4595 20.5037C56.7905 20.5944 57.1453 20.5345 57.4269 20.3403C58.4214 19.6491 59.6086 19.2783 60.8254 19.2786C64.0002 19.2786 66.574 21.8151 66.574 24.9439C66.574 28.0727 64.0002 30.6091 60.8254 30.6091C60.1905 30.6091 59.6757 31.1165 59.6757 31.7422C59.6757 32.3679 60.1905 32.8753 60.8254 32.8753C65.2702 32.8753 68.8734 29.3243 68.8734 24.9439C68.8734 20.5636 65.2702 17.0127 60.8254 17.0127Z" fill="white"/>
<path d="M54.0421 43.0729H14.9518C13.0469 43.0729 11.5027 44.5947 11.5027 46.472V51.0042C11.5027 52.8816 13.0469 54.4034 14.9518 54.4034H54.0421C55.9471 54.4034 57.4913 52.8816 57.4913 51.0042V46.472C57.4913 44.5947 55.9471 43.0729 54.0421 43.0729ZM55.1919 51.0042C55.1919 51.63 54.6771 52.1373 54.0421 52.1373H14.9518C14.3169 52.1373 13.8021 51.63 13.8021 51.0042V46.472C13.8021 45.8463 14.3169 45.339 14.9518 45.339H54.0421C54.6771 45.339 55.1919 45.8463 55.1919 46.472V51.0042Z" fill="white"/>
<path d="M50.853 46.5423C49.6279 46.5498 48.6387 47.5306 48.6387 48.738C48.6444 49.9538 49.647 50.9357 50.8806 50.9339C52.1112 50.9263 53.1026 49.9372 53.095 48.7244C53.0873 47.5117 52.0836 46.5348 50.853 46.5423ZM50.8806 48.8095C50.8461 48.8095 50.8231 48.7721 50.8231 48.7381L50.8806 48.6679V48.8095Z" fill="white"/>
<path d="M38.8659 47.605H17.0213C16.3864 47.605 15.8716 48.1124 15.8716 48.7381C15.8716 49.3638 16.3864 49.8711 17.0213 49.8711H38.8659C39.5008 49.8711 40.0156 49.3638 40.0156 48.7381C40.0156 48.1124 39.501 47.605 38.8659 47.605Z" fill="white"/>
<path d="M45.9655 47.605H42.9073C42.2724 47.605 41.7576 48.1124 41.7576 48.7381C41.7576 49.3638 42.2724 49.8711 42.9073 49.8711H45.9655C46.6005 49.8711 47.1152 49.3638 47.1152 48.7381C47.1152 48.1124 46.6006 47.605 45.9655 47.605Z" fill="white"/>
<path d="M54.0421 56.6695H14.9518C13.0469 56.6695 11.5027 58.1913 11.5027 60.0687V64.6009C11.5027 66.4782 13.0469 68 14.9518 68H54.0421C55.9471 68 57.4913 66.4782 57.4913 64.6009V60.0687C57.4913 58.1913 55.9471 56.6695 54.0421 56.6695ZM55.1919 64.6009C55.1919 65.2266 54.6771 65.7339 54.0421 65.7339H14.9518C14.3169 65.7339 13.8021 65.2266 13.8021 64.6009V60.0687C13.8021 59.4429 14.3169 58.9356 14.9518 58.9356H54.0421C54.6771 58.9356 55.1919 59.4429 55.1919 60.0687V64.6009Z" fill="white"/>
<path d="M50.853 60.1389C49.6279 60.1464 48.6387 61.1272 48.6387 62.3346C48.6444 63.5504 49.647 64.5323 50.8806 64.5305C52.1112 64.523 53.1026 63.5338 53.095 62.321C53.0873 61.1084 52.0836 60.1314 50.853 60.1389ZM50.8806 62.4061C50.8461 62.4061 50.8231 62.3687 50.8231 62.3348L50.8806 62.2645V62.4061Z" fill="white"/>
<path d="M38.8659 61.2017H17.0213C16.3864 61.2017 15.8716 61.709 15.8716 62.3347C15.8716 62.9604 16.3864 63.4678 17.0213 63.4678H38.8659C39.5008 63.4678 40.0156 62.9604 40.0156 62.3347C40.0156 61.709 39.501 61.2017 38.8659 61.2017Z" fill="white"/>
<path d="M45.9655 61.2017H42.9073C42.2724 61.2017 41.7576 61.709 41.7576 62.3347C41.7576 62.9604 42.2724 63.4678 42.9073 63.4678H45.9655C46.6005 63.4678 47.1152 62.9604 47.1152 62.3347C47.1152 61.709 46.6006 61.2017 45.9655 61.2017Z" fill="white"/>
<path d="M54.0421 29.4762H14.9518C13.0469 29.4762 11.5027 30.998 11.5027 32.8754V37.4076C11.5027 39.2849 13.0469 40.8067 14.9518 40.8067H54.0421C55.9471 40.8067 57.4913 39.2849 57.4913 37.4076V32.8754C57.4913 30.998 55.9471 29.4762 54.0421 29.4762ZM55.1919 37.4076C55.1919 38.0333 54.6771 38.5406 54.0421 38.5406H14.9518C14.3169 38.5406 13.8021 38.0333 13.8021 37.4076V32.8754C13.8021 32.2496 14.3169 31.7423 14.9518 31.7423H54.0421C54.6771 31.7423 55.1919 32.2496 55.1919 32.8754V37.4076Z" fill="white"/>
<path d="M52.7338 34.8322C52.5122 33.6285 51.3425 32.8297 50.121 33.048C49.5423 33.1514 49.0278 33.4744 48.6879 33.9473C48.3466 34.422 48.2132 35.0119 48.3177 35.5845C48.5111 36.6393 49.4423 37.4066 50.5298 37.4076C50.6554 37.4075 50.7807 37.3973 50.9046 37.377C51.4949 37.281 52.0211 36.9541 52.3636 36.4706C52.706 35.9958 52.8395 35.4051 52.7338 34.8322ZM50.4711 35.231L50.5229 35.1415L50.5286 35.2831C50.4769 35.2831 50.4734 35.2548 50.4711 35.231Z" fill="white"/>
<path d="M38.6361 34.0084H16.7916C16.1566 34.0084 15.6418 34.5157 15.6418 35.1415C15.6418 35.7672 16.1566 36.2745 16.7916 36.2745H38.6361C39.2711 36.2745 39.7859 35.7672 39.7859 35.1415C39.7859 34.5157 39.2712 34.0084 38.6361 34.0084Z" fill="white"/>
<path d="M45.2309 34.0084H42.1727C41.5377 34.0084 41.0229 34.5157 41.0229 35.1415C41.0229 35.7672 41.5377 36.2745 42.1727 36.2745H45.2309C45.8658 36.2745 46.3806 35.7672 46.3806 35.1415C46.3806 34.5157 45.866 34.0084 45.2309 34.0084Z" fill="white"/>
<path d="M29.5613 18.4777L26.1121 15.0785C25.6632 14.6362 24.9354 14.6362 24.4864 15.0785L21.0373 18.4777C20.5962 18.9278 20.6089 19.6451 21.0656 20.0798C21.5111 20.5038 22.2175 20.5038 22.663 20.0798L24.1496 18.6148V26.077C24.1496 26.7028 24.6644 27.2101 25.2993 27.2101C25.9342 27.2101 26.449 26.7028 26.449 26.077V18.6148L27.9356 20.0798C28.3923 20.5145 29.1202 20.502 29.5613 20.0519C29.9916 19.6128 29.9916 18.9167 29.5613 18.4777Z" fill="white"/>
<path d="M47.9286 21.8768C47.4831 21.4528 46.7768 21.4528 46.3311 21.8768L44.8445 23.3419V15.8796C44.8445 15.2538 44.3297 14.7465 43.6948 14.7465C43.0599 14.7465 42.5451 15.2538 42.5451 15.8796V23.3419L41.0585 21.8768C40.6018 21.442 39.874 21.4545 39.4328 21.9046C39.0025 22.3436 39.0025 23.0398 39.4328 23.479L42.882 26.8781C43.3309 27.3204 44.0587 27.3204 44.5077 26.8781L47.9568 23.479C48.398 23.0288 48.3854 22.3115 47.9286 21.8768Z" fill="white"/>
</g>
<defs>
<clipPath id="clip0_11_1626">
<rect width="69" height="68" fill="white"/>
</clipPath>
</defs>
</svg>
