<svg width="66" height="66" viewBox="0 0 66 66" fill="none" xmlns="http://www.w3.org/2000/svg">
<g clip-path="url(#clip0_11_1687)">
<path d="M33 17.1757L40.8367 10.6452H51.0967V0H25.5483V10.6452H33V17.1757ZM27.6774 8.51613V2.12903H48.9677V8.51613H40.0664L35.129 12.6307V8.51613H27.6774Z" fill="white"/>
<path d="M29.8064 4.25806H31.9354V6.38709H29.8064V4.25806Z" fill="white"/>
<path d="M34.0645 4.25806H42.5806V6.38709H34.0645V4.25806Z" fill="white"/>
<path d="M44.7097 4.25806H46.8387V6.38709H44.7097V4.25806Z" fill="white"/>
<path d="M54.189 63.871L53.3282 55.2535C56.8825 54.6916 59.6129 51.614 59.6129 47.9033V34.0645H55.3548V32.5936C55.3548 31.1465 54.5596 29.847 53.2809 29.1807C54.5523 28.0127 55.3548 26.3426 55.3548 24.4839V22.3549C55.3548 18.8323 52.4903 15.9678 48.9678 15.9678C45.4452 15.9678 42.5807 18.8323 42.5807 22.3549V24.4839C42.5807 27.2398 44.338 29.5861 46.7888 30.4801L41.0754 36.1936H35.1056C34.9866 34.419 33.7677 32.8722 32.041 32.3784L27.6774 31.133V29.2316C28.9805 28.0616 29.8065 26.3702 29.8065 24.4839V22.3549C29.8065 18.8323 26.9419 15.9678 23.4194 15.9678C19.8968 15.9678 17.0323 18.8323 17.0323 22.3549V24.4839C17.0323 26.3692 17.8582 28.0605 19.1613 29.2316V31.134L14.7977 32.3794C12.9795 32.8976 11.7097 34.5817 11.7097 36.4737V40.4516H7.45161V46.8387H9.58065V63.871H0V66H66V63.871H54.189ZM44.7097 46.8387V41.9569L52.2528 34.4138C52.798 33.8686 53.1224 33.1362 53.1951 32.3721C53.2045 32.4465 53.2258 32.5166 53.2258 32.5936V45.7742C53.2258 47.5347 51.7928 48.9678 50.0323 48.9678H41.5161V46.8387H44.7097ZM41.5161 55.3549H46.9401L47.7915 63.871H41.5161V55.3549ZM49.0795 55.3549H51.1981L52.0495 63.871H49.9309L49.0795 55.3549ZM55.3548 45.7742V36.1936H57.4839V47.9033C57.4839 50.838 55.096 53.2258 52.1613 53.2258H41.5161V51.0968H50.0323C52.967 51.0968 55.3548 48.7089 55.3548 45.7742ZM44.7097 24.4839V22.3549C44.7097 20.0065 46.6194 18.0968 48.9678 18.0968C51.3161 18.0968 53.2258 20.0065 53.2258 22.3549V24.4839C53.2258 26.8323 51.3161 28.742 48.9678 28.742C46.6194 28.742 44.7097 26.8323 44.7097 24.4839ZM41.9569 38.3226L49.0592 31.2203C49.2817 30.9978 49.5894 30.871 49.9034 30.871C50.5614 30.871 51.0968 31.4064 51.0968 32.0644C51.0968 32.3784 50.97 32.6861 50.7475 32.9086L43.2044 40.4516H31.9355C31.3481 40.4516 30.871 39.9745 30.871 39.3871C30.871 38.7998 31.3481 38.3226 31.9355 38.3226H41.9569ZM19.1613 22.3549C19.1613 20.0065 21.071 18.0968 23.4194 18.0968C25.7677 18.0968 27.6774 20.0065 27.6774 22.3549V24.4839C27.6774 26.8323 25.7677 28.742 23.4194 28.742C21.071 28.742 19.1613 26.8323 19.1613 24.4839V22.3549ZM23.4194 30.871C24.1668 30.871 24.881 30.7348 25.5484 30.4983V31.6418C25.2843 32.0493 24.5509 33 23.4194 33C22.2878 33 21.5544 32.0493 21.2903 31.6418V30.4983C21.9577 30.7348 22.6719 30.871 23.4194 30.871ZM13.8387 36.4737C13.8387 35.5272 14.4744 34.6862 15.3825 34.4263L19.7679 33.1736C20.3854 33.9783 21.5871 35.1291 23.4194 35.1291C25.2516 35.1291 26.4533 33.9783 27.0708 33.1726L31.4562 34.4253C32.2718 34.6587 32.8404 35.3676 32.9543 36.1925H31.9355C30.175 36.1925 28.7419 37.6256 28.7419 39.3861C28.7419 39.7609 28.8183 40.1164 28.9379 40.4506H13.8387V36.4737ZM9.58065 42.5807H42.5807V44.7097H9.58065V42.5807ZM11.7097 51.0968H14.9032V48.9678H11.7097V46.8387H39.3871V48.9678H17.0323V51.0968H39.3871V63.871H36.8516L34.7226 59.6129H16.3742L14.2452 63.871H11.7097V51.0968ZM34.471 63.871H16.6258L17.6903 61.742H33.4065L34.471 63.871Z" fill="white"/>
</g>
<defs>
<clipPath id="clip0_11_1687">
<rect width="66" height="66" fill="white"/>
</clipPath>
</defs>
</svg>
