<svg width="36" height="36" viewBox="0 0 36 36" fill="none" xmlns="http://www.w3.org/2000/svg">
<path d="M12.3368 7.16211C11.2388 7.57689 10.452 8.63014 10.452 9.87136C10.452 10.3494 10.5793 10.7942 10.7849 11.1925C9.91393 11.5274 9.29077 12.3671 9.29077 13.3552C9.29077 14.3435 9.91393 15.183 10.7849 15.5181C10.5793 15.9164 10.452 16.3612 10.452 16.839C10.452 18.0805 11.2388 19.1337 12.3368 19.5482C12.2498 19.7915 12.1939 20.05 12.1939 20.3228C12.1939 21.6037 13.2356 22.6453 14.5165 22.6453C14.8057 22.6453 15.0798 22.5855 15.3353 22.4891C15.7115 23.2656 16.5005 23.8066 17.4197 23.8066C18.7006 23.8066 19.7422 22.765 19.7422 21.484V5.22628C19.7422 3.94566 18.7006 2.90375 17.4197 2.90375C16.5005 2.90375 15.7115 3.44497 15.3353 4.22123C15.0798 4.12484 14.8057 4.06502 14.5165 4.06502C13.2356 4.06502 12.1939 5.10693 12.1939 6.38755C12.1939 6.66058 12.2498 6.91886 12.3368 7.16211ZM14.5165 5.22628C15.1569 5.22628 15.6777 5.7471 15.6777 6.38755H16.839C16.839 5.8296 16.6329 5.32325 16.3037 4.92264C16.4384 4.43046 16.8849 4.06502 17.4197 4.06502C18.0601 4.06502 18.5809 4.58583 18.5809 5.22628V21.484C18.5809 22.1245 18.0601 22.6453 17.4197 22.6453C16.8849 22.6453 16.4384 22.2801 16.3037 21.7877C16.6329 21.3871 16.839 20.881 16.839 20.3228H15.6777C15.6777 20.9632 15.1569 21.484 14.5165 21.484C13.876 21.484 13.3552 20.9632 13.3552 20.3228C13.3552 19.6823 13.876 19.1615 14.5165 19.1615V18.0002C13.9509 18.0002 13.4388 18.2117 13.036 18.5486C12.2277 18.398 11.6133 17.6904 11.6133 16.839C11.6133 15.8787 12.395 15.0971 13.3552 15.0971C14.3158 15.0971 15.0971 15.8787 15.0971 16.839H16.2584C16.2584 15.2383 14.9562 13.9358 13.3552 13.9358C12.6992 13.9358 12.0998 14.1629 11.6133 14.5317V14.5164C10.9729 14.5164 10.452 13.9956 10.452 13.3552C10.452 12.7147 10.9729 12.1939 11.6133 12.1939V12.1789C12.0998 12.5477 12.6992 12.7745 13.3552 12.7745C14.9562 12.7745 16.2584 11.4724 16.2584 9.87136H15.0971C15.0971 10.8319 14.3158 11.6133 13.3552 11.6133C12.395 11.6133 11.6133 10.8319 11.6133 9.87136C11.6133 9.02025 12.2277 8.3126 13.036 8.16206C13.4388 8.49887 13.9509 8.71009 14.5165 8.71009V7.54882C13.876 7.54882 13.3552 7.02801 13.3552 6.38755C13.3552 5.7471 13.876 5.22628 14.5165 5.22628Z" fill="#5CC3B4"/>
<path d="M26.1293 4.06502C25.8401 4.06502 25.5662 4.12484 25.3108 4.22123C24.9343 3.44497 24.1453 2.90375 23.2261 2.90375C21.9452 2.90375 20.9036 3.94566 20.9036 5.22628V21.484C20.9036 22.765 21.9452 23.8066 23.2261 23.8066C24.1453 23.8066 24.9343 23.2656 25.3108 22.4891C25.5662 22.5855 25.8401 22.6453 26.1293 22.6453C27.4102 22.6453 28.4518 21.6037 28.4518 20.3228C28.4518 20.05 28.3962 19.7915 28.3089 19.5482C29.407 19.1337 30.1937 18.0805 30.1937 16.839C30.1937 16.3612 30.0667 15.9164 29.8612 15.5181C30.7321 15.183 31.355 14.3435 31.355 13.3552C31.355 12.3671 30.7321 11.5274 29.8612 11.1925C30.0667 10.7942 30.1937 10.3494 30.1937 9.87136C30.1937 8.63014 29.407 7.57689 28.3089 7.16211C28.3962 6.91886 28.4518 6.66058 28.4518 6.38755C28.4518 5.10693 27.4102 4.06502 26.1293 4.06502ZM29.0324 9.87136C29.0324 10.8319 28.2511 11.6133 27.2905 11.6133C26.3303 11.6133 25.5486 10.8319 25.5486 9.87136H24.3874C24.3874 11.4724 25.6898 12.7745 27.2905 12.7745C27.9466 12.7745 28.5459 12.5477 29.0324 12.1789V12.1939C29.6729 12.1939 30.1937 12.7147 30.1937 13.3552C30.1937 13.9956 29.6729 14.5164 29.0324 14.5164V14.5317C28.5459 14.1629 27.9466 13.9358 27.2905 13.9358C25.6898 13.9358 24.3874 15.2383 24.3874 16.839H25.5486C25.5486 15.8787 26.3303 15.0971 27.2905 15.0971C28.2511 15.0971 29.0324 15.8787 29.0324 16.839C29.0324 17.6904 28.4181 18.398 27.6101 18.5486C27.2069 18.2117 26.6949 18.0002 26.1293 18.0002V19.1615C26.7697 19.1615 27.2905 19.6823 27.2905 20.3228C27.2905 20.9632 26.7697 21.484 26.1293 21.484C25.4888 21.484 24.968 20.9632 24.968 20.3228H23.8067C23.8067 20.881 24.0128 21.3871 24.342 21.7877C24.2073 22.2801 23.7608 22.6453 23.2261 22.6453C22.5856 22.6453 22.0648 22.1245 22.0648 21.484V5.22628C22.0648 4.58583 22.5856 4.06502 23.2261 4.06502C23.7608 4.06502 24.2073 4.43046 24.342 4.92264C24.0128 5.32325 23.8067 5.8296 23.8067 6.38755H24.968C24.968 5.7471 25.4888 5.22628 26.1293 5.22628C26.7697 5.22628 27.2905 5.7471 27.2905 6.38755C27.2905 7.02801 26.7697 7.54882 26.1293 7.54882V8.71009C26.6949 8.71009 27.2069 8.49887 27.6101 8.16206C28.4181 8.3126 29.0324 9.02025 29.0324 9.87136Z" fill="#5CC3B4"/>
<path d="M29.4662 3.62158C26.753 1.07138 23.1994 -0.207264 19.4701 0.0274846L19.5421 1.1862C22.9496 0.974417 26.193 2.13966 28.6712 4.46758C31.1505 6.79749 32.5162 9.9544 32.5162 13.3551C32.5162 17.4533 30.4735 21.2535 27.0518 23.5211C25.8715 24.3036 24.9785 25.4197 24.4282 26.7097H16.1935C15.6356 25.4104 14.7391 24.2863 13.5569 23.4967C10.0305 21.1398 8.00427 17.2038 8.1361 12.9662L6.9754 12.9302C6.83081 17.5707 9.05043 21.8818 12.9119 24.4618C13.7647 25.0319 14.4457 25.8082 14.9203 26.7097H13.3553V27.871H15.3835C15.4961 28.2472 15.5863 28.6328 15.6319 29.0323H14.5166V30.1935H15.6778V31.9354C15.6778 32.2567 15.9381 32.5161 16.2585 32.5161H16.8391C16.8391 34.4374 18.4015 35.9999 20.3229 35.9999C22.2443 35.9999 23.8067 34.4374 23.8067 32.5161H24.3873C24.708 32.5161 24.968 32.2567 24.968 31.9354V30.1935H26.1292V29.0323H25.0088C25.0499 28.6334 25.1318 28.2467 25.2421 27.871H27.2905V26.7097H25.7003C26.1681 25.8181 26.8451 25.0515 27.6937 24.4895C31.4403 22.0048 33.6775 17.8429 33.6775 13.3551C33.6775 9.6845 32.1423 6.13634 29.4662 3.62158ZM20.3229 34.8386C19.042 34.8386 18.0004 33.797 18.0004 32.5161H22.6454C22.6454 33.797 21.6038 34.8386 20.3229 34.8386ZM23.8067 31.3548H16.8391V30.1935H23.8067V31.3548ZM23.8481 29.0323H16.7926C16.7538 28.637 16.6911 28.2486 16.5958 27.871H24.0287C23.9363 28.2481 23.8827 28.6382 23.8481 29.0323Z" fill="#10112F"/>
<path d="M6.38752 4.06505C7.66843 4.06505 8.71006 5.10696 8.71006 6.38759C8.71006 6.70881 8.97032 6.96822 9.29069 6.96822C9.61134 6.96822 9.87132 6.70881 9.87132 6.38759C9.87132 5.10696 10.913 4.06505 12.1939 4.06505C12.5145 4.06505 12.7745 3.80564 12.7745 3.48442C12.7745 3.16348 12.5145 2.90378 12.1939 2.90378C10.913 2.90378 9.87132 1.86216 9.87132 0.581245C9.87132 0.260308 9.61134 0.000610352 9.29069 0.000610352C8.97032 0.000610352 8.71006 0.260308 8.71006 0.581245C8.71006 1.86216 7.66843 2.90378 6.38752 2.90378C6.06715 2.90378 5.80688 3.16348 5.80688 3.48442C5.80688 3.80564 6.06715 4.06505 6.38752 4.06505ZM9.29069 2.50488C9.54869 2.89272 9.88238 3.2267 10.2702 3.48442C9.88238 3.74241 9.54869 4.07611 9.29069 4.46395C9.03298 4.07611 8.699 3.74241 8.31115 3.48442C8.699 3.2267 9.03298 2.89272 9.29069 2.50488Z" fill="#10112F"/>
<path d="M8.71022 9.87132C9.03087 9.87132 9.29085 9.61191 9.29085 9.29069C9.29085 8.96975 9.03087 8.71006 8.71022 8.71006C7.42931 8.71006 6.38768 7.66843 6.38768 6.38752C6.38768 6.06658 6.1277 5.80688 5.80705 5.80688C5.48668 5.80688 5.22641 6.06658 5.22641 6.38752C5.22641 7.66843 4.18479 8.71006 2.90388 8.71006C2.58351 8.71006 2.32324 8.96975 2.32324 9.29069C2.32324 9.61191 2.58351 9.87132 2.90388 9.87132C4.18479 9.87132 5.22641 10.9132 5.22641 12.1939C5.22641 12.5151 5.48668 12.7745 5.80705 12.7745C6.1277 12.7745 6.38768 12.5151 6.38768 12.1939C6.38768 10.9132 7.42931 9.87132 8.71022 9.87132ZM5.80705 10.2702C5.54933 9.88238 5.21536 9.54869 4.82751 9.29069C5.21536 9.03298 5.54877 8.699 5.80705 8.31115C6.06504 8.699 6.39874 9.03241 6.78658 9.29069C6.39874 9.54869 6.06504 9.88238 5.80705 10.2702Z" fill="#10112F"/>
</svg>
