<svg width="44" height="44" viewBox="0 0 44 44" fill="none" xmlns="http://www.w3.org/2000/svg">
<path d="M27.5532 23.289C29.2049 21.2463 30.1433 18.6725 30.1433 15.9689V11.024C30.1433 10.9209 30.1055 10.8264 30.0411 10.7542C29.9775 10.682 29.8889 10.6322 29.7867 10.6184C27.1948 10.2884 24.7318 9.29499 22.6358 7.73436L22.2439 7.44217C22.0987 7.33389 21.9011 7.33389 21.7558 7.44217L21.3639 7.73436C20.3155 8.51467 19.176 9.15319 17.9746 9.63788C16.7732 10.1226 15.509 10.4534 14.2131 10.6184C14.0094 10.6451 13.8564 10.8187 13.8564 11.024V15.9689C13.8564 19.9908 15.9327 23.7273 19.347 25.8517L21.5521 27.2233C21.8263 27.3943 22.1735 27.3943 22.4476 27.2233L24.6528 25.8517C24.9003 25.6979 25.1418 25.5346 25.3746 25.3636" stroke="#5CC3B4" stroke-miterlimit="10" stroke-linecap="round" stroke-linejoin="round"/>
<path d="M22 22.1202C24.8939 22.1202 27.2399 19.7742 27.2399 16.8803C27.2399 13.9863 24.8939 11.6403 22 11.6403C19.106 11.6403 16.76 13.9863 16.76 16.8803C16.76 19.7742 19.106 22.1202 22 22.1202Z" stroke="#10112F" stroke-miterlimit="10" stroke-linecap="round" stroke-linejoin="round"/>
<path d="M19.6846 16.867L21.6617 19.0649L24.5712 15.3287" stroke="#5CC3B4" stroke-miterlimit="10" stroke-linecap="round" stroke-linejoin="round"/>
<path d="M13.4712 35.5858L15.9395 30.9784" stroke="#10112F" stroke-miterlimit="10" stroke-linecap="round" stroke-linejoin="round"/>
<path d="M27.9584 35.6468C24.7206 32.2656 19.3196 32.2559 16.0693 35.6177" stroke="#10112F" stroke-miterlimit="10" stroke-linecap="round" stroke-linejoin="round"/>
<path d="M28.0708 30.9977L30.5551 35.6351" stroke="#10112F" stroke-miterlimit="10" stroke-linecap="round" stroke-linejoin="round"/>
<path d="M29.462 38.8867H31.9688C32.1587 38.8867 32.3125 38.7329 32.3125 38.543V36.0508C32.3125 35.8609 32.1587 35.707 31.9688 35.707H12.0312C11.8413 35.707 11.6875 35.8609 11.6875 36.0508V38.543C11.6875 38.7329 11.8413 38.8867 12.0312 38.8867H26.4541" stroke="#10112F" stroke-miterlimit="10" stroke-linecap="round" stroke-linejoin="round"/>
<path d="M35.5901 11.3906H32.7217V15.3816" stroke="#10112F" stroke-miterlimit="10" stroke-linecap="round" stroke-linejoin="round"/>
<path d="M33.7925 23.7885H30.4014C31.4924 21.957 32.2209 19.9327 32.547 17.8258L32.5572 17.76H38.2013" stroke="#10112F" stroke-miterlimit="10" stroke-linecap="round" stroke-linejoin="round"/>
<path d="M8.39893 11.3906H11.2783V15.3816" stroke="#10112F" stroke-miterlimit="10" stroke-linecap="round" stroke-linejoin="round"/>
<path d="M10.1399 23.7885H13.5989C12.5078 21.957 11.7793 19.9327 11.4533 17.8258L11.4431 17.76H5.82568" stroke="#10112F" stroke-miterlimit="10" stroke-linecap="round" stroke-linejoin="round"/>
<path d="M5.41406 5.11328H1.50391C1.02953 5.11328 0.644531 5.49828 0.644531 5.97266V30.0352C0.644531 30.5095 1.02953 30.8945 1.50391 30.8945H6.30094" stroke="#10112F" stroke-miterlimit="10" stroke-linecap="round" stroke-linejoin="round"/>
<path d="M8.42188 5.11328H42.4961C42.9705 5.11328 43.3555 5.49828 43.3555 5.97266V30.0352C43.3555 30.5095 42.9705 30.8945 42.4961 30.8945H9.30875" stroke="#10112F" stroke-miterlimit="10" stroke-linecap="round" stroke-linejoin="round"/>
<path d="M6.91844 12.7238C7.65476 12.7238 8.25167 12.1269 8.25167 11.3906C8.25167 10.6543 7.65476 10.0574 6.91844 10.0574C6.18211 10.0574 5.58521 10.6543 5.58521 11.3906C5.58521 12.1269 6.18211 12.7238 6.91844 12.7238Z" stroke="#10112F" stroke-miterlimit="10" stroke-linecap="round" stroke-linejoin="round"/>
<path d="M4.34007 19.0932C5.0764 19.0932 5.6733 18.4963 5.6733 17.76C5.6733 17.0237 5.0764 16.4268 4.34007 16.4268C3.60375 16.4268 3.00684 17.0237 3.00684 17.76C3.00684 18.4963 3.60375 19.0932 4.34007 19.0932Z" stroke="#10112F" stroke-miterlimit="10" stroke-linecap="round" stroke-linejoin="round"/>
<path d="M8.63719 25.1218C9.37351 25.1218 9.97042 24.5249 9.97042 23.7886C9.97042 23.0522 9.37351 22.4553 8.63719 22.4553C7.90086 22.4553 7.30396 23.0522 7.30396 23.7886C7.30396 24.5249 7.90086 25.1218 8.63719 25.1218Z" stroke="#10112F" stroke-miterlimit="10" stroke-linecap="round" stroke-linejoin="round"/>
<path d="M37.0815 12.7238C37.8179 12.7238 38.4148 12.1269 38.4148 11.3906C38.4148 10.6543 37.8179 10.0574 37.0815 10.0574C36.3452 10.0574 35.7483 10.6543 35.7483 11.3906C35.7483 12.1269 36.3452 12.7238 37.0815 12.7238Z" stroke="#10112F" stroke-miterlimit="10" stroke-linecap="round" stroke-linejoin="round"/>
<path d="M39.6599 19.0932C40.3962 19.0932 40.9931 18.4963 40.9931 17.76C40.9931 17.0237 40.3962 16.4268 39.6599 16.4268C38.9236 16.4268 38.3267 17.0237 38.3267 17.76C38.3267 18.4963 38.9236 19.0932 39.6599 19.0932Z" stroke="#10112F" stroke-miterlimit="10" stroke-linecap="round" stroke-linejoin="round"/>
<path d="M35.3628 25.1218C36.0991 25.1218 36.696 24.5249 36.696 23.7886C36.696 23.0522 36.0991 22.4553 35.3628 22.4553C34.6264 22.4553 34.0295 23.0522 34.0295 23.7886C34.0295 24.5249 34.6264 25.1218 35.3628 25.1218Z" stroke="#10112F" stroke-miterlimit="10" stroke-linecap="round" stroke-linejoin="round"/>
</svg>
