<svg width="66" height="66" viewBox="0 0 66 66" fill="none" xmlns="http://www.w3.org/2000/svg">
<g clip-path="url(#clip0_23_72)">
<path d="M63.4687 60.0026V50.3412C64.146 50.0993 64.7172 49.6217 65.0809 48.9931C65.4446 48.3645 65.5774 47.6254 65.4557 46.9069C65.3341 46.1883 64.9658 45.5368 64.4161 45.0676C63.8665 44.5984 63.1711 44.342 62.453 44.3438H57.1877C57.3082 44.0135 57.3715 43.6646 57.3749 43.3125C57.373 42.6748 57.1767 42.0533 56.813 41.5334C56.4493 41.0135 55.9361 40.6207 55.3437 40.4088V38.1563H58.5741L56.7976 27.3368C57.2441 26.9013 57.5699 26.3544 57.7426 25.7507C57.9152 25.1471 57.9286 24.508 57.7813 23.8974C57.634 23.2869 57.3313 22.7264 56.9035 22.2721C56.4757 21.8178 55.9378 21.4856 55.3437 21.3089V16.8202L52.6991 15.7973L61.125 12.375L32.9999 0.951741L4.87483 12.375L16.7499 17.1983V29.9063H12.6874C10.968 29.9044 9.29234 30.457 7.90219 31.4845C6.51203 32.512 5.47917 33.9613 4.95255 35.6233C4.42593 37.2853 4.43275 39.0742 4.97205 40.732C5.51134 42.3898 6.55523 43.8309 7.95319 44.8474C5.52457 45.6258 3.45053 47.2611 2.10626 49.4575C0.761994 51.6538 0.23628 54.2662 0.624223 56.8219C1.01217 59.3777 2.28814 61.708 4.22133 63.3915C6.15452 65.0749 8.61724 66.0002 11.164 66H62.453C63.1711 66.0017 63.8665 65.7453 64.4161 65.2762C64.9658 64.807 65.3341 64.1554 65.4557 63.4369C65.5774 62.7183 65.4446 61.9793 65.0809 61.3506C64.7172 60.722 64.146 60.2444 63.4687 60.0026ZM61.4374 52.5938H43.1562V54.6563H61.4374V59.8125H10.984C9.77189 59.8125 8.60942 59.3236 7.75232 58.4533C6.89522 57.583 6.4137 56.4026 6.4137 55.1719C6.4137 53.9411 6.89522 52.7607 7.75232 51.8905C8.60942 51.0202 9.77189 50.5313 10.984 50.5313H61.4374V52.5938ZM53.3124 40.2188H12.6874C12.1487 40.2188 11.632 40.0015 11.2511 39.6147C10.8702 39.2279 10.6562 38.7033 10.6562 38.1563C10.6562 37.6092 10.8702 37.0846 11.2511 36.6978C11.632 36.311 12.1487 36.0938 12.6874 36.0938H24.85C27.5087 36.808 30.25 37.1548 32.9999 37.125C35.7499 37.1549 38.4912 36.808 41.1498 36.0938H50.4207L50.082 38.1563H53.3124V40.2188ZM48.6903 31.9688H51.0984L50.7598 34.0313H46.0622C47.0258 33.4672 47.9098 32.7734 48.6903 31.9688ZM56.1755 36.0938H52.4803L53.7593 28.301C54.1346 28.3788 54.5215 28.3788 54.8968 28.301L56.1755 36.0938ZM55.8515 24.75C55.8515 25.0559 55.7621 25.355 55.5947 25.6094C55.4273 25.8638 55.1894 26.062 54.911 26.1791C54.6327 26.2962 54.3264 26.3268 54.0308 26.2672C53.7353 26.2075 53.4639 26.0601 53.2508 25.8438C53.0378 25.6275 52.8927 25.3518 52.8339 25.0518C52.7751 24.7517 52.8053 24.4407 52.9206 24.158C53.0359 23.8754 53.2311 23.6338 53.4817 23.4638C53.7322 23.2938 54.0267 23.2031 54.328 23.2031C54.7319 23.2036 55.1192 23.3667 55.4048 23.6567C55.6904 23.9467 55.851 24.3399 55.8515 24.75ZM53.3124 18.2428V21.3094C52.7183 21.4861 52.1804 21.8183 51.7526 22.2726C51.3248 22.7269 51.0221 23.2874 50.8748 23.898C50.7275 24.5085 50.7409 25.1476 50.9135 25.7512C51.0862 26.3549 51.412 26.9018 51.8585 27.3373L51.4366 29.9063H49.2499V17.1983L49.915 16.9281L53.3124 18.2428ZM32.9999 3.17326L55.6561 12.375L49.8975 14.7138L33.3615 8.31744L32.6384 10.2451L47.1138 15.8447L32.9999 21.5767L10.3438 12.375L32.9999 3.17326ZM32.9999 23.7983L47.2187 18.0233V30.5468C46.3087 31.5047 42.2983 35.0625 32.9999 35.0625C23.6917 35.0625 19.6827 31.4964 18.7812 30.5478V18.0233L32.9999 23.7983ZM6.59367 38.1563C6.59545 36.5158 7.23803 34.943 8.38045 33.783C9.52286 32.623 11.0718 31.9706 12.6874 31.9688H17.3095C18.09 32.7734 18.9741 33.4672 19.9377 34.0313H12.6874C11.61 34.0313 10.5767 34.4658 9.8148 35.2394C9.05293 36.013 8.62492 37.0622 8.62492 38.1563C8.62492 39.2503 9.05293 40.2995 9.8148 41.0731C10.5767 41.8466 11.61 42.2813 12.6874 42.2813H54.328C54.5974 42.2813 54.8557 42.3899 55.0462 42.5833C55.2367 42.7767 55.3437 43.039 55.3437 43.3125C55.3437 43.586 55.2367 43.8483 55.0462 44.0417C54.8557 44.2351 54.5974 44.3438 54.328 44.3438H12.6874C11.0718 44.3419 9.52286 43.6895 8.38045 42.5295C7.23803 41.3695 6.59545 39.7967 6.59367 38.1563ZM62.453 63.9375H11.164C8.87442 63.9375 6.67863 63.014 5.05966 61.3701C3.4407 59.7262 2.53117 57.4967 2.53117 55.1719C2.53117 52.8471 3.4407 50.6175 5.05966 48.9736C6.67863 47.3298 8.87442 46.4063 11.164 46.4063H62.453C62.7224 46.4063 62.9807 46.5149 63.1712 46.7083C63.3617 46.9017 63.4687 47.164 63.4687 47.4375C63.4687 47.711 63.3617 47.9733 63.1712 48.1667C62.9807 48.3601 62.7224 48.4688 62.453 48.4688H10.984C9.23317 48.4688 7.55404 49.175 6.31601 50.432C5.07797 51.6891 4.38245 53.3941 4.38245 55.1719C4.38245 56.9497 5.07797 58.6546 6.31601 59.9117C7.55404 61.1688 9.23317 61.875 10.984 61.875H62.453C62.7224 61.875 62.9807 61.9836 63.1712 62.177C63.3617 62.3704 63.4687 62.6327 63.4687 62.9063C63.4687 63.1798 63.3617 63.4421 63.1712 63.6355C62.9807 63.8289 62.7224 63.9375 62.453 63.9375Z" fill="#10112F"/>
<path d="M39.0938 55.6875H10.6562V57.75H39.0938V55.6875Z" fill="#5CC3B4"/>
</g>
<defs>
<clipPath id="clip0_23_72">
<rect width="65" height="66" fill="white" transform="translate(0.5)"/>
</clipPath>
</defs>
</svg>
