<svg width="66" height="66" viewBox="0 0 66 66" fill="none" xmlns="http://www.w3.org/2000/svg">
<g clip-path="url(#clip0_23_109)">
<path d="M60.6854 33.5907C60.6854 33.0566 60.2527 32.6239 59.7186 32.6239H43.7317C43.1976 32.6239 42.7649 33.0566 42.7649 33.5907V37.2351C42.7649 37.7692 43.1976 38.2019 43.7317 38.2019H59.7188C60.2528 38.2019 60.6856 37.7692 60.6856 37.2351V33.5907H60.6854ZM58.7518 36.2683H44.6985V34.5575H58.752V36.2683H58.7518Z" fill="#10112F"/>
<path d="M50.7546 41.0764C50.7546 40.5423 50.3219 40.1096 49.7878 40.1096H43.7317C43.1976 40.1096 42.7649 40.5423 42.7649 41.0764V44.7207C42.7649 45.2547 43.1976 45.6875 43.7317 45.6875H49.7878C50.3219 45.6875 50.7546 45.2547 50.7546 44.7207V41.0764ZM48.821 43.754H44.6985V42.0433H48.821V43.754Z" fill="#10112F"/>
<path d="M60.6855 41.0764C60.6855 40.5423 60.2528 40.1096 59.7187 40.1096H53.6626C53.1285 40.1096 52.6958 40.5423 52.6958 41.0764V44.7207C52.6958 45.2547 53.1285 45.6875 53.6626 45.6875H59.7187C60.2528 45.6875 60.6855 45.2547 60.6855 44.7207V41.0764ZM58.7519 43.754H54.6294V42.0433H58.7519V43.754Z" fill="#10112F"/>
<path d="M49.7878 47.5953H43.7317C43.1976 47.5953 42.7649 48.028 42.7649 48.5621V52.2065C42.7649 52.7406 43.1976 53.1733 43.7317 53.1733H49.7878C50.3219 53.1733 50.7546 52.7406 50.7546 52.2065V48.5621C50.7546 48.028 50.3219 47.5953 49.7878 47.5953ZM48.821 51.2397H44.6985V49.5289H48.821V51.2397Z" fill="#10112F"/>
<path d="M59.7187 47.5953H53.6626C53.1285 47.5953 52.6958 48.028 52.6958 48.5621V52.2065C52.6958 52.7406 53.1285 53.1733 53.6626 53.1733H59.7187C60.2528 53.1733 60.6855 52.7406 60.6855 52.2065V48.5621C60.6855 48.028 60.2528 47.5953 59.7187 47.5953ZM58.7519 51.2397H54.6294V49.5289H58.7519V51.2397Z" fill="#10112F"/>
<path d="M65.0332 20.2437H57.6113C57.1896 20.2437 56.8165 20.5171 56.6895 20.9192L54.6956 27.2294H38.4173C37.8832 27.2294 37.4505 27.6621 37.4505 28.1962V39.1848L24.0147 41.7623L24.669 32.0202H31.8893L32.1787 36.329C32.2146 36.8618 32.6758 37.2628 33.2082 37.2288C33.741 37.1929 34.1438 36.732 34.1079 36.1993L32.9181 18.4837C32.8841 17.9761 32.4623 17.5818 31.9535 17.5818H24.6049C24.0961 17.5818 23.6744 17.9761 23.6402 18.4837L22.0515 42.1388L16.7353 43.1586L15.3489 22.5336C15.3147 22.026 14.8931 21.6315 14.3843 21.6315H12.842C12.3081 21.6315 11.8752 22.0642 11.8752 22.5983C11.8752 23.1324 12.3081 23.5651 12.842 23.5651H13.4802L13.8422 28.9496H7.57788L7.93946 23.5651H8.16389C8.69782 23.5651 9.13069 23.1324 9.13069 22.5983C9.13069 22.0642 8.69782 21.6315 8.16389 21.6315H7.03545C6.52665 21.6315 6.10487 22.026 6.07084 22.5336L4.28575 49.1139L0.793418 49.7503C0.333996 49.8341 0 50.2344 0 50.7014V65.0125C0 65.5465 0.432867 65.9793 0.966797 65.9793L65.0332 65.9794C65.5673 65.9794 66 65.5466 66 65.0126V61.4454C66 60.9113 65.5673 60.4786 65.0332 60.4786C64.4991 60.4786 64.0664 60.9113 64.0664 61.4454V64.0458H56.3707V56.2461C56.3707 55.712 55.938 55.2793 55.4039 55.2793H48.0466C47.5125 55.2793 47.0798 55.712 47.0798 56.2461V64.0458H39.3841V29.163H64.0664V57.0195C64.0664 57.5536 64.4991 57.9863 65.0332 57.9863C65.5673 57.9863 66 57.5536 66 57.0195V21.2105C66 20.6764 65.5673 20.2437 65.0332 20.2437ZM31.7593 30.0866H24.7989L25.0527 26.3058H31.5053L31.7593 30.0866ZM31.0494 19.5155L31.3755 24.3723H25.1825L25.5086 19.5155H31.0494ZM49.0134 57.2129H54.4371V64.0457H49.0134V57.2129ZM14.2467 34.9674H7.17428L7.44833 30.8832H13.9715L14.2467 34.9674ZM7.04395 36.901H14.3767L14.822 43.5258L10.5284 44.3496C10.073 44.437 9.74376 44.8353 9.74376 45.299V48.1194L6.24757 48.7565L7.04395 36.901ZM1.93359 51.508L10.8839 49.8771C11.3434 49.7933 11.6774 49.3929 11.6774 48.9259V46.0979L37.4504 41.1537V64.0458H1.93359V51.508ZM56.7233 27.2294L58.3198 22.1773H64.0664V27.2294H56.7233Z" fill="#10112F"/>
<path d="M25.4618 10.4925C25.4778 10.4925 25.4907 10.5048 25.4907 10.5199V12.3305C25.4907 15.9304 31.0687 15.9172 31.0687 12.3305V10.5198C31.0919 10.4836 31.1264 10.4744 31.172 10.4923C32.8394 10.4923 34.3678 9.3751 34.872 7.7853H36.9783C41.9992 7.7853 41.9645 0.0206299 36.9783 0.0206299H31.1953C29.5278 0.0206299 27.9996 1.13786 27.4952 2.72766H25.3875C20.3378 2.72766 20.4188 10.4925 25.4618 10.4925ZM24.0098 5.23244C24.3781 4.86415 24.8673 4.66125 25.3876 4.66125H28.2885C28.7966 4.66125 29.2182 4.2677 29.253 3.76084C29.3214 2.7644 30.1958 1.95422 31.1952 1.95422H36.9782C39.4603 1.95422 39.5343 5.8517 36.9782 5.8517H34.0787C33.5705 5.8517 33.149 6.24525 33.1142 6.75211C33.0458 7.74856 32.1714 8.55873 31.172 8.55873C30.0826 8.55732 29.1351 9.40243 29.1351 10.5198V12.3304C29.1351 13.4333 27.4243 13.4347 27.4243 12.3304V10.5198C27.4243 9.43839 26.5439 8.55873 25.4618 8.55873C23.768 8.55886 22.7725 6.46981 24.0098 5.23244Z" fill="#5CC3B4"/>
<path d="M4.01922 11.8041C4.40027 13.5943 6.07747 14.8884 7.89414 14.8884C7.90974 14.8884 7.92147 14.9003 7.92147 14.9159V16.7264C7.92147 20.3263 13.4995 20.3132 13.4995 16.7264V14.9159C13.5227 14.8797 13.5571 14.8705 13.6026 14.8884C18.6233 14.8884 18.5886 7.12376 13.6026 7.12376H9.21234C8.85965 5.21853 7.18555 3.77078 5.17964 3.77078C2.91836 3.77078 1.07861 5.6104 1.07861 7.87181C1.07874 9.70356 2.31856 11.298 4.01922 11.8041ZM5.17976 5.70438C6.37485 5.70438 7.34719 6.67672 7.34719 7.87181C7.34719 8.45743 7.61738 9.05723 8.30523 9.05723H13.6028C16.0846 9.05723 16.1588 12.9547 13.6028 12.9547C12.5134 12.9533 11.566 13.7984 11.566 14.9158V16.7262C11.566 17.8293 9.8552 17.8307 9.8552 16.7262V14.9158C9.8552 13.8344 8.97554 12.9547 7.89427 12.9547C6.82564 12.9547 5.86219 12.0816 5.86967 10.9928C5.86967 10.4911 5.48592 10.0728 4.98615 10.0296C3.87936 9.93379 3.01234 8.98581 3.01234 7.87168C3.01234 6.67672 3.98455 5.70438 5.17976 5.70438Z" fill="#5CC3B4"/>
<path d="M16.5183 52.5746H19.8735C20.4074 52.5746 20.8403 52.1418 20.8403 51.6078V48.2527C20.8403 47.7187 20.4074 47.2859 19.8735 47.2859H16.5183C15.9844 47.2859 15.5515 47.7187 15.5515 48.2527V51.6078C15.5515 52.1417 15.9843 52.5746 16.5183 52.5746ZM17.4851 49.2194H18.9067V50.6408H17.4851V49.2194Z" fill="#10112F"/>
<path d="M23.4189 52.5746H26.774C27.3079 52.5746 27.7408 52.1418 27.7408 51.6078V48.2527C27.7408 47.7187 27.3079 47.2859 26.774 47.2859H23.4189C22.885 47.2859 22.4521 47.7187 22.4521 48.2527V51.6078C22.4521 52.1417 22.885 52.5746 23.4189 52.5746ZM24.3857 49.2194H25.8072V50.6408H24.3857V49.2194Z" fill="#10112F"/>
<path d="M33.6745 47.2858H30.3193C29.7854 47.2858 29.3525 47.7185 29.3525 48.2526V51.6076C29.3525 52.1417 29.7854 52.5744 30.3193 52.5744H33.6745C34.2086 52.5744 34.6413 52.1417 34.6413 51.6076V48.2526C34.6413 47.7186 34.2086 47.2858 33.6745 47.2858ZM32.7077 50.6409H31.2861V49.2195H32.7077V50.6409Z" fill="#10112F"/>
<path d="M33.6744 54.8496H6.76758C6.23365 54.8496 5.80078 55.2823 5.80078 55.8164C5.80078 56.3505 6.23365 56.7832 6.76758 56.7832H33.6744C34.2085 56.7832 34.6412 56.3505 34.6412 55.8164C34.6412 55.2823 34.2085 54.8496 33.6744 54.8496Z" fill="#5CC3B4"/>
</g>
<defs>
<clipPath id="clip0_23_109">
<rect width="66" height="66" fill="white"/>
</clipPath>
</defs>
</svg>
