<svg width="40" height="37" viewBox="0 0 40 37" fill="none" xmlns="http://www.w3.org/2000/svg">
<path d="M20.8009 35.3452H17.4464C17.1272 35.3452 16.8083 35.2326 16.5482 35.0279C15.5958 34.2795 14.5817 34.0598 13.5981 33.9671V23.7928C14.4397 22.8459 15.3416 22.1558 16.2155 21.4873C18.1884 19.978 20.0519 18.5523 19.8627 14.8146C19.8911 14.2274 20.1905 13.904 20.7612 13.8442C21.1538 13.8442 21.507 14.1098 21.6202 14.4904C21.8495 15.2608 22.0108 15.974 22.1129 16.6706C22.161 16.9986 22.4594 17.2247 22.7794 17.1751C23.0995 17.1258 23.3198 16.8199 23.2718 16.4919C23.1609 15.7365 22.9873 14.9672 22.7411 14.14C22.4748 13.2447 21.6792 12.6431 20.7612 12.6431C19.4474 12.7805 18.7578 13.5253 18.6925 14.8771C18.8492 17.9737 17.4505 19.0438 15.5146 20.5247C14.9087 20.9883 14.2498 21.4924 13.5971 22.1009V20.9133C13.5971 20.5572 13.3101 20.3606 13.0109 20.3127L7.68304 20.3151C7.3596 20.3153 7.09741 20.5841 7.09741 20.9157V26.8829C7.09741 27.2145 7.35976 27.4834 7.68335 27.4834C8.00694 27.4834 8.26929 27.2145 8.26929 26.8829V21.5159L12.4254 21.5141V35.3424L8.26929 35.3449V29.5005C8.26929 29.1688 8.00694 28.8999 7.68335 28.8999C7.35976 28.8999 7.09741 29.1688 7.09741 29.5005V35.9458C7.09741 36.3018 7.38444 36.4985 7.68366 36.5464L13.0116 36.5432C13.335 36.543 13.5971 36.2742 13.5971 35.9426V35.1746C14.5094 35.2708 15.1832 35.4688 15.8348 35.9809C16.2981 36.3455 16.8705 36.5463 17.4463 36.5463H20.8009C21.1244 36.5463 21.3868 36.2774 21.3868 35.9457C21.3868 35.614 21.1246 35.3452 20.8009 35.3452Z" fill="#10112F"/>
<path d="M10.6182 26.0094V24.478C10.6182 24.1463 10.3558 23.8774 10.0322 23.8774C9.70863 23.8774 9.44629 24.1463 9.44629 24.478V26.0094C9.44629 26.3411 9.70863 26.61 10.0322 26.61C10.3558 26.61 10.6182 26.3411 10.6182 26.0094Z" fill="#10112F"/>
<path d="M31.6577 25.2621C32.7605 23.7395 31.6495 21.555 29.836 21.555L22.9498 21.5547C23.1738 20.7999 23.3173 20.0267 23.3779 19.2465C23.4035 18.9159 23.1628 18.6266 22.8402 18.6002C22.5172 18.574 22.2353 18.8207 22.2097 19.1513C22.1356 20.1064 21.932 21.0123 21.5873 21.9197C21.5571 21.9921 21.5404 22.0719 21.5404 22.1556V23.6219C21.5404 25.2861 20.2194 26.6402 18.5957 26.6402C18.2721 26.6402 18.0098 26.9091 18.0098 27.2407C18.0098 27.5724 18.2721 27.8413 18.5957 27.8413C20.8656 27.8413 22.7122 25.9485 22.7122 23.6219V22.7559H24.3591C23.7735 23.8385 24.2315 25.3746 25.3034 25.9444C24.7088 26.8661 24.7088 27.7879 25.3034 28.7098C23.698 29.5631 23.698 31.9863 25.3034 32.8396C24.7693 33.6584 24.7149 34.4937 25.1402 35.3454H23.3548C23.0312 35.3454 22.7688 35.6143 22.7688 35.946C22.7688 36.2776 23.0311 36.5465 23.3548 36.5465L29.0548 36.5467C30.8684 36.5467 31.9794 34.3622 30.8766 32.8396C32.0517 32.2149 32.4571 30.4956 31.6577 29.392C33.2631 28.5385 33.2631 26.1154 31.6577 25.2621ZM25.248 23.8794C25.248 23.26 25.7397 22.7561 26.3439 22.7561H29.8361C30.4403 22.7561 30.932 23.26 30.932 23.8794C30.932 24.4988 30.4403 25.0026 29.8361 25.0026H26.3439C25.7397 25.0026 25.248 24.4987 25.248 23.8794ZM29.0549 35.3454H27.1371C27.133 35.3453 27.1291 35.3452 27.125 35.3452H27.1077C26.5115 35.3356 26.0293 34.8355 26.0293 34.2221C26.0293 33.6027 26.5209 33.0989 27.1252 33.0989H29.0549C29.6591 33.0989 30.1508 33.6027 30.1508 34.2221C30.1508 34.8415 29.6591 35.3454 29.0549 35.3454ZM29.836 31.8978H26.3438C25.7396 31.8978 25.248 31.3939 25.248 30.7745C25.248 30.1551 25.7396 29.6513 26.3438 29.6513H29.836C30.4402 29.6513 30.9319 30.1551 30.9319 30.7745C30.9319 31.3939 30.4403 31.8978 29.836 31.8978ZM30.6173 28.4502H27.1251C26.5209 28.4502 26.0292 27.9463 26.0292 27.327C26.0292 26.7076 26.5209 26.2037 27.1251 26.2037H30.6173C31.2215 26.2037 31.7131 26.7076 31.7131 27.327C31.7131 27.9463 31.2215 28.4502 30.6173 28.4502Z" fill="#10112F"/>
<path d="M15.9798 4.93568L17.165 6.11988L16.8852 7.79199C16.7609 8.8656 17.5324 9.43615 18.5288 9.01598L19.9938 8.22649L21.4588 9.01598C22.1979 9.41413 23.2682 8.78312 23.1023 7.79199L22.8226 6.1198L24.0077 4.93568C24.7294 4.1711 24.4852 3.13016 23.3799 2.95527L21.742 2.71127L21.0095 1.18995C20.5888 0.287468 19.4877 0.131316 18.978 1.18995L18.2455 2.71127L16.6076 2.95527C15.5403 3.19022 15.2669 4.13114 15.9798 4.93568ZM18.4343 3.89699C18.8034 3.84206 19.1222 3.60462 19.2873 3.26181L19.9938 1.79438L20.7004 3.26181C20.8654 3.60462 21.1843 3.84206 21.5534 3.89699L23.1332 4.13234L21.99 5.27457C21.723 5.54139 21.6013 5.92561 21.6642 6.3023L21.9341 7.91515L20.5209 7.15369C20.1695 6.97583 19.8182 6.97583 19.4668 7.15369L18.0538 7.91515L18.3236 6.30222C18.3866 5.92545 18.2648 5.54131 17.9978 5.27457L16.8546 4.13234L18.4343 3.89699Z" fill="white"/>
<path d="M7.35597 8.13858L8.54113 9.32269L8.26136 10.9948C8.0955 11.9858 9.16574 12.6171 9.90496 12.2189L11.3699 11.4294L12.8349 12.2189C13.7629 12.6432 14.5637 12.0486 14.4785 10.9949L14.1987 9.32285L15.3839 8.13866C16.0676 7.38424 15.8332 6.41329 14.7561 6.15824L13.1182 5.91425L12.3857 4.39292C11.81 3.38041 10.9018 3.4705 10.3542 4.39292L9.62167 5.91425L7.98378 6.15824C6.898 6.39327 6.63433 7.34412 7.35597 8.13858ZM9.81058 7.0998C10.1796 7.04479 10.4983 6.80736 10.6634 6.4647L11.37 4.99727L12.0765 6.4647C12.2415 6.80744 12.5603 7.04487 12.9294 7.09988L14.5093 7.33523L13.3662 8.47739C13.0991 8.74413 12.9773 9.12842 13.0403 9.50511L13.3102 11.1179L11.8971 10.3564C11.5457 10.1785 11.1943 10.1785 10.8428 10.3564L9.4298 11.1179L9.69964 9.50511C9.76269 9.12842 9.64097 8.74421 9.37386 8.47739L8.23066 7.33515L9.81058 7.0998Z" fill="white"/>
<path d="M7.45924 18.2013L7.17948 16.5292L8.36463 15.345C9.09526 14.6409 8.7537 13.5399 7.7369 13.3646L6.09893 13.1206L5.36643 11.5993C5.05245 10.8374 3.84464 10.5407 3.33487 11.5993L2.60237 13.1206L0.964479 13.3646C-0.103646 13.6 -0.240364 14.621 0.336745 15.3451L1.5219 16.5293L1.24214 18.2014C1.12682 19.3055 1.88854 19.906 2.88573 19.4254L4.35073 18.6359L5.81573 19.4254C6.55487 19.8236 7.6251 19.1923 7.45924 18.2013ZM6.34682 15.6838C6.07979 15.9505 5.95799 16.3347 6.02096 16.7115L6.29081 18.3243L4.87768 17.5628C4.54768 17.3849 4.15362 17.3849 3.82346 17.5628L2.41042 18.3243L2.68026 16.7114C2.74331 16.3346 2.62151 15.9504 2.35448 15.6838L1.21128 14.5415L2.79104 14.3063C3.1601 14.2513 3.47893 14.0139 3.64401 13.6711L4.35057 12.2036L5.05714 13.671C5.22221 14.0138 5.54104 14.2512 5.91003 14.3062L7.48987 14.5415L6.34682 15.6838Z" fill="white"/>
<path d="M39.022 13.3647L37.3842 13.1207L36.6517 11.5994C36.1352 10.5272 35.1298 10.5407 34.6201 11.5994L33.8875 13.1207L32.2497 13.3647C31.18 13.5701 30.901 14.5309 31.6218 15.3451L32.807 16.5293L32.5272 18.2015C32.3614 19.1925 33.4317 19.8236 34.1708 19.4254L35.6357 18.636L37.1007 19.4254C38.0979 19.8861 38.8792 19.2856 38.7442 18.2015L38.4645 16.5293L39.6497 15.3451C40.3148 14.6911 39.9925 13.5199 39.022 13.3647ZM37.632 15.6839C37.3649 15.9507 37.2432 16.3349 37.3063 16.7116L37.5761 18.3244L36.163 17.5629C35.8116 17.3851 35.4602 17.3851 35.1088 17.5629L33.6957 18.3244L33.9656 16.7116C34.0287 16.3348 33.9068 15.9505 33.6398 15.6839L32.4966 14.5416L34.0765 14.3063C34.4455 14.2514 34.7643 14.0139 34.9294 13.6712L35.636 12.2038L36.3426 13.6711C36.5076 14.0139 36.8264 14.2514 37.1955 14.3063L38.7754 14.5416L37.632 15.6839Z" fill="white"/>
<path d="M24.6268 8.13857L25.812 9.32269L25.5321 10.9948C25.4033 12.0786 26.1747 12.643 27.1757 12.2188L28.6406 11.4293L30.1056 12.2188C30.8449 12.6169 31.9151 11.9858 31.7492 10.9948L31.4695 9.32269L32.6546 8.13857C33.3618 7.26404 33.147 6.38318 32.0268 6.15816L30.3889 5.91416L29.6563 4.39292C29.2409 3.52984 28.0403 3.53 27.6248 4.39292L26.8923 5.91424L25.2544 6.15824C24.1534 6.37325 23.8799 7.27405 24.6268 8.13857ZM27.0814 7.0998C27.4504 7.04479 27.7692 6.80735 27.9343 6.46462L28.6409 4.99727L29.3474 6.46462C29.5124 6.80735 29.8313 7.04479 30.2004 7.0998L31.7802 7.33515L30.637 8.47738C30.37 8.7442 30.2483 9.12842 30.3113 9.50511L30.5811 11.118L29.1681 10.3565C28.8167 10.1786 28.4652 10.1786 28.1138 10.3565L26.7007 11.118L26.9706 9.50519C27.0337 9.1285 26.9119 8.74428 26.6448 8.47746L25.5016 7.33523L27.0814 7.0998Z" fill="white"/>
</svg>
