<svg width="66" height="67" viewBox="0 0 66 67" fill="none" xmlns="http://www.w3.org/2000/svg">
<g clip-path="url(#clip0_23_212)">
<path d="M53.5641 58.4409L51.0997 51.0468C50.2385 48.4653 48.0414 46.5598 45.363 46.0723L38.2489 44.7778V44.2264C39.4869 43.5079 40.5642 42.5466 41.4222 41.4086H43.5715C45.3322 41.4086 46.765 39.9758 46.765 38.2151V25.4409C46.765 17.8104 40.5567 11.6022 32.9263 11.6022C25.2958 11.6022 19.0876 17.8104 19.0876 25.4409V32.8925C19.0876 34.9449 20.547 36.662 22.4823 37.0622C23.0795 40.1216 24.9914 42.7105 27.6037 44.2264V44.7778L20.4885 46.0723C17.8112 46.5598 15.613 48.4653 14.7529 51.0468L14.3271 52.3253L10.7013 48.6995C10.2862 48.2844 10.2862 47.6084 10.7013 47.1932L14.9062 42.9894L7.01385 35.0971L2.26185 39.8491C0.854557 41.2564 0.0795898 43.1278 0.0795898 45.1185C0.0795898 47.1091 0.854557 48.9795 2.26185 50.3868L16.6488 64.7737C18.0561 66.181 19.9275 66.957 21.9181 66.957C23.9088 66.957 25.7791 66.181 27.1534 64.8056L32.3387 60.0547L30.7217 58.4409H53.5641ZM44.636 38.2151C44.636 38.8027 44.158 39.2796 43.5715 39.2796H42.6762C42.9849 38.576 43.2191 37.834 43.3703 37.0622C43.8259 36.9675 44.2453 36.7865 44.636 36.5587V38.2151ZM43.5715 34.7256V31.0594C44.2048 31.4288 44.636 32.108 44.636 32.8925C44.636 33.6771 44.2048 34.3562 43.5715 34.7256ZM22.2811 34.7256C21.6477 34.3562 21.2166 33.6771 21.2166 32.8925C21.2166 32.108 21.6477 31.4288 22.2811 31.0594V34.7256ZM22.2811 27.5699V28.7856C21.9022 28.8846 21.5466 29.0336 21.2166 29.2263V25.4409C21.2166 18.9846 26.47 13.7312 32.9263 13.7312C39.3826 13.7312 44.636 18.9846 44.636 25.4409V29.2263C44.306 29.0336 43.9504 28.8835 43.5715 28.7856V27.5699H42.5069C39.3592 27.5699 36.3998 26.3436 34.1728 24.1177L32.9263 22.8712L31.6797 24.1177C29.4528 26.3436 26.4934 27.5699 23.3457 27.5699H22.2811ZM24.4102 35.0215V29.6585C27.6069 29.4179 30.5876 28.099 32.9263 25.8752C35.265 28.099 38.2457 29.419 41.4424 29.6585V35.0215C41.4424 36.5736 41.0187 38.0256 40.2906 39.2796H32.9263V41.4086H38.5406C37.0396 42.7297 35.0777 43.5377 32.9263 43.5377C28.2307 43.5377 24.4102 39.7171 24.4102 35.0215ZM36.1199 45.176V45.226L32.9263 48.4195L29.7327 45.226V45.176C30.7419 45.4932 31.8139 45.6667 32.9263 45.6667C34.0387 45.6667 35.1107 45.4932 36.1199 45.176ZM16.7712 51.7195C17.3854 49.8758 18.9556 48.5143 20.8685 48.1651L28.3095 46.8132L32.9263 51.43L37.542 46.8143L44.9819 48.1662C46.8949 48.5154 48.465 49.8758 49.0793 51.7206L50.6111 56.3119H28.5927L24.4464 52.1656L19.8391 56.3332C19.4378 56.7366 18.7363 56.7366 18.3339 56.3332L16.009 54.0083L16.7712 51.7195ZM7.01278 38.1076L11.8947 42.9894L10.7386 44.1455L5.85672 39.2636L7.01278 38.1076ZM25.6791 63.2706C24.6742 64.2734 23.3371 64.828 21.916 64.828C20.4949 64.828 19.1578 64.2734 18.1519 63.2685L3.76494 48.8826C2.76004 47.8777 2.20649 46.5407 2.20649 45.1195C2.20649 43.6973 2.76004 42.3603 3.76494 41.3554L4.35043 40.7699L9.2323 45.6518L9.19398 45.6901C7.94956 46.9356 7.94956 48.9614 9.19398 50.2069L16.8276 57.8405C17.4312 58.443 18.2328 58.7762 19.0865 58.7762C19.9403 58.7762 20.7418 58.4441 21.306 57.8778L21.3859 57.8064L26.2901 62.7107L25.6791 63.2706ZM27.8613 61.2693L22.9677 56.3757L24.374 55.1047L29.259 59.9898L27.8613 61.2693Z" fill="#10112F"/>
<path d="M62.7328 0.957031H47.8295C46.0688 0.957031 44.636 2.38987 44.636 4.15058V12.6667C44.636 14.4274 46.0688 15.8603 47.8295 15.8603H50.6729L49.5721 22.2804L59.8447 15.8603H62.7328C64.4935 15.8603 65.9263 14.4274 65.9263 12.6667V4.15058C65.9263 2.38987 64.4935 0.957031 62.7328 0.957031ZM63.7973 12.6667C63.7973 13.2533 63.3193 13.7312 62.7328 13.7312H59.2337L52.473 17.9563L53.1979 13.7312H47.8295C47.243 13.7312 46.765 13.2533 46.765 12.6667V4.15058C46.765 3.56403 47.243 3.08606 47.8295 3.08606H62.7328C63.3193 3.08606 63.7973 3.56403 63.7973 4.15058V12.6667Z" fill="#10112F"/>
<path d="M61.6682 5.21509H48.894V7.34412H61.6682V5.21509Z" fill="#5CC3B4"/>
<path d="M57.4102 9.47316H48.894V11.6022H57.4102V9.47316Z" fill="#5CC3B4"/>
<path d="M61.6683 9.47316H59.5393V11.6022H61.6683V9.47316Z" fill="#5CC3B4"/>
<path d="M32.9264 4.15057C19.0174 4.15057 7.03629 13.7717 3.92152 27.192L1.90426 23.8292L0.0786133 24.9246L3.82039 31.1595L10.0553 27.4177L8.95987 25.5921L6.07503 27.323C9.09187 15.0459 20.132 6.27961 32.9264 6.27961C35.7229 6.27961 38.4821 6.69477 41.1274 7.51444L41.7576 5.48122C38.9079 4.59767 35.9368 4.15057 32.9264 4.15057Z" fill="#10112F"/>
<path d="M65.409 24.5275L59.1741 20.7858L55.4334 27.0217L57.2591 28.1171L59.122 25.0119C60.1024 27.8808 60.6038 30.8816 60.6038 33.957C60.6038 40.2877 58.4109 46.4768 54.4307 51.3832L56.0839 52.7244C60.3717 47.4402 62.7328 40.7742 62.7328 33.957C62.7328 30.7007 62.208 27.521 61.185 24.4764L64.3136 26.3532L65.409 24.5275Z" fill="#10112F"/>
</g>
<defs>
<clipPath id="clip0_23_212">
<rect width="66" height="66" fill="white" transform="translate(0.00244141 0.957031)"/>
</clipPath>
</defs>
</svg>
