<svg width="66" height="65" viewBox="0 0 66 65" fill="none" xmlns="http://www.w3.org/2000/svg">
<g clip-path="url(#clip0_11_1614)">
<path d="M65.0332 58.9913H61.0513V44.1365C61.0513 43.6107 60.6184 43.1844 60.0845 43.1844C59.5506 43.1844 59.1177 43.6107 59.1177 44.1365V58.9913H50.6344V26.2704H59.1177V39.6931C59.1177 40.219 59.5506 40.6453 60.0845 40.6453C60.6184 40.6453 61.0513 40.219 61.0513 39.6931V25.3182C61.0513 24.7924 60.6184 24.3661 60.0845 24.3661H49.6676C49.1336 24.3661 48.7008 24.7924 48.7008 25.3182V58.9913H46.4676V30.448C46.4676 29.9222 46.0347 29.4959 45.5008 29.4959H35.0835C34.5496 29.4959 34.1167 29.9222 34.1167 30.448V58.9913H31.8834V38.1427C31.8834 37.6168 31.4505 37.1905 30.9166 37.1905H20.4993C19.9654 37.1905 19.5325 37.6168 19.5325 38.1427V58.9913H17.2992V44.2984C17.2992 43.7725 16.8664 43.3462 16.3324 43.3462H5.91499C5.38106 43.3462 4.9482 43.7725 4.9482 44.2984V58.9913H0.966797C0.432867 58.9913 0 59.4176 0 59.9434V64.0478C0 64.5737 0.432867 65 0.966797 65H11.4082C11.9421 65 12.375 64.5737 12.375 64.0478C12.375 63.522 11.9421 63.0957 11.4082 63.0957H1.93359V60.8956H64.0664V63.0957H15.9199C15.386 63.0957 14.9531 63.522 14.9531 64.0478C14.9531 64.5737 15.386 65 15.9199 65H65.0332C65.5671 65 66 64.5737 66 64.0478V59.9434C66 59.4176 65.5671 58.9913 65.0332 58.9913ZM36.0503 31.4002H44.534V58.9913H36.0503V31.4002ZM21.466 39.0948H29.9497V58.9913H21.466V39.0948ZM6.88179 45.2505H15.3655V58.9913H6.88179V45.2505Z" fill="white"/>
<path d="M5.7854 34.7344H20.4988C21.3524 34.7344 22.1722 34.3793 22.748 33.7604L34.7325 20.8838H42.8962C43.7113 20.8838 44.4774 20.5715 45.0532 20.0044L54.9515 10.256V13.2639C54.9515 13.7898 55.3844 14.2161 55.9183 14.2161H60.0846C60.6185 14.2161 61.0514 13.7898 61.0514 13.2639V3.00371C61.0514 1.34748 59.6832 0 58.0015 0H47.5845C47.0506 0 46.6177 0.426309 46.6177 0.952149V5.05654C46.6177 5.58238 47.0506 6.00869 47.5845 6.00869H50.6376L41.6335 14.8764H33.3907C32.538 14.8764 31.7185 15.2315 31.1428 15.8502L19.157 28.727H16.4911C15.9571 28.727 15.5243 29.1533 15.5243 29.6791C15.5243 30.2049 15.9571 30.6313 16.4911 30.6313H19.5822C19.8532 30.6313 20.1118 30.5193 20.2948 30.3225L32.5681 17.137C32.7788 16.9107 33.0785 16.7808 33.3905 16.7808H42.0337C42.2901 16.7808 42.5361 16.6805 42.7173 16.5019L53.655 5.7299C53.9315 5.45759 54.0143 5.04804 53.8646 4.69231C53.7149 4.33647 53.3624 4.10452 52.9714 4.10452H48.5512V1.9043H58.0013C58.6169 1.9043 59.1177 2.39751 59.1177 3.00371V12.3119H56.885V7.95742C56.885 7.57237 56.6495 7.22516 56.2882 7.07776C55.9271 6.93063 55.511 7.01188 55.2346 7.28419L43.686 18.6578C43.4754 18.8652 43.1948 18.9795 42.8962 18.9795H34.3072C34.0361 18.9795 33.7776 19.0915 33.5945 19.2882L21.3225 32.4737C21.1118 32.7002 20.8116 32.8301 20.4988 32.8301H6.7522V30.6313H11.9793C12.5133 30.6313 12.9461 30.2049 12.9461 29.6791C12.9461 29.1533 12.5133 28.727 11.9793 28.727H5.7854C5.25147 28.727 4.8186 29.1533 4.8186 29.6791V33.7822C4.8186 34.3081 5.25147 34.7344 5.7854 34.7344Z" fill="white"/>
</g>
<defs>
<clipPath id="clip0_11_1614">
<rect width="66" height="65" fill="white"/>
</clipPath>
</defs>
</svg>
