<svg width="43" height="43" viewBox="0 0 43 43" fill="none" xmlns="http://www.w3.org/2000/svg">
<path d="M6.53595 31.0556C6.40217 31.0556 6.2684 31.0364 6.14417 30.9982L1.56706 29.7273C1.18484 29.6222 0.869506 29.3738 0.668839 29.0202C0.477728 28.6762 0.42995 28.2653 0.535061 27.8831L4.07062 15.6138C4.29039 14.8398 5.11217 14.3811 5.89573 14.6009L10.4728 15.8718C10.8551 15.9769 11.18 16.2253 11.3711 16.5789C11.5622 16.9324 11.61 17.3338 11.5048 17.716L7.96928 29.9853C7.77817 30.6256 7.17617 31.0556 6.53595 31.0556ZM6.39262 30.0809C6.66973 30.1573 6.95639 29.9949 7.04239 29.7178L10.578 17.4484C10.6162 17.3147 10.5971 17.1713 10.5302 17.0471C10.4633 16.9229 10.3486 16.8369 10.2148 16.7987L5.63773 15.5182C5.36062 15.4418 5.07395 15.6042 4.98795 15.8813L1.45239 28.1507C1.41417 28.2844 1.43328 28.4278 1.50017 28.552C1.56706 28.6762 1.68173 28.7622 1.81551 28.8004L6.39262 30.0809Z" fill="#10112F"/>
<path d="M7.14757 20.4967C7.00423 20.4967 6.8609 20.4775 6.71757 20.4393C6.30668 20.3247 5.96268 20.0571 5.75245 19.6844C5.54223 19.3118 5.4849 18.8818 5.59957 18.4709C5.83845 17.6204 6.72712 17.1235 7.57757 17.3529C8.42801 17.5822 8.9249 18.4804 8.69557 19.3309C8.5809 19.7418 8.31334 20.0858 7.94068 20.296C7.68268 20.4298 7.41512 20.4967 7.14757 20.4967ZM7.13801 18.2415C7.02334 18.2415 6.91823 18.2702 6.82268 18.3275C6.66979 18.4135 6.56468 18.5473 6.5169 18.7193C6.42134 19.0633 6.62201 19.4169 6.96601 19.5124C7.12845 19.5602 7.31001 19.5411 7.4629 19.4551C7.61579 19.3691 7.7209 19.2353 7.76868 19.0633C7.86423 18.7193 7.66357 18.3658 7.31957 18.2702C7.25268 18.2511 7.19534 18.2415 7.13801 18.2415Z" fill="#5CC3B4"/>
<path d="M36.464 31.0556C35.8238 31.0556 35.2218 30.6351 35.0402 29.9853L31.5047 17.716C31.3995 17.3338 31.4378 16.9324 31.6384 16.5789C31.8391 16.2253 32.1544 15.9769 32.5367 15.8718L37.1138 14.6009C37.8973 14.3811 38.7095 14.8398 38.9389 15.6138L42.4744 27.8831C42.5795 28.2653 42.5413 28.6667 42.3407 29.0202C42.1495 29.3642 41.8247 29.6222 41.4424 29.7273L36.8653 30.9982C36.7315 31.0364 36.5978 31.0556 36.464 31.0556ZM37.5055 15.4991C37.4578 15.4991 37.41 15.5087 37.3622 15.5182L32.7851 16.7891C32.6513 16.8273 32.5367 16.9133 32.4698 17.0376C32.4029 17.1618 32.3838 17.3051 32.422 17.4389L35.9575 29.7082C36.034 29.9853 36.3302 30.1478 36.6073 30.0713L41.1844 28.8004C41.3182 28.7622 41.4329 28.6762 41.4998 28.552C41.5667 28.4278 41.5858 28.2844 41.5475 28.1507L38.012 15.8813C37.9451 15.652 37.7253 15.4991 37.5055 15.4991Z" fill="#10112F"/>
<path d="M35.8237 20.4967C35.1262 20.4967 34.4764 20.0285 34.2757 19.3213C34.1611 18.9105 34.2184 18.4805 34.4191 18.1078C34.6293 17.7351 34.9733 17.4676 35.3842 17.3529C36.2346 17.114 37.1233 17.6205 37.3622 18.4709C37.6011 19.3213 37.0946 20.21 36.2442 20.4489C36.1104 20.4776 35.9671 20.4967 35.8237 20.4967ZM35.8237 18.2416C35.7664 18.2416 35.7091 18.2511 35.6517 18.2702C35.4893 18.318 35.3459 18.4231 35.2599 18.576C35.1739 18.7289 35.1548 18.9009 35.2026 19.0633C35.2504 19.2258 35.3555 19.3691 35.5084 19.4551C35.6613 19.5411 35.8333 19.5602 35.9957 19.5125C36.3397 19.4169 36.5404 19.0633 36.4448 18.7193C36.3684 18.4327 36.1104 18.2416 35.8237 18.2416Z" fill="#5CC3B4"/>
<path d="M30.8167 31.1129C30.5587 31.1129 30.3485 30.9122 30.339 30.6542C30.3294 30.3866 30.5301 30.1669 30.7976 30.1573C30.8263 30.1573 33.1865 30.0522 35.0307 28.7718C35.2505 28.6189 35.5467 28.6762 35.6996 28.896C35.8525 29.1158 35.7952 29.412 35.5754 29.5649C33.4923 31.0078 30.941 31.1129 30.8358 31.1129C30.8263 31.1129 30.8263 31.1129 30.8167 31.1129Z" fill="#10112F"/>
<path d="M9.25935 30.5587C9.13512 30.5587 9.0109 30.5109 8.9249 30.4153L7.51068 29.0011C7.32912 28.81 7.32912 28.5138 7.51068 28.3227C7.69223 28.1315 7.99801 28.1315 8.18912 28.3227L9.60334 29.7369C9.7849 29.928 9.7849 30.2242 9.60334 30.4153C9.50779 30.5109 9.38357 30.5587 9.25935 30.5587Z" fill="#10112F"/>
<path d="M18.643 39.13C18.0219 39.13 17.3912 38.8911 16.923 38.4133L16.1108 37.6011C15.9292 37.41 15.9292 37.1138 16.1108 36.9226C16.2923 36.7315 16.5981 36.7315 16.7892 36.9226L17.6014 37.7349C18.1748 38.3082 19.1208 38.3082 19.6941 37.7349C19.9712 37.4578 20.1241 37.0851 20.1241 36.6933C20.1241 36.5022 20.0859 36.3111 20.019 36.1391C19.9426 35.9575 19.8374 35.7951 19.6941 35.6518C19.5126 35.4606 19.5126 35.1644 19.6941 34.9733C19.8757 34.7822 20.1814 34.7822 20.3726 34.9733L22.1881 36.7889C22.7614 37.3622 23.7074 37.3622 24.2808 36.7889C24.5579 36.5118 24.7108 36.1391 24.7108 35.7378C24.7108 35.3364 24.5579 34.9733 24.2808 34.6866C24.0897 34.4955 24.0897 34.1993 24.2808 34.0082C24.4719 33.8171 24.7681 33.8171 24.9592 34.0082C25.4179 34.4669 25.6759 35.0784 25.6759 35.7282C25.6759 36.378 25.4274 36.9895 24.9592 37.4482C24.0132 38.3942 22.4652 38.3942 21.5192 37.4482L21.0701 36.9991C21.0032 37.5246 20.7643 38.0215 20.3726 38.4038C19.8852 38.8911 19.2641 39.13 18.643 39.13Z" fill="#10112F"/>
<path d="M26.7842 36.1964C26.163 36.1964 25.5419 35.9575 25.0642 35.4797L20.6113 31.0268C20.4297 30.8357 20.4297 30.5395 20.6113 30.3484C20.7928 30.1573 21.0986 30.1573 21.2897 30.3484L25.7426 34.8013C26.3159 35.3746 27.2619 35.3746 27.8353 34.8013C28.4086 34.228 28.4086 33.282 27.8353 32.7086L23.3824 28.2557C23.1913 28.0646 23.1913 27.7684 23.3824 27.5773C23.5735 27.3862 23.8697 27.3862 24.0608 27.5773L28.5137 32.0302C29.4597 32.9762 29.4597 34.5242 28.5137 35.4702C28.0359 35.9671 27.4053 36.1964 26.7842 36.1964Z" fill="#10112F"/>
<path d="M28.8864 32.766C28.2366 32.766 27.6251 32.5175 27.1664 32.0493C26.9753 31.8582 26.9753 31.562 27.1664 31.3709C27.3575 31.1798 27.6537 31.1798 27.8449 31.3709C28.122 31.648 28.4946 31.8009 28.896 31.8009C29.2973 31.8009 29.6604 31.648 29.9471 31.3709C30.1669 31.1511 30.3102 30.8644 30.358 30.5586C30.3675 30.4822 30.3771 30.4058 30.3771 30.3198C30.3771 29.928 30.2242 29.5553 29.9471 29.2686L22.8664 22.188C22.3504 21.672 21.5955 21.4809 20.898 21.672C20.5349 21.7771 20.2195 21.9682 19.9615 22.2453L17.7446 24.6533C17.7351 24.6533 17.7351 24.6629 17.7351 24.6629C16.6935 25.7044 15.0117 25.7044 13.9702 24.6629C13.1389 23.8315 12.9477 22.5702 13.502 21.5286C14.2091 20.2004 15.4322 18.3658 17.2477 17.2286C17.2573 17.2286 17.2573 17.2191 17.2669 17.2191C18.7575 16.2826 20.3915 15.9769 22.1211 16.2826C22.3791 16.3209 25.9815 16.8751 28.81 18.8053L31.8677 17.4866C32.1066 17.3815 32.3933 17.4962 32.4984 17.7351C32.6035 17.974 32.4889 18.2606 32.25 18.3658L28.9437 19.7895C28.7909 19.8564 28.6093 19.8373 28.4755 19.7418C25.7713 17.7924 22.016 17.2286 21.9777 17.2286C21.9682 17.2286 21.9682 17.2286 21.9586 17.2286C20.4584 16.9515 19.0442 17.2286 17.7637 18.0409C17.7542 18.0409 17.7542 18.0504 17.7446 18.0504C16.1202 19.0824 15.0022 20.7546 14.3524 21.9778C13.9989 22.6466 14.1231 23.4493 14.6486 23.9844C15.308 24.6438 16.3877 24.6533 17.0566 23.994L19.2544 21.6051C19.6271 21.2038 20.1049 20.9075 20.6304 20.7546C21.6624 20.468 22.7804 20.7546 23.5353 21.5095L30.616 28.5902C31.0746 29.0489 31.3326 29.6604 31.3326 30.3102C31.3326 30.444 31.3231 30.5778 31.304 30.702C31.2275 31.2084 30.9886 31.6671 30.6255 32.0398C30.1477 32.508 29.5362 32.766 28.8864 32.766Z" fill="#10112F"/>
<path d="M10.8647 18.7289C10.645 18.7289 10.4539 18.576 10.3965 18.3562C10.3392 18.0982 10.5016 17.8402 10.7596 17.7829C13.8652 17.0757 17.3625 17.1617 17.5154 17.1713C17.7734 17.1809 17.9836 17.3911 17.9836 17.6491C17.9836 17.9166 17.7639 18.1364 17.4963 18.1269C17.353 18.1269 13.9703 18.0313 10.9794 18.7193C10.9316 18.7193 10.903 18.7289 10.8647 18.7289Z" fill="#10112F"/>
<path d="M10.3678 32.4602C9.89962 32.4602 9.46006 32.2787 9.12562 31.9442C8.79117 31.6098 8.60962 31.1702 8.60962 30.702C8.60962 30.2338 8.79117 29.7942 9.12562 29.4598L10.6354 27.95C11.3138 27.2716 12.4318 27.2716 13.1103 27.95C13.4447 28.2844 13.6263 28.724 13.6263 29.1922C13.6263 29.6604 13.4447 30.1 13.1103 30.4344C12.9287 30.6256 12.623 30.6256 12.4318 30.4344C12.2503 30.2433 12.2503 29.9471 12.4318 29.756C12.5847 29.6031 12.6612 29.4024 12.6612 29.1922C12.6612 28.982 12.5752 28.7813 12.4318 28.6284C12.1165 28.3131 11.6196 28.3131 11.3043 28.6284L9.79451 30.1382C9.64162 30.2911 9.56517 30.4918 9.56517 30.702C9.56517 30.9122 9.65117 31.1129 9.79451 31.2658C9.9474 31.4187 10.1481 31.4951 10.3583 31.4951C10.5685 31.4951 10.7692 31.4091 10.9221 31.2658C11.1036 31.0747 11.4094 31.0747 11.6005 31.2658C11.7821 31.4569 11.7821 31.7531 11.6005 31.9442C11.2756 32.2787 10.8361 32.4602 10.3678 32.4602Z" fill="#10112F"/>
<path d="M11.6388 34.8013C11.1897 34.8013 10.7406 34.6293 10.3966 34.2853C10.0622 33.9509 9.88062 33.5113 9.88062 33.0431C9.88062 32.5749 10.0622 32.1353 10.3966 31.8009L12.4415 29.756C13.1199 29.0775 14.2379 29.0775 14.9164 29.756C15.2508 30.0904 15.4324 30.53 15.4324 30.9982C15.4324 31.4664 15.2508 31.906 14.9164 32.2404C14.7348 32.4315 14.4291 32.4315 14.2379 32.2404C14.0564 32.0493 14.0564 31.7531 14.2379 31.562C14.3908 31.4091 14.4673 31.2084 14.4673 30.9982C14.4673 30.788 14.3813 30.5873 14.2379 30.4344C13.9226 30.1191 13.4162 30.1191 13.1104 30.4344L11.0751 32.4889C10.9222 32.6417 10.8457 32.8424 10.8457 33.0526C10.8457 33.2629 10.9317 33.4635 11.0751 33.6164C11.3904 33.9317 11.8873 33.9317 12.2026 33.6164C12.3842 33.4253 12.6899 33.4253 12.8811 33.6164C13.0722 33.8075 13.0626 34.1037 12.8811 34.2949C12.5371 34.6293 12.0879 34.8013 11.6388 34.8013Z" fill="#10112F"/>
<path d="M12.8427 37.1998C12.3745 37.1998 11.9349 37.0182 11.6005 36.6838C11.266 36.3493 11.0845 35.9098 11.0845 35.4416C11.0845 34.9733 11.266 34.5338 11.6005 34.1993L14.2378 31.562C14.9163 30.8836 16.0342 30.8836 16.7127 31.562C17.0471 31.8964 17.2287 32.336 17.2287 32.8042C17.2287 33.2724 17.0471 33.712 16.7127 34.0464L14.0754 36.6838C13.7505 37.0182 13.3109 37.1998 12.8427 37.1998ZM15.4896 32.0111C15.2889 32.0111 15.0787 32.0876 14.9258 32.2404L12.2789 34.8778C12.126 35.0307 12.0496 35.2313 12.0496 35.4416C12.0496 35.6518 12.1356 35.8524 12.2789 36.0053C12.4318 36.1582 12.6325 36.2347 12.8427 36.2347C13.0529 36.2347 13.2536 36.1487 13.4065 36.0053L16.0438 33.368C16.1967 33.2151 16.2731 33.0144 16.2731 32.8042C16.2731 32.594 16.1871 32.3933 16.0438 32.2404C15.8909 32.0876 15.6903 32.0111 15.4896 32.0111Z" fill="#10112F"/>
<path d="M15.4133 38.2318C14.945 38.2318 14.5055 38.0502 14.171 37.7158C13.8366 37.3813 13.655 36.9418 13.655 36.4736C13.655 36.0053 13.8366 35.5658 14.171 35.2313C14.3526 35.0402 14.6584 35.0402 14.8495 35.2313C15.031 35.4224 15.031 35.7187 14.8495 35.9098C14.6966 36.0627 14.6201 36.2633 14.6201 36.4736C14.6201 36.6838 14.7061 36.8844 14.8495 37.0373C15.0024 37.1902 15.203 37.2667 15.4133 37.2667C15.6235 37.2667 15.8241 37.1807 15.977 37.0373L17.8499 35.1644C18.1653 34.8491 18.1653 34.3522 17.8499 34.0369C17.5346 33.7216 17.0377 33.7216 16.7224 34.0369C16.5408 34.228 16.235 34.228 16.0439 34.0369C15.8624 33.8458 15.8624 33.5496 16.0439 33.3584C16.7224 32.68 17.8404 32.68 18.5188 33.3584C19.1973 34.0369 19.1973 35.1549 18.5188 35.8333L16.6459 37.7062C16.321 38.0502 15.8815 38.2318 15.4133 38.2318Z" fill="#10112F"/>
<path d="M26.335 18.4996C26.2395 18.4996 26.1344 18.4709 26.0484 18.404C25.8381 18.2416 25.7999 17.9453 25.9528 17.7351C27.3288 15.9291 28.0455 13.7504 28.0455 11.4667V7.40555L21.4999 4.86377L14.9544 7.40555V11.4667C14.9544 13.5976 15.585 15.6424 16.789 17.372C16.9419 17.5918 16.8846 17.888 16.6648 18.0409C16.445 18.1938 16.1488 18.1364 15.9959 17.9167C14.6868 16.0247 13.9893 13.7887 13.9893 11.4667V7.08066C13.9893 6.88 14.1135 6.708 14.295 6.63155L21.3184 3.89866C21.433 3.86044 21.5573 3.86044 21.6624 3.89866L28.6857 6.63155C28.8673 6.708 28.9915 6.88 28.9915 7.08066V11.4667C28.9915 13.9702 28.1984 16.3304 26.6981 18.318C26.6217 18.4422 26.4784 18.4996 26.335 18.4996Z" fill="#10112F"/>
<path d="M23.8794 17.6491C23.7647 17.6491 23.65 17.6109 23.5545 17.5249C23.3634 17.3433 23.3442 17.0471 23.5258 16.8464C24.8731 15.3749 25.6185 13.4637 25.6185 11.4666V9.07775L21.5 7.47242L17.3816 9.07775V11.4666C17.3816 13.3682 18.06 15.2124 19.3022 16.6553C19.4742 16.856 19.4551 17.1617 19.2545 17.3337C19.0538 17.5057 18.748 17.4866 18.576 17.286C17.1905 15.6711 16.426 13.6071 16.426 11.4762V8.7433C16.426 8.54264 16.5502 8.37064 16.7318 8.29419L21.328 6.5073C21.4427 6.46908 21.5669 6.46908 21.672 6.5073L26.2682 8.29419C26.4498 8.37064 26.574 8.54264 26.574 8.7433V11.4666C26.574 13.7026 25.7427 15.8431 24.2329 17.4962C24.1278 17.6013 24.0036 17.6491 23.8794 17.6491Z" fill="#10112F"/>
<path d="M20.5635 14.5913C20.4393 14.5913 20.315 14.5435 20.229 14.448L18.9008 13.1198C18.7193 12.9382 18.7193 12.6324 18.9008 12.4413C19.0824 12.2598 19.3881 12.2598 19.5793 12.4413L20.573 13.4351L23.4397 10.5684C23.6308 10.3869 23.927 10.3869 24.1181 10.5684C24.3093 10.75 24.3093 11.0558 24.1181 11.2469L20.917 14.448C20.8119 14.5435 20.6877 14.5913 20.5635 14.5913Z" fill="#5CC3B4"/>
</svg>
