<svg width="77" height="76" viewBox="0 0 77 76" fill="none" xmlns="http://www.w3.org/2000/svg">
<g clip-path="url(#clip0_8_99)">
<path d="M18.208 66.1119C17.593 66.1119 17.0947 66.6103 17.0947 67.2252V74.8865C17.0947 75.5013 17.593 75.9997 18.208 75.9997C18.823 75.9997 19.3213 75.5013 19.3213 74.8865V67.2252C19.3213 66.6103 18.823 66.1119 18.208 66.1119Z" fill="#10112F"/>
<path d="M69.6279 58.2097H66.062C64.8356 55.69 62.7769 53.6957 60.1833 52.5465L45.6665 46.3239C45.6636 46.3227 45.6608 46.3221 45.6581 46.3209L45.5798 46.2874C45.582 46.2029 45.5872 46.1185 45.5872 46.0343V40.1768C48.5644 37.5655 50.4473 33.7357 50.4473 29.4741V28.4228H51.9093C53.6179 28.4228 55.0079 27.0329 55.0079 25.3242V21.3988C55.0079 19.9744 54.0405 18.7746 52.7291 18.4139V16.141C52.7291 7.24075 45.4879 0 36.5873 0H35.8395C26.9389 0 19.6976 7.24075 19.6976 16.141V18.4137C18.386 18.7743 17.4183 19.9743 17.4183 21.399V25.3244C17.4183 27.033 18.8083 28.423 20.5169 28.423H21.9736V29.4742C21.9736 33.7388 23.859 37.5709 26.8395 40.1823V46.0344C26.8395 46.1372 26.8414 46.2397 26.8447 46.3419L12.4347 52.6075C8.01365 54.4676 5.15698 58.7688 5.15698 63.5654V74.8857C5.15698 75.5005 5.65529 75.999 6.27026 75.999C6.88523 75.999 7.38354 75.5005 7.38354 74.8857V63.5654C7.38354 59.6672 9.70524 56.1715 13.3103 54.6546L22.6249 50.6045L23.8002 52.6124C24.1109 53.1431 24.793 53.3212 25.3235 53.0108C25.854 52.7002 26.0324 52.0182 25.7219 51.4876L24.6818 49.7108L27.0853 48.6658L27.5439 49.0192C27.5474 49.0219 27.5508 49.0246 27.5542 49.0271L34.4728 54.3585L29.8349 58.5137L27.7086 54.8811C27.3979 54.3505 26.7161 54.1722 26.1853 54.4827C25.6548 54.7934 25.4764 55.4753 25.7869 56.006L28.6019 60.8148C28.7708 61.1032 29.0602 61.3004 29.3905 61.3522C29.4479 61.3613 29.5054 61.3656 29.5627 61.3656C29.8348 61.3656 30.0999 61.2657 30.3056 61.0815L34.4926 57.3303L31.1404 74.6752C31.0237 75.2789 31.4184 75.8628 32.0221 75.9795C32.626 76.0963 33.2098 75.7012 33.3263 75.0978L36.213 60.1613L39.0996 75.0978C39.2023 75.6301 39.6687 76 40.1914 76C40.2614 76 40.3324 75.9933 40.4038 75.9795C41.0075 75.8628 41.4023 75.2789 41.2855 74.6752L37.9333 57.3303L42.1203 61.0815C42.326 61.2657 42.591 61.3656 42.8632 61.3656C42.9205 61.3656 42.978 61.3611 43.0354 61.3522C43.3657 61.3006 43.6551 61.1032 43.8241 60.8148L49.8409 50.5367L59.2937 54.5877C61.0465 55.3643 62.5017 56.6232 63.515 58.2097H51.4512C49.6936 58.2097 48.2637 59.6396 48.2637 61.3972V72.8122C48.2637 74.5698 49.6936 75.9997 51.4512 75.9997H69.6279C71.3855 75.9997 72.8154 74.5698 72.8154 72.8122V61.3972C72.8154 59.6396 71.3855 58.2097 69.6279 58.2097ZM52.7812 25.3242C52.7812 25.805 52.3899 26.1963 51.9091 26.1963H50.4497V20.5267H51.9091C52.3899 20.5267 52.7812 20.918 52.7812 21.3988V25.3242ZM20.5169 26.1963C20.0362 26.1963 19.6449 25.805 19.6449 25.3242V21.3988C19.6449 20.918 20.0362 20.5267 20.5169 20.5267H21.9736V26.1963H20.5169ZM24.2001 29.4741L24.2028 19.4135C24.2028 19.4062 24.2019 19.3991 24.2017 19.3918C24.2268 18.6662 24.4176 17.3318 25.379 16.1897C26.3461 15.0413 27.5766 14.6858 27.9808 14.5689C29.5835 14.1058 30.5936 14.5682 31.9913 15.208C33.3453 15.828 34.8794 16.5316 37.1457 16.4188C38.8707 16.3336 40.1275 15.8035 41.1293 15.2961C41.6778 15.0183 41.8973 14.3485 41.6195 13.7999C41.3416 13.2514 40.6719 13.0322 40.1234 13.3097C39.1612 13.7971 38.2678 14.1342 37.0359 14.1949C35.313 14.2801 34.1498 13.7473 32.9182 13.1836C31.4379 12.5058 29.7606 11.7374 27.3631 12.4298C25.8472 12.8677 24.6067 13.6503 23.6758 14.7557C22.6681 15.9525 22.2482 17.2733 22.0791 18.2996H21.9244V16.141C21.9244 8.46862 28.1668 2.22655 35.8396 2.22655H36.5875C44.2603 2.22655 50.5027 8.46847 50.5027 16.141V18.2996H50.4025C50.3116 17.5077 50.0782 16.5837 49.5606 15.6524C48.6711 14.0522 47.0959 12.7852 45.3469 12.2633C44.758 12.0878 44.1377 12.4227 43.9618 13.0117C43.7859 13.6008 44.1209 14.221 44.7102 14.3969C45.1616 14.5315 46.7051 15.0983 47.6143 16.7342C48.1638 17.7226 48.2479 18.7128 48.2218 19.3694C48.2212 19.3841 48.2209 19.3989 48.2209 19.4136V29.4742C48.2209 36.0963 42.8331 41.4838 36.2106 41.4838C29.5879 41.4838 24.2001 36.0963 24.2001 29.4741ZM29.2195 47.4995C29.1791 47.3048 29.1439 47.1081 29.1199 46.9077C29.0843 46.6245 29.0662 46.3306 29.0662 46.0344V41.7841C31.1673 43.0083 33.6083 43.7105 36.2104 43.7105C38.8151 43.7105 41.258 43.0069 43.3606 41.7807V46.0346C43.3606 46.3134 43.3443 46.5948 43.3115 46.8736C43.2872 47.0843 43.2526 47.2926 43.21 47.4968L36.213 52.8887L29.2195 47.4995ZM42.5911 58.5137L37.9532 54.3585L45.3896 48.6281L47.2512 49.4255L47.779 49.6517L42.5911 58.5137ZM70.5889 72.8122C70.5889 73.3421 70.1578 73.7731 69.6279 73.7731H51.4512C50.9214 73.7731 50.4902 73.3421 50.4902 72.8122V61.3972C50.4902 60.8673 50.9213 60.4362 51.4512 60.4362H65.3433C65.3438 60.4362 65.3446 60.4364 65.3452 60.4364C65.3462 60.4364 65.3473 60.4362 65.3483 60.4362H69.6279C70.1577 60.4362 70.5889 60.8673 70.5889 61.3972V72.8122Z" fill="#10112F"/>
<path d="M68.4994 65.3935C68.4994 63.7223 67.0912 62.3628 65.3603 62.3628H63.3997C63.3993 62.3628 63.399 62.3628 63.3985 62.3628C63.3981 62.3628 63.3978 62.3628 63.3973 62.3628C62.7824 62.3628 62.2841 62.8613 62.2841 63.4761V70.8536C62.2841 71.4684 62.7824 71.9669 63.3973 71.9669C64.0123 71.9669 64.5106 71.4684 64.5106 70.8536V69.2714L66.5506 71.5891C66.7706 71.8392 67.078 71.9669 67.3867 71.9669C67.648 71.9669 67.9103 71.8754 68.1218 71.6893C68.5833 71.283 68.6281 70.5796 68.222 70.1181L66.5353 68.2017C67.6853 67.7517 68.4994 66.6635 68.4994 65.3935ZM65.3603 64.5894C65.855 64.5894 66.2729 64.9575 66.2729 65.3935C66.2729 65.8293 65.855 66.1975 65.3603 66.1975C65.1593 66.1975 64.8418 66.1987 64.5206 66.2002C64.5191 65.8903 64.5179 65.586 64.5179 65.3936C64.5179 65.2284 64.5172 64.9155 64.5163 64.5895H65.3603V64.5894Z" fill="#5CC3B4"/>
<path d="M58.9124 62.3628C58.2974 62.3628 57.7991 62.8613 57.7991 63.4761V65.925H54.92V63.4761C54.92 62.8613 54.4217 62.3628 53.8068 62.3628C53.1918 62.3628 52.6935 62.8613 52.6935 63.4761V70.8536C52.6935 71.4684 53.1918 71.9669 53.8068 71.9669C54.4217 71.9669 54.92 71.4684 54.92 70.8536V68.1516H57.7991V70.8536C57.7991 71.4684 58.2974 71.9669 58.9124 71.9669C59.5274 71.9669 60.0257 71.4684 60.0257 70.8536V63.4761C60.0257 62.8613 59.5274 62.3628 58.9124 62.3628Z" fill="#5CC3B4"/>
</g>
<defs>
<clipPath id="clip0_8_99">
<rect width="76" height="76" fill="white" transform="translate(0.986206)"/>
</clipPath>
</defs>
</svg>
