<svg width="61" height="62" viewBox="0 0 61 62" fill="none" xmlns="http://www.w3.org/2000/svg">
<g clip-path="url(#clip0_44_683)">
<path d="M5.08333 62H50.8333C51.3948 62 51.85 61.5373 51.85 60.9666V34.1H49.8167V59.9333H5.08333C3.39898 59.9333 2.03333 58.5453 2.03333 56.8333C2.03333 55.1213 3.39898 53.7333 5.08333 53.7333H7.11667C7.67812 53.7333 8.13333 53.2706 8.13333 52.7V21.7H24.4V19.6333H8.13333V12.4C8.13333 11.8293 7.67812 11.3666 7.11667 11.3666H5.08333C2.27708 11.3702 0.00347494 13.681 0 16.5333V56.8333C0.00347494 59.6856 2.27708 61.9964 5.08333 62ZM2.03333 20.6666V16.5333C2.03333 14.8213 3.39898 13.4333 5.08333 13.4333H6.1V51.6666H5.08333C3.98327 51.6651 2.91249 52.0279 2.03333 52.7V20.6666Z" fill="white"/>
<path d="M23.3834 24.8H11.1834C10.622 24.8 10.1667 25.2627 10.1667 25.8333V34.1C10.1667 34.6706 10.622 35.1333 11.1834 35.1333H23.3834C23.9449 35.1333 24.4001 34.6706 24.4001 34.1V31H28.4668V28.9333H24.4001V25.8333C24.4001 25.2627 23.9449 24.8 23.3834 24.8ZM22.3668 33.0667H12.2001V26.8667H22.3668V33.0667Z" fill="#5CC3B4"/>
<path d="M33.5501 53.7333H45.7501C46.3115 53.7333 46.7668 53.2707 46.7668 52.7V44.4333C46.7668 43.8627 46.3115 43.4 45.7501 43.4H40.6668V37.2H38.6334V43.4H33.5501C32.9886 43.4 32.5334 43.8627 32.5334 44.4333V47.5333H24.4001V44.4333C24.4001 43.8627 23.9449 43.4 23.3834 43.4H11.1834C10.622 43.4 10.1667 43.8627 10.1667 44.4333V52.7C10.1667 53.2707 10.622 53.7333 11.1834 53.7333H23.3834C23.9449 53.7333 24.4001 53.2707 24.4001 52.7V49.6H32.5334V52.7C32.5334 53.2707 32.9886 53.7333 33.5501 53.7333ZM34.5668 45.4667H44.7334V51.6667H34.5668V45.4667ZM22.3668 51.6667H12.2001V45.4667H22.3668V51.6667Z" fill="#5CC3B4"/>
<path d="M43.7167 8.26666C38.6631 8.26666 34.5667 12.4303 34.5667 17.5667C34.5667 22.7031 38.6631 26.8667 43.7167 26.8667C48.7702 26.8667 52.8667 22.7031 52.8667 17.5667C52.8612 12.4328 48.7677 8.27221 43.7167 8.26666ZM43.7167 24.8C39.786 24.8 36.6 21.5617 36.6 17.5667C36.6 13.5716 39.786 10.3333 43.7167 10.3333C47.6473 10.3333 50.8333 13.5716 50.8333 17.5667C50.8289 21.5597 47.6453 24.7955 43.7167 24.8Z" fill="#5CC3B4"/>
<path d="M59.9833 21.7C60.5448 21.7 61 21.2373 61 20.6667V14.4667C61 13.896 60.5448 13.4333 59.9833 13.4333H56.2796C56.0626 12.7552 55.7936 12.0952 55.4754 11.4595L58.0984 8.80301C58.2896 8.60926 58.3973 8.34588 58.3973 8.0714C58.3973 7.79692 58.2896 7.53354 58.0984 7.33979L53.7816 2.94813C53.591 2.75438 53.3323 2.64539 53.0628 2.64539C52.7932 2.6459 52.5346 2.75488 52.344 2.94914L49.7253 5.61522C49.0999 5.2918 48.4505 5.01883 47.7833 4.79784V1.03333C47.7833 0.462679 47.3281 0 46.7667 0H40.6667C40.1052 0 39.65 0.462679 39.65 1.03333V4.79784C38.9828 5.01883 38.3335 5.2918 37.708 5.61522L35.0934 2.94914C34.9028 2.75488 34.6441 2.6459 34.3746 2.64539C34.105 2.64539 33.8464 2.75438 33.6558 2.94813L29.3339 7.33677C29.1428 7.53052 29.0351 7.7939 29.0351 8.06838C29.0351 8.34285 29.1428 8.60623 29.3339 8.79998L31.957 11.4565C31.6388 12.0932 31.3702 12.7542 31.1538 13.4333H27.45C26.8886 13.4333 26.4333 13.896 26.4333 14.4667V20.6667C26.4333 21.2373 26.8886 21.7 27.45 21.7H31.1538C31.3707 22.3781 31.6398 23.0381 31.958 23.6738L29.3349 26.3303C29.1433 26.5241 29.0356 26.788 29.0356 27.0624C29.0356 27.3374 29.1433 27.6008 29.3349 27.7945L33.6518 32.1751C34.0489 32.5783 34.6923 32.5783 35.0894 32.1751L37.7041 29.5181C38.331 29.8415 38.9818 30.1145 39.65 30.3355V34.1C39.65 34.6707 40.1052 35.1333 40.6667 35.1333H46.7667C47.3281 35.1333 47.7833 34.6707 47.7833 34.1V30.3355C48.451 30.1145 49.1003 29.8415 49.7263 29.5181L52.341 32.1751C52.7381 32.5778 53.3805 32.5778 53.7776 32.1751L58.0984 27.7935C58.2901 27.5998 58.3978 27.3364 58.3978 27.0614C58.3978 26.7864 58.2901 26.5231 58.0984 26.3293L55.4754 23.6728C55.7936 23.0376 56.0626 22.3776 56.2796 21.7H59.9833ZM54.5381 20.4033C54.2706 21.4321 53.868 22.4195 53.3403 23.3388C53.1074 23.745 53.1735 24.2596 53.5011 24.5911L55.941 27.0629L53.0608 29.9843L50.6298 27.5105C50.3037 27.1785 49.7978 27.1119 49.3987 27.348C48.4947 27.8844 47.5227 28.2936 46.5105 28.5645C46.0628 28.6831 45.7505 29.0938 45.75 29.5635V33.0667H41.6833V29.5635C41.6833 29.0943 41.3721 28.6841 40.9258 28.5645C39.9136 28.2936 38.9416 27.8844 38.0376 27.348C37.6385 27.1119 37.1327 27.1785 36.8065 27.5105L34.3736 29.9833L31.4934 27.0629L33.9333 24.5911C34.2609 24.2596 34.3269 23.745 34.0941 23.3388C33.5664 22.4195 33.1638 21.4321 32.8962 20.4033C32.7786 19.9497 32.375 19.6333 31.9133 19.6333H28.4667V15.5H31.9133C32.3745 15.4995 32.7776 15.1836 32.8952 14.73C33.1628 13.7013 33.5654 12.7138 34.0931 11.7945C34.3259 11.3884 34.2599 10.8737 33.9323 10.5422L31.4924 8.06938L34.3736 5.14093L36.8065 7.62083C37.1327 7.95384 37.639 8.02095 38.0386 7.78431C38.9426 7.24797 39.9146 6.83877 40.9268 6.56782C41.3726 6.44774 41.6829 6.03804 41.6833 5.56981V2.06667H45.75V5.56981C45.75 6.03905 46.0613 6.44925 46.5076 6.56883C47.5198 6.83978 48.4917 7.24897 49.3957 7.78532C49.7958 8.02297 50.3032 7.95586 50.6298 7.62184L53.0628 5.14194L55.944 8.07039L53.5041 10.5432C53.1764 10.8747 53.1104 11.3894 53.3437 11.7955C53.8709 12.7148 54.2735 13.7023 54.5411 14.7311C54.6588 15.1831 55.0604 15.4985 55.52 15.5H58.9667V19.6333H55.52C55.0589 19.6338 54.6558 19.9497 54.5381 20.4033Z" fill="white"/>
<path d="M43.7166 13.4333C41.4708 13.4333 39.6499 15.2841 39.6499 17.5667C39.6499 19.8493 41.4708 21.7 43.7166 21.7C45.9624 21.7 47.7832 19.8493 47.7832 17.5667C47.7832 15.2841 45.9624 13.4333 43.7166 13.4333ZM43.7166 19.6334C42.5937 19.6334 41.6832 18.708 41.6832 17.5667C41.6832 16.4254 42.5937 15.5 43.7166 15.5C44.8395 15.5 45.7499 16.4254 45.7499 17.5667C45.7499 18.708 44.8395 19.6334 43.7166 19.6334Z" fill="white"/>
</g>
<defs>
<clipPath id="clip0_44_683">
<rect width="61" height="62" fill="white"/>
</clipPath>
</defs>
</svg>
