<svg width="78" height="80" viewBox="0 0 78 80" fill="none" xmlns="http://www.w3.org/2000/svg">
<g clip-path="url(#clip0_8_219)">
<path d="M75.7129 68.7582H73.2659V28.2408C73.2659 25.4758 71.0449 23.2261 68.3148 23.2261H59.0693V22.1491C59.0693 21.2669 58.5852 20.4736 57.8061 20.0791L55.2486 18.7896C55.1993 18.643 55.1482 18.4971 55.0948 18.3514H64.0735C64.5485 19.7446 65.8564 20.7478 67.3911 20.7478C69.3257 20.7478 70.8997 19.1536 70.8997 17.1942C70.8997 15.2348 69.3257 13.6406 67.3911 13.6406C65.8562 13.6406 64.5485 14.644 64.0735 16.037H54.6182L55.3028 13.9571C55.5779 13.1201 55.3663 12.2129 54.7507 11.5889L53.9987 10.8273L58.2887 6.48229C58.3596 6.41055 58.4577 6.36935 58.5581 6.36935H61.7076C62.1826 7.76249 63.4905 8.76573 65.0252 8.76573C66.9598 8.76573 68.5338 7.17154 68.5338 5.21212C68.5338 3.25271 66.9597 1.65836 65.0251 1.65836C63.4902 1.65836 62.1825 2.66175 61.7075 4.05474H58.5579C57.8457 4.05474 57.1763 4.33556 56.6727 4.84551L52.3828 9.19051L51.6308 8.4289C51.0151 7.80523 50.1193 7.59061 49.2921 7.86973L46.582 8.78965C45.9166 8.45698 45.2231 8.16598 44.5283 7.92759L43.248 5.33402C42.8583 4.54479 42.0752 4.05459 41.2041 4.05459H36.7921C35.921 4.05459 35.138 4.54479 34.7483 5.33402L33.475 7.92435C32.7731 8.16598 32.0797 8.45714 31.4212 8.78703L28.7039 7.86973C27.878 7.59107 26.9815 7.80508 26.3654 8.4289L25.6136 9.19051L21.3237 4.84551C20.8201 4.33556 20.1507 4.05474 19.4385 4.05474H16.2889C15.8139 2.66159 14.506 1.65836 12.9713 1.65836C11.0367 1.65836 9.46271 3.25255 9.46271 5.21197C9.46271 7.17138 11.0367 8.76558 12.9713 8.76558C14.5062 8.76558 15.8139 7.76219 16.2889 6.36919H19.4385C19.5387 6.36919 19.637 6.41039 19.7078 6.48214L23.9978 10.8271L23.246 11.5887C22.6301 12.2127 22.4185 13.1203 22.6939 13.9572L23.3822 16.037H13.9226C13.4476 14.6438 12.1398 13.6404 10.605 13.6404C8.67037 13.6404 7.09635 15.2346 7.09635 17.194C7.09635 19.1535 8.67037 20.7477 10.605 20.7477C12.1398 20.7477 13.4476 19.7443 13.9226 18.3513H22.9014C22.849 18.4946 22.7987 18.6384 22.7506 18.7821L20.1895 20.0789C19.4106 20.4736 18.9266 21.2667 18.9266 22.149V23.226H9.68132C6.95117 23.226 4.73015 25.4756 4.73015 28.2406V68.7581H2.2832C1.02317 68.7581 -0.00195312 69.7963 -0.00195312 71.0725V73.2472C-0.00195312 76.0122 2.21907 78.2618 4.94922 78.2618H73.0469C75.777 78.2618 77.998 76.0122 77.998 73.2472V71.0725C77.998 69.7965 76.9729 68.7582 75.7129 68.7582ZM65.0251 3.97281C65.6998 3.97281 66.2485 4.52874 66.2485 5.21197C66.2485 5.89519 65.6996 6.45113 65.0251 6.45113C64.3505 6.45113 63.8016 5.89519 63.8016 5.21197C63.8016 4.52874 64.3503 3.97281 65.0251 3.97281ZM12.971 6.45113C12.2963 6.45113 11.7476 5.89519 11.7476 5.21197C11.7476 4.52874 12.2965 3.97281 12.971 3.97281C13.6456 3.97281 14.1945 4.52874 14.1945 5.21197C14.1945 5.89519 13.6458 6.45113 12.971 6.45113ZM67.3911 15.9549C68.0658 15.9549 68.6146 16.5108 68.6146 17.194C68.6146 17.8773 68.0657 18.4332 67.3911 18.4332C66.7165 18.4332 66.1676 17.8773 66.1676 17.194C66.1676 16.5108 66.7164 15.9549 67.3911 15.9549ZM10.605 18.4332C9.93025 18.4332 9.38151 17.8773 9.38151 17.194C9.38151 16.5108 9.9304 15.9549 10.605 15.9549C11.2796 15.9549 11.8285 16.5108 11.8285 17.194C11.8285 17.8773 11.2797 18.4332 10.605 18.4332ZM21.2119 22.149L23.7725 20.8523C24.3133 20.5785 24.7178 20.1104 24.9114 19.5338C25.2624 18.4872 25.6338 17.7722 25.6837 17.6568C25.9206 17.1272 25.9506 16.5337 25.7673 15.9771L24.8618 13.2251L27.9813 10.0654L30.6985 10.9827C31.2722 11.1765 31.8859 11.135 32.4256 10.8651C33.0019 10.577 33.6025 10.3249 34.2103 10.1158C34.779 9.92003 35.2416 9.51052 35.512 8.96262L36.7923 6.36904H41.2043L42.4846 8.96277C42.755 9.51052 43.2175 9.92003 43.7862 10.1158C44.3941 10.3249 44.9946 10.577 45.5711 10.8652C46.1107 11.1348 46.724 11.1765 47.298 10.9828L50.0151 10.0655L53.1349 13.2254L52.2294 15.977C52.0455 16.5352 52.0761 17.1305 52.3149 17.6614C52.4022 17.8617 52.7396 18.5033 53.0853 19.5343C53.2788 20.1106 53.6832 20.5787 54.2237 20.8523L56.7846 22.1491V23.2261H47.1603C46.6024 19.1695 43.1547 16.0368 38.9985 16.0368C38.7598 16.0368 38.5189 16.0473 38.2825 16.068C37.6539 16.1228 37.1881 16.6835 37.2423 17.3203C37.2965 17.957 37.8471 18.4295 38.4789 18.3738C38.6501 18.3588 38.825 18.3513 38.9985 18.3513C41.8918 18.3513 44.3098 20.4517 44.8441 23.2261H33.1537C33.3447 22.2375 33.7783 21.3053 34.4203 20.5247C34.8241 20.0337 34.7588 19.3041 34.2739 18.8949C33.789 18.486 33.0684 18.5522 32.6648 19.0431C31.6802 20.2399 31.0498 21.694 30.8374 23.2261H21.2119V22.149ZM75.7129 73.2472C75.7129 74.736 74.5168 75.9474 73.0469 75.9474H4.94922C3.47925 75.9474 2.2832 74.736 2.2832 73.2472V71.0725H11.706C12.3371 71.0725 12.8485 70.5544 12.8485 69.9153C12.8485 69.2762 12.3371 68.7581 11.706 68.7581H7.0153V28.2408C7.0153 26.752 8.21136 25.5406 9.68132 25.5406H68.3146C69.7846 25.5406 70.9806 26.752 70.9806 28.2408V68.7582H48.4624C48.1594 68.7582 47.8689 68.8801 47.6544 69.0972L46.4038 70.3638C45.9003 70.8738 45.2309 71.1546 44.5187 71.1546H33.4773C32.7651 71.1546 32.0957 70.8738 31.5922 70.3638L30.3416 69.0972C30.1272 68.8801 29.8367 68.7582 29.5335 68.7582H17.0378C16.4067 68.7582 15.8953 69.2763 15.8953 69.9154C15.8953 70.5545 16.4067 71.0727 17.0378 71.0727H29.0604L29.9762 72.0003C30.9115 72.9475 32.1549 73.469 33.4773 73.469H44.5187C45.8412 73.469 47.0846 72.9475 48.0197 72.0003L48.9356 71.0727H75.7129V73.2472Z" fill="#10112F"/>
<path d="M68.5337 65.1225V29.1761C68.5337 28.537 68.0223 28.0189 67.3911 28.0189H10.605C9.97382 28.0189 9.4624 28.537 9.4624 29.1761V65.1225C9.4624 65.7616 9.97382 66.2797 10.605 66.2797H67.3911C68.0223 66.2797 68.5337 65.7616 68.5337 65.1225ZM66.2485 63.9653H11.7476V30.3333H66.2485V63.9653Z" fill="#10112F"/>
<path d="M29.5338 61.487C31.4684 61.487 33.0424 59.8928 33.0424 57.9333V36.3654C33.0424 34.406 31.4684 32.8118 29.5338 32.8118C27.5992 32.8118 26.0251 34.406 26.0251 36.3654V57.9332C26.0251 59.8928 27.5992 61.487 29.5338 61.487ZM28.3103 36.3654C28.3103 35.6822 28.8592 35.1263 29.5338 35.1263C30.2084 35.1263 30.7572 35.6822 30.7572 36.3654V57.9332C30.7572 58.6164 30.2084 59.1724 29.5338 59.1724C28.8592 59.1724 28.3103 58.6164 28.3103 57.9332V36.3654Z" fill="#5CC3B4"/>
<path d="M38.9981 39.919H41.4047V57.9332C41.4047 59.8926 42.9787 61.4868 44.9133 61.4868C46.8479 61.4868 48.422 59.8926 48.422 57.9332V47.1492C48.422 46.5101 47.9105 45.992 47.2794 45.992C46.6482 45.992 46.1368 46.5101 46.1368 47.1492V57.9332C46.1368 58.6164 45.5879 59.1724 44.9133 59.1724C44.2388 59.1724 43.6899 58.6164 43.6899 57.9332V38.7618C43.6899 38.1227 43.1784 37.6046 42.5473 37.6046H38.9981C38.3234 37.6046 37.7747 37.0487 37.7747 36.3654C37.7747 35.6822 38.3236 35.1263 38.9981 35.1263H50.8285C51.5033 35.1263 52.052 35.6822 52.052 36.3654C52.052 37.0487 51.5031 37.6046 50.8285 37.6046H47.2794C46.6482 37.6046 46.1368 38.1227 46.1368 38.7618V41.7488C46.1368 42.3879 46.6482 42.9061 47.2794 42.9061C47.9105 42.9061 48.422 42.3879 48.422 41.7488V39.919H50.8285C52.7632 39.919 54.3372 38.3248 54.3372 36.3654C54.3372 34.406 52.7632 32.8118 50.8285 32.8118H38.9981C37.0635 32.8118 35.4895 34.406 35.4895 36.3654C35.4895 38.3248 37.0635 39.919 38.9981 39.919Z" fill="#5CC3B4"/>
</g>
<defs>
<clipPath id="clip0_8_219">
<rect width="78" height="79" fill="white" transform="translate(-0.00195312 0.460083)"/>
</clipPath>
</defs>
</svg>
