<svg width="74" height="74" viewBox="0 0 74 74" fill="none" xmlns="http://www.w3.org/2000/svg">
<g clip-path="url(#clip0_8_105)">
<path d="M53.7469 60.3153H39.8116L38.3536 58.8573L42.0124 55.1985C42.4143 54.7964 42.5821 54.2247 42.461 53.6691C42.3399 53.1136 41.9495 52.6637 41.4169 52.4656L22.3187 45.3578C21.6484 45.1082 20.9172 45.2673 20.4112 45.7736C19.9052 46.2796 19.7459 47.0107 19.9955 47.6811L24.6976 60.3153H5.54977C3.67954 60.3153 2.1582 58.794 2.1582 56.9239V33.5399C2.1582 32.9411 1.67301 32.4559 1.07422 32.4559C0.475426 32.4559 -0.00976562 32.9411 -0.00976562 33.5399V56.9239C-0.00976562 59.9894 2.48427 62.4835 5.54977 62.4835H25.5045L27.1031 66.7791C27.3013 67.3121 27.7514 67.7025 28.3069 67.8236C28.8624 67.9449 29.4344 67.7769 29.8361 67.375L33.4949 63.7163L37.2195 67.4409C37.5717 67.793 38.0342 67.9687 38.4967 67.9687C38.9593 67.9687 39.422 67.7927 39.7742 67.4407L42.0782 65.1369C42.7823 64.4325 42.7822 63.2863 42.078 62.582C42.078 62.582 42.078 62.582 42.0779 62.582L41.9796 62.4837H53.7468C54.3455 62.4837 54.8307 61.9986 54.8307 61.3998C54.8307 60.801 54.3455 60.3153 53.7469 60.3153ZM38.4968 65.6517L34.2615 61.4164C34.0497 61.2048 33.7724 61.099 33.4949 61.099C33.2175 61.099 32.94 61.2048 32.7283 61.4164L28.8601 65.2846L22.3027 47.6651L39.9221 54.2226L36.0538 58.0909C35.6305 58.5143 35.6305 59.2006 36.054 59.6239L40.2893 63.8591L38.4968 65.6517Z" fill="#10112F"/>
<path d="M68.4307 6.03157H64.6408C64.042 6.03157 63.5568 6.51676 63.5568 7.11555C63.5568 7.71435 64.042 8.19954 64.6408 8.19954H68.4307C70.3008 8.19954 71.8223 9.72088 71.8223 11.5911V18.3828H2.1582V11.5911C2.1582 9.72102 3.67954 8.19954 5.54977 8.19954H59.6274C60.2262 8.19954 60.7114 7.71435 60.7114 7.11555C60.7114 6.51676 60.2262 6.03157 59.6274 6.03157H5.54977C2.48427 6.03157 -0.00976562 8.5256 -0.00976562 11.5911V28.662C-0.00976562 29.2608 0.475426 29.746 1.07422 29.746C1.67301 29.746 2.1582 29.2608 2.1582 28.662V20.5509H71.8223V56.9239C71.8223 58.794 70.3009 60.3155 68.4307 60.3155H58.9409C58.3421 60.3155 57.8569 60.8007 57.8569 61.3995C57.8569 61.9983 58.3421 62.4835 58.9409 62.4835H68.4307C71.4962 62.4835 73.9902 59.9894 73.9902 56.9239V11.5911C73.9902 8.5256 71.4962 6.03157 68.4307 6.03157Z" fill="#10112F"/>
<path d="M7.1731 13.2912C7.1731 14.4002 8.07208 15.2992 9.18092 15.2992C10.2898 15.2992 11.1888 14.4002 11.1888 13.2912C11.1888 12.1822 10.2898 11.2834 9.18092 11.2834C8.07208 11.2834 7.1731 12.1822 7.1731 13.2912Z" fill="#5CC3B4"/>
<path d="M13.3499 13.2912C13.3499 14.4002 14.2488 15.2992 15.3577 15.2992C16.4665 15.2992 17.3655 14.4002 17.3655 13.2912C17.3655 12.1822 16.4665 11.2834 15.3577 11.2834C14.2488 11.2834 13.3499 12.1822 13.3499 13.2912Z" fill="#5CC3B4"/>
<path d="M19.5266 13.2912C19.5266 14.4002 20.4256 15.2992 21.5344 15.2992C22.6433 15.2992 23.5423 14.4002 23.5423 13.2912C23.5423 12.1822 22.6433 11.2834 21.5344 11.2834C20.4256 11.2834 19.5266 12.1822 19.5266 13.2912Z" fill="#5CC3B4"/>
<path d="M13.2595 44.4159H13.2657C13.7238 44.4159 14.1329 44.1277 14.2866 43.6958L16.9717 36.1611L19.5375 43.6821C19.6866 44.1193 20.0968 44.414 20.5589 44.416H20.5633C21.0237 44.416 21.4339 44.1252 21.5863 43.6905L25.2262 33.3065C25.4242 32.7417 25.1268 32.1231 24.5617 31.9249C23.9971 31.7269 23.3782 32.0244 23.1801 32.5895L20.5771 40.0153L18.02 32.5192C17.7301 31.5666 16.2752 31.5578 15.973 32.5054L13.2842 40.0506L10.7266 32.6077C10.532 32.0414 9.91544 31.7398 9.34917 31.9349C8.78304 32.1294 8.48169 32.7461 8.67637 33.3123L12.2405 43.6841C12.3901 44.1197 12.7988 44.4131 13.2595 44.4159Z" fill="#5CC3B4"/>
<path d="M33.3156 44.4159H33.3218C33.78 44.4159 34.189 44.1277 34.3428 43.6958L37.0279 36.1611L39.5936 43.6821C39.7428 44.1193 40.153 44.414 40.615 44.416H40.6195C41.0798 44.416 41.49 44.1252 41.6425 43.6905L45.2824 33.3065C45.4804 32.7417 45.1829 32.1231 44.6178 31.9249C44.0533 31.7269 43.4344 32.0244 43.2362 32.5895L40.6332 40.0153L38.0762 32.5192C37.7861 31.5665 36.3314 31.5578 36.0292 32.5054L33.3403 40.0506L30.7827 32.6078C30.5882 32.0415 29.9713 31.7399 29.4053 31.935C28.8392 32.1296 28.5378 32.7463 28.7325 33.3124L32.2967 43.6843C32.4464 44.1197 32.8551 44.4131 33.3156 44.4159Z" fill="#5CC3B4"/>
<path d="M53.0466 44.4159H53.0527C53.5108 44.4159 53.9199 44.1277 54.0737 43.6958L56.7588 36.1611L59.3245 43.6821C59.4736 44.1193 59.8838 44.414 60.3459 44.416H60.3504C60.8107 44.416 61.2209 44.1252 61.3734 43.6905L65.0131 33.3065C65.2111 32.7417 64.9136 32.1231 64.3485 31.9249C63.7838 31.7269 63.1651 32.0244 62.967 32.5895L60.3641 40.0153L57.807 32.5192C57.5173 31.5666 56.0621 31.5578 55.76 32.5054L53.0712 40.0506L50.5134 32.6078C50.3189 32.0417 49.703 31.7402 49.136 31.935C48.5699 32.1296 48.2686 32.7463 48.4632 33.3124L52.0275 43.6843C52.1773 44.1197 52.5859 44.4131 53.0466 44.4159Z" fill="#5CC3B4"/>
</g>
<defs>
<clipPath id="clip0_8_105">
<rect width="74" height="74" fill="white" transform="translate(-0.00976562)"/>
</clipPath>
</defs>
</svg>
