<svg width="62" height="75" viewBox="0 0 62 75" fill="none" xmlns="http://www.w3.org/2000/svg">
<g clip-path="url(#clip0_8_316)">
<path fill-rule="evenodd" clip-rule="evenodd" d="M47.6174 52.5906C46.593 52.6001 45.5805 52.814 44.6376 53.2201C43.6948 53.6262 42.8401 54.2166 42.1223 54.9576C41.4046 55.6986 40.8378 56.5756 40.4544 57.5387C40.071 58.5017 39.8785 59.5319 39.8878 60.5703C39.8971 61.6088 40.1081 62.6352 40.5087 63.591C40.9093 64.5469 41.4917 65.4133 42.2226 66.1409C42.9535 66.8686 43.8187 67.4431 44.7686 67.8318C45.7186 68.2205 46.7348 68.4157 47.7592 68.4063H47.8439C49.9125 68.375 51.8842 67.5119 53.3251 66.0069C54.766 64.502 55.5581 62.4783 55.5273 60.3813C55.4964 58.2842 54.645 56.2854 53.1605 54.8247C51.6759 53.364 49.6798 52.5609 47.6112 52.5922L47.6174 52.5906ZM47.7592 66.8235C46.5255 66.836 45.3158 66.4776 44.283 65.7933C43.2503 65.109 42.4408 64.1297 41.957 62.9792C41.4731 61.8286 41.3366 60.5585 41.5648 59.3293C41.7929 58.1002 42.3753 56.9671 43.2385 56.0735C44.1017 55.1799 45.2069 54.5657 46.4143 54.3087C47.6218 54.0517 48.8773 54.1634 50.0221 54.6297C51.1669 55.0959 52.1497 55.8957 52.8462 56.9281C53.5427 57.9605 53.9216 59.179 53.9351 60.4297C53.9453 61.2616 53.7932 62.0873 53.4877 62.8594C53.1822 63.6315 52.7292 64.3348 52.1547 64.929C51.5802 65.5231 50.8957 65.9963 50.1403 66.3214C49.3849 66.6465 48.5736 66.8171 47.753 66.8235H47.7592Z" fill="#10112F"/>
<path fill-rule="evenodd" clip-rule="evenodd" d="M10.5632 39.9359H14.5043C14.712 39.9359 14.9111 40.0196 15.058 40.1684C15.2048 40.3173 15.2873 40.5192 15.2873 40.7297C15.2873 40.9402 15.2048 41.1421 15.058 41.291C14.9111 41.4398 14.712 41.5234 14.5043 41.5234H10.5632C10.3556 41.5234 10.1564 41.4398 10.0096 41.291C9.86277 41.1421 9.78027 40.9402 9.78027 40.7297C9.78027 40.5192 9.86277 40.3173 10.0096 40.1684C10.1564 40.0196 10.3556 39.9359 10.5632 39.9359Z" fill="#10112F"/>
<path fill-rule="evenodd" clip-rule="evenodd" d="M30.2255 46.5531C30.2271 46.6573 30.2085 46.7608 30.1706 46.8576C30.1328 46.9545 30.0764 47.0428 30.0048 47.1175C29.9333 47.1923 29.8478 47.252 29.7535 47.2932C29.6591 47.3344 29.5576 47.3564 29.4549 47.3578H10.5632C10.3556 47.3578 10.1564 47.2742 10.0096 47.1253C9.86277 46.9765 9.78027 46.7746 9.78027 46.5641C9.78027 46.3536 9.86277 46.1517 10.0096 46.0028C10.1564 45.854 10.3556 45.7703 10.5632 45.7703H29.4549C29.6585 45.7736 29.8529 45.8571 29.9968 46.0033C30.1407 46.1494 30.2227 46.3467 30.2255 46.5531Z" fill="#10112F"/>
<path fill-rule="evenodd" clip-rule="evenodd" d="M25.1238 30.7047C25.124 30.809 25.1039 30.9123 25.0646 31.0087C25.0253 31.1051 24.9677 31.1927 24.8949 31.2664C24.8222 31.3402 24.7358 31.3986 24.6407 31.4385C24.5456 31.4783 24.4437 31.4987 24.3408 31.4985H20.7234C20.5157 31.4985 20.3166 31.4148 20.1698 31.266C20.0229 31.1171 19.9404 30.9152 19.9404 30.7047C19.9404 30.4942 20.0229 30.2923 20.1698 30.1434C20.3166 29.9946 20.5157 29.911 20.7234 29.911H24.3408C24.4437 29.9107 24.5456 29.9311 24.6407 29.971C24.7358 30.0108 24.8222 30.0692 24.8949 30.143C24.9677 30.2167 25.0253 30.3043 25.0646 30.4007C25.1039 30.4971 25.124 30.6004 25.1238 30.7047Z" fill="#10112F"/>
<path fill-rule="evenodd" clip-rule="evenodd" d="M34.6722 15.7156H18.1695C17.7473 15.7165 17.3425 15.887 17.0441 16.1899C16.7456 16.4927 16.5778 16.9032 16.5774 17.3313V34.0625C16.5786 34.4902 16.7467 34.9 17.0451 35.2025C17.3434 35.5049 17.7477 35.6753 18.1695 35.6766H34.6722C35.0937 35.6741 35.4972 35.5033 35.7953 35.2011C36.0934 34.8989 36.2619 34.4898 36.2643 34.0625V17.3313C36.2627 16.9035 36.0945 16.4938 35.7963 16.1912C35.4981 15.8886 35.0941 15.7177 34.6722 15.7156ZM25.0514 17.3047H27.7903V21.3172L26.8655 20.6297C26.7294 20.5302 26.5653 20.4775 26.3975 20.4795C26.2297 20.4814 26.0669 20.5379 25.933 20.6406L25.0591 21.2844L25.0514 17.3047ZM34.6953 34.0625C34.6945 34.0685 34.6915 34.0739 34.6869 34.0776C34.6823 34.0814 34.6765 34.0833 34.6706 34.0828H18.1665C18.1602 34.082 18.1545 34.0788 18.1505 34.0739C18.1464 34.069 18.1444 34.0626 18.1449 34.0563V17.3313C18.1449 17.3245 18.1474 17.3179 18.152 17.313C18.1566 17.3081 18.1629 17.3051 18.1695 17.3047H23.4839V22.8422C23.4852 22.9869 23.5255 23.1285 23.6005 23.2516C23.6754 23.3748 23.7821 23.4748 23.9091 23.5409C24.036 23.607 24.1784 23.6367 24.3208 23.6268C24.4632 23.6168 24.6002 23.5676 24.717 23.4844L26.3893 22.2531L28.0708 23.4906C28.1863 23.5856 28.326 23.6452 28.4736 23.6626C28.6213 23.68 28.7708 23.6545 28.9047 23.5889C29.0385 23.5234 29.1512 23.4205 29.2295 23.2925C29.3079 23.1644 29.3486 23.0163 29.347 22.8656V17.3047H34.6629C34.6696 17.3051 34.6759 17.3081 34.6805 17.313C34.685 17.3179 34.6876 17.3245 34.6876 17.3313L34.6953 34.0625Z" fill="#10112F"/>
<path fill-rule="evenodd" clip-rule="evenodd" d="M18.1017 39.9359H42.2784C42.486 39.9359 42.6852 40.0196 42.832 40.1684C42.9788 40.3173 43.0613 40.5192 43.0613 40.7297C43.0613 40.9402 42.9788 41.1421 42.832 41.291C42.6852 41.4398 42.486 41.5234 42.2784 41.5234H18.1001C17.8925 41.5234 17.6933 41.4398 17.5465 41.291C17.3996 41.1421 17.3171 40.9402 17.3171 40.7297C17.3171 40.5192 17.3996 40.3173 17.5465 40.1684C17.6933 40.0196 17.8925 39.9359 18.1001 39.9359H18.1017Z" fill="#10112F"/>
<path fill-rule="evenodd" clip-rule="evenodd" d="M43.0506 46.5531C43.0522 46.6573 43.0336 46.7608 42.9957 46.8576C42.9579 46.9545 42.9015 47.0428 42.8299 47.1175C42.7584 47.1923 42.6729 47.252 42.5786 47.2932C42.4842 47.3344 42.3827 47.3564 42.28 47.3578H33.0523C32.8446 47.3578 32.6455 47.2742 32.4986 47.1253C32.3518 46.9765 32.2693 46.7746 32.2693 46.5641C32.2693 46.3536 32.3518 46.1517 32.4986 46.0028C32.6455 45.854 32.8446 45.7703 33.0523 45.7703H42.2784C42.4824 45.7732 42.6772 45.8565 42.8214 46.0027C42.9656 46.1489 43.0478 46.3464 43.0506 46.5531Z" fill="#10112F"/>
<path fill-rule="evenodd" clip-rule="evenodd" d="M47.6171 52.5906C46.5928 52.6001 45.5802 52.814 44.6374 53.2201C43.6946 53.6262 42.8399 54.2166 42.1221 54.9576C41.4044 55.6986 40.8376 56.5756 40.4542 57.5387C40.0708 58.5017 39.8782 59.5318 39.8875 60.5703C39.8969 61.6088 40.1078 62.6352 40.5084 63.591C40.9091 64.5468 41.4915 65.4133 42.2224 66.1409C42.9533 66.8686 43.8184 67.4431 44.7684 67.8318C45.7184 68.2205 46.7346 68.4157 47.7589 68.4062H47.8437C49.9123 68.375 51.8839 67.5119 53.3248 66.0069C54.7657 64.5019 55.5579 62.4783 55.527 60.3812C55.4962 58.2842 54.6448 56.2854 53.1603 54.8247C51.6757 53.364 49.6796 52.5609 47.611 52.5922L47.6171 52.5906ZM47.7589 66.8234C46.5252 66.836 45.3155 66.4775 44.2828 65.7933C43.25 65.109 42.4406 64.1297 41.9567 62.9792C41.4729 61.8286 41.3364 60.5585 41.5645 59.3293C41.7926 58.1001 42.3751 56.9671 43.2383 56.0735C44.1015 55.1799 45.2067 54.5657 46.4141 54.3087C47.6215 54.0517 48.877 54.1634 50.0219 54.6296C51.1667 55.0959 52.1495 55.8957 52.846 56.9281C53.5425 57.9605 53.9214 59.179 53.9349 60.4297C53.945 61.2616 53.793 62.0873 53.4875 62.8594C53.1819 63.6315 52.7289 64.3348 52.1545 64.9289C51.58 65.5231 50.8954 65.9963 50.1401 66.3214C49.3847 66.6465 48.5734 66.8171 47.7528 66.8234H47.7589ZM47.6171 52.5906C46.5928 52.6001 45.5802 52.814 44.6374 53.2201C43.6946 53.6262 42.8399 54.2166 42.1221 54.9576C41.4044 55.6986 40.8376 56.5756 40.4542 57.5387C40.0708 58.5017 39.8782 59.5318 39.8875 60.5703C39.8969 61.6088 40.1078 62.6352 40.5084 63.591C40.9091 64.5468 41.4915 65.4133 42.2224 66.1409C42.9533 66.8686 43.8184 67.4431 44.7684 67.8318C45.7184 68.2205 46.7346 68.4157 47.7589 68.4062H47.8437C49.9123 68.375 51.8839 67.5119 53.3248 66.0069C54.7657 64.5019 55.5579 62.4783 55.527 60.3812C55.4962 58.2842 54.6448 56.2854 53.1603 54.8247C51.6757 53.364 49.6796 52.5609 47.611 52.5922L47.6171 52.5906ZM47.7589 66.8234C46.5252 66.836 45.3155 66.4775 44.2828 65.7933C43.25 65.109 42.4406 64.1297 41.9567 62.9792C41.4729 61.8286 41.3364 60.5585 41.5645 59.3293C41.7926 58.1001 42.3751 56.9671 43.2383 56.0735C44.1015 55.1799 45.2067 54.5657 46.4141 54.3087C47.6215 54.0517 48.877 54.1634 50.0219 54.6296C51.1667 55.0959 52.1495 55.8957 52.846 56.9281C53.5425 57.9605 53.9214 59.179 53.9349 60.4297C53.945 61.2616 53.793 62.0873 53.4875 62.8594C53.1819 63.6315 52.7289 64.3348 52.1545 64.9289C51.58 65.5231 50.8954 65.9963 50.1401 66.3214C49.3847 66.6465 48.5734 66.8171 47.7528 66.8234H47.7589ZM47.6171 52.5906C46.5928 52.6001 45.5802 52.814 44.6374 53.2201C43.6946 53.6262 42.8399 54.2166 42.1221 54.9576C41.4044 55.6986 40.8376 56.5756 40.4542 57.5387C40.0708 58.5017 39.8782 59.5318 39.8875 60.5703C39.8969 61.6088 40.1078 62.6352 40.5084 63.591C40.9091 64.5468 41.4915 65.4133 42.2224 66.1409C42.9533 66.8686 43.8184 67.4431 44.7684 67.8318C45.7184 68.2205 46.7346 68.4157 47.7589 68.4062H47.8437C49.9123 68.375 51.8839 67.5119 53.3248 66.0069C54.7657 64.5019 55.5579 62.4783 55.527 60.3812C55.4962 58.2842 54.6448 56.2854 53.1603 54.8247C51.6757 53.364 49.6796 52.5609 47.611 52.5922L47.6171 52.5906ZM47.7589 66.8234C46.5252 66.836 45.3155 66.4775 44.2828 65.7933C43.25 65.109 42.4406 64.1297 41.9567 62.9792C41.4729 61.8286 41.3364 60.5585 41.5645 59.3293C41.7926 58.1001 42.3751 56.9671 43.2383 56.0735C44.1015 55.1799 45.2067 54.5657 46.4141 54.3087C47.6215 54.0517 48.877 54.1634 50.0219 54.6296C51.1667 55.0959 52.1495 55.8957 52.846 56.9281C53.5425 57.9605 53.9214 59.179 53.9349 60.4297C53.945 61.2616 53.793 62.0873 53.4875 62.8594C53.1819 63.6315 52.7289 64.3348 52.1545 64.9289C51.58 65.5231 50.8954 65.9963 50.1401 66.3214C49.3847 66.6465 48.5734 66.8171 47.7528 66.8234H47.7589ZM47.6171 52.5906C46.5928 52.6001 45.5802 52.814 44.6374 53.2201C43.6946 53.6262 42.8399 54.2166 42.1221 54.9576C41.4044 55.6986 40.8376 56.5756 40.4542 57.5387C40.0708 58.5017 39.8782 59.5318 39.8875 60.5703C39.8969 61.6088 40.1078 62.6352 40.5084 63.591C40.9091 64.5468 41.4915 65.4133 42.2224 66.1409C42.9533 66.8686 43.8184 67.4431 44.7684 67.8318C45.7184 68.2205 46.7346 68.4157 47.7589 68.4062H47.8437C49.9123 68.375 51.8839 67.5119 53.3248 66.0069C54.7657 64.5019 55.5579 62.4783 55.527 60.3812C55.4962 58.2842 54.6448 56.2854 53.1603 54.8247C51.6757 53.364 49.6796 52.5609 47.611 52.5922L47.6171 52.5906ZM47.7589 66.8234C46.5252 66.836 45.3155 66.4775 44.2828 65.7933C43.25 65.109 42.4406 64.1297 41.9567 62.9792C41.4729 61.8286 41.3364 60.5585 41.5645 59.3293C41.7926 58.1001 42.3751 56.9671 43.2383 56.0735C44.1015 55.1799 45.2067 54.5657 46.4141 54.3087C47.6215 54.0517 48.877 54.1634 50.0219 54.6296C51.1667 55.0959 52.1495 55.8957 52.846 56.9281C53.5425 57.9605 53.9214 59.179 53.9349 60.4297C53.945 61.2616 53.793 62.0873 53.4875 62.8594C53.1819 63.6315 52.7289 64.3348 52.1545 64.9289C51.58 65.5231 50.8954 65.9963 50.1401 66.3214C49.3847 66.6465 48.5734 66.8171 47.7528 66.8234H47.7589ZM61.965 58.8547C61.9758 58.6629 61.9176 58.4737 61.8011 58.3222C61.6845 58.1707 61.5177 58.0673 61.3315 58.0312L58.8932 57.5594C58.6222 56.503 58.2071 55.4902 57.6602 54.55L59.0304 52.4094C59.135 52.2558 59.1828 52.0697 59.1654 51.8839C59.1479 51.6981 59.0662 51.5245 58.9348 51.3938L56.6306 49.1031C56.5042 48.9618 56.3317 48.8715 56.1449 48.8485C55.9581 48.8255 55.7694 48.8716 55.6133 48.9781L53.5573 50.3844C53.3209 50.2437 53.0815 50.1115 52.839 49.9875V12.3906C52.8349 10.4442 52.0704 8.5787 50.7128 7.20237C49.3551 5.82605 47.5149 5.05101 45.5949 5.04688H38.4803V4.00625C38.4805 3.90196 38.4604 3.79865 38.4212 3.70226C38.3819 3.60586 38.3242 3.51828 38.2515 3.44453C38.1787 3.37078 38.0923 3.31232 37.9972 3.27251C37.9022 3.23269 37.8003 3.2123 37.6974 3.2125H32.1703C31.8358 2.34375 31.1638 1.59219 30.2668 1.03438C29.0953 0.356284 27.7696 -0.000366211 26.4205 -0.000366211C25.0715 -0.000366211 23.7458 0.356284 22.5742 1.03438C21.6772 1.59219 21.0052 2.34375 20.6692 3.2125H15.1436C15.0407 3.2123 14.9387 3.23268 14.8435 3.27248C14.7484 3.31227 14.6619 3.37071 14.589 3.44443C14.5161 3.51816 14.4583 3.60573 14.4189 3.70214C14.3794 3.79854 14.3591 3.90189 14.3591 4.00625V5.05157H7.23528C5.31529 5.0557 3.47509 5.83073 2.11745 7.20706C0.759803 8.58339 -0.00471695 10.4489 -0.00878906 12.3953V62.0312C-0.00471695 63.9777 0.759803 65.8432 2.11745 67.2195C3.47509 68.5958 5.31529 69.3709 7.23528 69.375H36.2778C36.3178 69.4643 36.3737 69.5454 36.4428 69.6141L38.7794 71.9375C38.908 72.0654 39.0764 72.1443 39.2559 72.1608C39.4353 72.1774 39.615 72.1305 39.7642 72.0281L41.8188 70.6219C42.7455 71.1778 43.7448 71.5986 44.7873 71.8719L45.3175 74.3875C45.3555 74.5656 45.4528 74.7251 45.5932 74.8389C45.7336 74.9528 45.9084 75.0141 46.0882 75.0125L49.311 74.9812C49.5002 74.9922 49.6869 74.9332 49.8363 74.815C49.9857 74.6969 50.0877 74.5277 50.1233 74.3391L50.5934 71.8703C51.6354 71.5955 52.6345 71.1748 53.5619 70.6203L55.6735 72.0094C55.8249 72.1154 56.0083 72.1639 56.1915 72.1465C56.3747 72.129 56.546 72.0468 56.6753 71.9141L58.9348 69.5781C59.0743 69.4497 59.1635 69.2746 59.1862 69.085C59.2088 68.8953 59.1634 68.7038 59.0581 68.5453L57.671 66.4609C58.2176 65.5169 58.6292 64.4989 58.8932 63.4375L61.3747 62.9C61.5506 62.8618 61.708 62.7632 61.8204 62.6208C61.9327 62.4784 61.9931 62.3011 61.9912 62.1187L61.965 58.8547ZM38.4803 6.64063H45.6057C47.1085 6.64557 48.5484 7.25296 49.611 8.33023C50.6737 9.40749 51.2728 10.8672 51.2777 12.3906V49.3422C51.0542 49.2672 50.8261 49.2 50.5964 49.1406L50.0662 46.625C50.0286 46.4467 49.9313 46.2871 49.7908 46.1732C49.6504 46.0593 49.4754 45.9981 49.2956 46H48.7839V12.3906C48.7827 11.536 48.4473 10.7166 47.8513 10.1121C47.2553 9.50764 46.4473 9.16728 45.6042 9.16563H38.4803V6.64063ZM15.9266 4.80157H21.2549C21.447 4.79956 21.6317 4.72601 21.7738 4.59492C21.9159 4.46383 22.0055 4.28434 22.0255 4.09063C22.1642 3.43438 22.6605 2.84063 23.3803 2.3875C24.3074 1.86344 25.3513 1.58834 26.4128 1.58834C27.4743 1.58834 28.5182 1.86344 29.4453 2.3875C30.1867 2.84844 30.6907 3.46719 30.8109 4.14688C30.8437 4.32978 30.9389 4.49519 31.0797 4.61427C31.2205 4.73334 31.3981 4.79852 31.5815 4.79844H36.9082V10.9844H15.9266V4.80157ZM15.1436 12.5734H37.6974C37.8003 12.5736 37.9022 12.5533 37.9972 12.5134C38.0923 12.4736 38.1787 12.4152 38.2515 12.3414C38.3242 12.2677 38.3819 12.1801 38.4212 12.0837C38.4604 11.9873 38.4805 11.884 38.4803 11.7797V10.7547H45.6057C46.0332 10.7563 46.4427 10.9292 46.745 11.2357C47.0473 11.5421 47.2178 11.9573 47.2195 12.3906V46.0187L46.0728 46.0297C45.8836 46.0191 45.6971 46.0786 45.548 46.197C45.3989 46.3154 45.2972 46.4847 45.262 46.6734L44.7919 49.1406C43.7497 49.4147 42.7505 49.8355 41.8234 50.3906L39.7134 49.0016C39.5619 48.8955 39.3783 48.847 39.195 48.8647C39.0117 48.8825 38.8405 48.9652 38.7115 49.0984L36.4505 51.4328C36.3951 51.4839 36.3473 51.5428 36.3087 51.6078H10.5691C10.3614 51.6078 10.1623 51.6914 10.0154 51.8403C9.86861 51.9892 9.78612 52.191 9.78612 52.4016C9.78612 52.6121 9.86861 52.814 10.0154 52.9628C10.1623 53.1117 10.3614 53.1953 10.5691 53.1953H36.8142L37.7189 54.55C37.1711 55.4892 36.7561 56.5017 36.4859 57.5578L34.0044 58.0938C33.8288 58.1325 33.6717 58.2313 33.5595 58.3735C33.4472 58.5158 33.3866 58.6928 33.3879 58.875L33.4187 62.1422C33.4083 62.3341 33.4669 62.5234 33.5837 62.6748C33.7005 62.8263 33.8675 62.9296 34.0538 62.9656L36.489 63.4344C36.5075 63.5094 36.5275 63.5828 36.5476 63.6578H14.2466V57.7094C14.2446 56.8548 13.9087 56.0359 13.3125 55.4318C12.7163 54.8277 11.9083 54.4876 11.0654 54.4859H5.62155V12.3906C5.62358 11.9574 5.79424 11.5425 6.09644 11.2361C6.39863 10.9298 6.80792 10.7567 7.23528 10.7547H14.3591V11.7797C14.3591 11.8841 14.3794 11.9874 14.4189 12.0838C14.4583 12.1802 14.5161 12.2678 14.589 12.3415C14.6619 12.4152 14.7484 12.4737 14.8435 12.5135C14.9387 12.5533 15.0407 12.5736 15.1436 12.5734ZM12.6776 57.7094V62.4734L6.66655 56.0672H11.0685C11.4964 56.0701 11.9058 56.2443 12.2075 56.5519C12.5092 56.8595 12.6787 57.2756 12.6791 57.7094H12.6776ZM36.8651 67.775H7.23528C5.7326 67.7713 4.29234 67.1654 3.22863 66.0894C2.16492 65.0134 1.56408 63.5546 1.55716 62.0312V12.3891C1.56244 10.8657 2.16172 9.40629 3.22427 8.32912C4.28683 7.25194 5.72645 6.64442 7.22912 6.63907H14.3545V9.16563H7.23528C6.39207 9.16728 5.58386 9.50759 4.98762 10.112C4.39137 10.7165 4.05568 11.5358 4.05406 12.3906V55.2797C4.05417 55.3904 4.07713 55.4999 4.12146 55.601C4.16579 55.7022 4.23051 55.7929 4.31145 55.8672L12.8579 64.9594C12.9326 65.0491 13.0255 65.1214 13.1303 65.1713C13.2352 65.2212 13.3494 65.2475 13.4652 65.2484H37.1086C37.289 65.6593 37.4923 66.0594 37.7174 66.4469L36.8651 67.775ZM58.084 61.9938C57.9302 62.0266 57.7898 62.1058 57.6812 62.2209C57.5725 62.3361 57.5007 62.4818 57.4752 62.6391C57.2169 63.8489 56.7426 65.0006 56.0757 66.0375C55.9909 66.1669 55.9456 66.3188 55.9456 66.4742C55.9456 66.6296 55.9909 66.7815 56.0757 66.9109L57.392 68.8844L55.9956 70.3281L53.9842 69.0062C53.8558 68.9203 53.705 68.8753 53.5512 68.8769C53.3974 68.8786 53.2476 68.9269 53.1211 69.0156C52.0927 69.6911 50.9498 70.1679 49.7503 70.4219C49.5992 70.4534 49.4607 70.5295 49.3524 70.6408C49.244 70.752 49.1706 70.8933 49.1415 71.0469L48.696 73.3906L46.7016 73.4094L46.2038 71.0344C46.1714 70.8784 46.0933 70.7361 45.9797 70.626C45.8661 70.5158 45.7223 70.4431 45.5672 70.4172C44.3739 70.1551 43.2378 69.6743 42.2149 68.9984C42.0804 68.9099 41.9223 68.8656 41.762 68.8715C41.6018 68.8773 41.4472 68.9331 41.3194 69.0312L39.4082 70.3422L37.981 68.925L39.2864 66.8937C39.3702 66.7629 39.414 66.61 39.4123 66.4541C39.4107 66.2981 39.3637 66.1462 39.2772 66.0172C38.9168 65.4539 38.6127 64.8557 38.3694 64.2312C38.2014 63.6594 38.0133 63.2109 37.8869 62.6C37.8559 62.4469 37.7808 62.3065 37.671 62.1966C37.5613 62.0868 37.4219 62.0124 37.2704 61.9828L34.9585 61.5312L34.94 59.5109L37.2828 59.0047C37.4331 58.9723 37.5707 58.8957 37.6784 58.7846C37.7861 58.6735 37.8592 58.5326 37.8885 58.3797C38.145 57.1634 38.6205 56.0056 39.2911 54.9641C39.3748 54.8339 39.4187 54.6815 39.4173 54.5262C39.4159 54.3708 39.3693 54.2193 39.2834 54.0906L37.9671 52.1156L39.365 50.6719L41.3687 51.9938C41.4976 52.0789 41.6484 52.1235 41.8022 52.1221C41.956 52.1207 42.106 52.0734 42.2334 51.9859C43.2614 51.3096 44.4044 50.8327 45.6042 50.5797C45.7551 50.5481 45.8933 50.4719 46.0014 50.3606C46.1095 50.2494 46.1826 50.1081 46.2115 49.9547L46.6569 47.6188L48.6498 47.5984L49.1492 49.9734C49.1806 50.1306 49.2582 50.2744 49.3718 50.386C49.4855 50.4976 49.6298 50.5716 49.7857 50.5984C50.9789 50.86 52.115 51.3403 53.138 52.0156C53.2658 52.1012 53.4156 52.1469 53.5688 52.1469C53.722 52.1469 53.8718 52.1012 53.9996 52.0156L55.9648 50.6563L57.3889 52.0719L56.085 54.1031C56.0012 54.2339 55.9575 54.3869 55.9591 54.5428C55.9608 54.6988 56.0078 54.8507 56.0942 54.9797C56.7608 56.0221 57.2311 57.1807 57.4814 58.3969C57.5116 58.5512 57.5864 58.6929 57.6961 58.8042C57.8059 58.9154 57.9457 58.9912 58.0979 59.0219L60.4098 59.4719L60.4283 61.4937L58.084 61.9938ZM47.6156 52.5875C46.5912 52.5969 45.5787 52.8108 44.6359 53.217C43.693 53.6231 42.8383 54.2135 42.1206 54.9545C41.4028 55.6954 40.8361 56.5725 40.4526 57.5355C40.0692 58.4986 39.8767 59.5287 39.886 60.5672C39.8953 61.6057 40.1063 62.6321 40.5069 63.5879C40.9075 64.5437 41.4899 65.4102 42.2208 66.1378C42.9518 66.8654 43.8169 67.44 44.7669 67.8287C45.7168 68.2174 46.733 68.4126 47.7574 68.4031H47.8421C49.9108 68.3718 51.8824 67.5088 53.3233 66.0038C54.7642 64.4988 55.5564 62.4752 55.5255 60.3781C55.4946 58.2811 54.6433 56.2823 53.1587 54.8216C51.6742 53.3608 49.678 52.5578 47.6094 52.5891L47.6156 52.5875ZM47.7574 66.8203C46.5237 66.8329 45.314 66.4744 44.2812 65.7902C43.2485 65.1059 42.439 64.1266 41.9552 62.9761C41.4714 61.8255 41.3349 60.5554 41.563 59.3262C41.7911 58.097 42.3736 56.964 43.2368 56.0704C44.1 55.1767 45.2051 54.5626 46.4126 54.3056C47.62 54.0486 48.8755 54.1603 50.0203 54.6265C51.1652 55.0928 52.1479 55.8926 52.8444 56.925C53.5409 57.9574 53.9199 59.1759 53.9333 60.4266C53.9439 61.2586 53.7922 62.0845 53.487 62.8569C53.1817 63.6293 52.7289 64.3329 52.1546 64.9273C51.5803 65.5217 50.8957 65.9952 50.1403 66.3206C49.3849 66.646 48.5735 66.8169 47.7528 66.8234L47.7574 66.8203ZM47.6156 52.5875C46.5912 52.5969 45.5787 52.8108 44.6359 53.217C43.693 53.6231 42.8383 54.2135 42.1206 54.9545C41.4028 55.6954 40.8361 56.5725 40.4526 57.5355C40.0692 58.4986 39.8767 59.5287 39.886 60.5672C39.8953 61.6057 40.1063 62.6321 40.5069 63.5879C40.9075 64.5437 41.4899 65.4102 42.2208 66.1378C42.9518 66.8654 43.8169 67.44 44.7669 67.8287C45.7168 68.2174 46.733 68.4126 47.7574 68.4031H47.8421C49.9108 68.3718 51.8824 67.5088 53.3233 66.0038C54.7642 64.4988 55.5564 62.4752 55.5255 60.3781C55.4946 58.2811 54.6433 56.2823 53.1587 54.8216C51.6742 53.3608 49.678 52.5578 47.6094 52.5891L47.6156 52.5875ZM47.7574 66.8203C46.5237 66.8329 45.314 66.4744 44.2812 65.7902C43.2485 65.1059 42.439 64.1266 41.9552 62.9761C41.4714 61.8255 41.3349 60.5554 41.563 59.3262C41.7911 58.097 42.3736 56.964 43.2368 56.0704C44.1 55.1767 45.2051 54.5626 46.4126 54.3056C47.62 54.0486 48.8755 54.1603 50.0203 54.6265C51.1652 55.0928 52.1479 55.8926 52.8444 56.925C53.5409 57.9574 53.9199 59.1759 53.9333 60.4266C53.9439 61.2586 53.7922 62.0845 53.487 62.8569C53.1817 63.6293 52.7289 64.3329 52.1546 64.9273C51.5803 65.5217 50.8957 65.9952 50.1403 66.3206C49.3849 66.646 48.5735 66.8169 47.7528 66.8234L47.7574 66.8203ZM47.6156 52.5875C46.5912 52.5969 45.5787 52.8108 44.6359 53.217C43.693 53.6231 42.8383 54.2135 42.1206 54.9545C41.4028 55.6954 40.8361 56.5725 40.4526 57.5355C40.0692 58.4986 39.8767 59.5287 39.886 60.5672C39.8953 61.6057 40.1063 62.6321 40.5069 63.5879C40.9075 64.5437 41.4899 65.4102 42.2208 66.1378C42.9518 66.8654 43.8169 67.44 44.7669 67.8287C45.7168 68.2174 46.733 68.4126 47.7574 68.4031H47.8421C49.9108 68.3718 51.8824 67.5088 53.3233 66.0038C54.7642 64.4988 55.5564 62.4752 55.5255 60.3781C55.4946 58.2811 54.6433 56.2823 53.1587 54.8216C51.6742 53.3608 49.678 52.5578 47.6094 52.5891L47.6156 52.5875ZM47.7574 66.8203C46.5237 66.8329 45.314 66.4744 44.2812 65.7902C43.2485 65.1059 42.439 64.1266 41.9552 62.9761C41.4714 61.8255 41.3349 60.5554 41.563 59.3262C41.7911 58.097 42.3736 56.964 43.2368 56.0704C44.1 55.1767 45.2051 54.5626 46.4126 54.3056C47.62 54.0486 48.8755 54.1603 50.0203 54.6265C51.1652 55.0928 52.1479 55.8926 52.8444 56.925C53.5409 57.9574 53.9199 59.1759 53.9333 60.4266C53.9439 61.2586 53.7922 62.0845 53.487 62.8569C53.1817 63.6293 52.7289 64.3329 52.1546 64.9273C51.5803 65.5217 50.8957 65.9952 50.1403 66.3206C49.3849 66.646 48.5735 66.8169 47.7528 66.8234L47.7574 66.8203ZM47.6156 52.5875C46.5912 52.5969 45.5787 52.8108 44.6359 53.217C43.693 53.6231 42.8383 54.2135 42.1206 54.9545C41.4028 55.6954 40.8361 56.5725 40.4526 57.5355C40.0692 58.4986 39.8767 59.5287 39.886 60.5672C39.8953 61.6057 40.1063 62.6321 40.5069 63.5879C40.9075 64.5437 41.4899 65.4102 42.2208 66.1378C42.9518 66.8654 43.8169 67.44 44.7669 67.8287C45.7168 68.2174 46.733 68.4126 47.7574 68.4031H47.8421C49.9108 68.3718 51.8824 67.5088 53.3233 66.0038C54.7642 64.4988 55.5564 62.4752 55.5255 60.3781C55.4946 58.2811 54.6433 56.2823 53.1587 54.8216C51.6742 53.3608 49.678 52.5578 47.6094 52.5891L47.6156 52.5875ZM47.7574 66.8203C46.5237 66.8329 45.314 66.4744 44.2812 65.7902C43.2485 65.1059 42.439 64.1266 41.9552 62.9761C41.4714 61.8255 41.3349 60.5554 41.563 59.3262C41.7911 58.097 42.3736 56.964 43.2368 56.0704C44.1 55.1767 45.2051 54.5626 46.4126 54.3056C47.62 54.0486 48.8755 54.1603 50.0203 54.6265C51.1652 55.0928 52.1479 55.8926 52.8444 56.925C53.5409 57.9574 53.9199 59.1759 53.9333 60.4266C53.9439 61.2586 53.7922 62.0845 53.487 62.8569C53.1817 63.6293 52.7289 64.3329 52.1546 64.9273C51.5803 65.5217 50.8957 65.9952 50.1403 66.3206C49.3849 66.646 48.5735 66.8169 47.7528 66.8234L47.7574 66.8203ZM47.6156 52.5875C46.5912 52.5969 45.5787 52.8108 44.6359 53.217C43.693 53.6231 42.8383 54.2135 42.1206 54.9545C41.4028 55.6954 40.8361 56.5725 40.4526 57.5355C40.0692 58.4986 39.8767 59.5287 39.886 60.5672C39.8953 61.6057 40.1063 62.6321 40.5069 63.5879C40.9075 64.5437 41.4899 65.4102 42.2208 66.1378C42.9518 66.8654 43.8169 67.44 44.7669 67.8287C45.7168 68.2174 46.733 68.4126 47.7574 68.4031H47.8421C49.9108 68.3718 51.8824 67.5088 53.3233 66.0038C54.7642 64.4988 55.5564 62.4752 55.5255 60.3781C55.4946 58.2811 54.6433 56.2823 53.1587 54.8216C51.6742 53.3608 49.678 52.5578 47.6094 52.5891L47.6156 52.5875ZM47.7574 66.8203C46.5237 66.8329 45.314 66.4744 44.2812 65.7902C43.2485 65.1059 42.439 64.1266 41.9552 62.9761C41.4714 61.8255 41.3349 60.5554 41.563 59.3262C41.7911 58.097 42.3736 56.964 43.2368 56.0704C44.1 55.1767 45.2051 54.5626 46.4126 54.3056C47.62 54.0486 48.8755 54.1603 50.0203 54.6265C51.1652 55.0928 52.1479 55.8926 52.8444 56.925C53.5409 57.9574 53.9199 59.1759 53.9333 60.4266C53.9439 61.2586 53.7922 62.0845 53.487 62.8569C53.1817 63.6293 52.7289 64.3329 52.1546 64.9273C51.5803 65.5217 50.8957 65.9952 50.1403 66.3206C49.3849 66.646 48.5735 66.8169 47.7528 66.8234L47.7574 66.8203Z" fill="#10112F"/>
<path fill-rule="evenodd" clip-rule="evenodd" d="M47.6174 52.5906C46.593 52.6001 45.5805 52.814 44.6376 53.2201C43.6948 53.6262 42.8401 54.2166 42.1223 54.9576C41.4046 55.6986 40.8378 56.5756 40.4544 57.5387C40.071 58.5017 39.8785 59.5319 39.8878 60.5703C39.8971 61.6088 40.1081 62.6352 40.5087 63.591C40.9093 64.5469 41.4917 65.4133 42.2226 66.1409C42.9535 66.8686 43.8187 67.4431 44.7686 67.8318C45.7186 68.2205 46.7348 68.4157 47.7592 68.4063H47.8439C49.9125 68.375 51.8842 67.5119 53.3251 66.0069C54.766 64.502 55.5581 62.4783 55.5273 60.3813C55.4964 58.2842 54.645 56.2854 53.1605 54.8247C51.6759 53.364 49.6798 52.5609 47.6112 52.5922L47.6174 52.5906ZM47.7592 66.8235C46.5255 66.836 45.3158 66.4776 44.283 65.7933C43.2503 65.109 42.4408 64.1297 41.957 62.9792C41.4731 61.8286 41.3366 60.5585 41.5648 59.3293C41.7929 58.1002 42.3753 56.9671 43.2385 56.0735C44.1017 55.1799 45.2069 54.5657 46.4143 54.3087C47.6218 54.0517 48.8773 54.1634 50.0221 54.6297C51.1669 55.0959 52.1497 55.8957 52.8462 56.9281C53.5427 57.9605 53.9216 59.179 53.9351 60.4297C53.9453 61.2616 53.7932 62.0873 53.4877 62.8594C53.1822 63.6315 52.7292 64.3348 52.1547 64.929C51.5802 65.5231 50.8957 65.9963 50.1403 66.3214C49.3849 66.6465 48.5736 66.8171 47.753 66.8235H47.7592Z" fill="#5CC3B4"/>
<path fill-rule="evenodd" clip-rule="evenodd" d="M25.1238 30.7047C25.124 30.809 25.1039 30.9123 25.0646 31.0087C25.0253 31.1051 24.9677 31.1927 24.8949 31.2664C24.8222 31.3402 24.7358 31.3986 24.6407 31.4385C24.5456 31.4783 24.4437 31.4987 24.3408 31.4985H20.7234C20.5157 31.4985 20.3166 31.4148 20.1698 31.266C20.0229 31.1171 19.9404 30.9152 19.9404 30.7047C19.9404 30.4942 20.0229 30.2923 20.1698 30.1434C20.3166 29.9946 20.5157 29.911 20.7234 29.911H24.3408C24.4437 29.9107 24.5456 29.9311 24.6407 29.971C24.7358 30.0108 24.8222 30.0692 24.8949 30.143C24.9677 30.2167 25.0253 30.3043 25.0646 30.4007C25.1039 30.4971 25.124 30.6004 25.1238 30.7047Z" fill="#10112F"/>
<path fill-rule="evenodd" clip-rule="evenodd" d="M34.6722 15.7156H18.1695C17.7473 15.7165 17.3425 15.887 17.0441 16.1899C16.7456 16.4927 16.5778 16.9032 16.5774 17.3313V34.0625C16.5786 34.4902 16.7467 34.9 17.0451 35.2025C17.3434 35.5049 17.7477 35.6753 18.1695 35.6766H34.6722C35.0937 35.6741 35.4972 35.5033 35.7953 35.2011C36.0934 34.8989 36.2619 34.4898 36.2643 34.0625V17.3313C36.2627 16.9035 36.0945 16.4938 35.7963 16.1912C35.4981 15.8886 35.0941 15.7177 34.6722 15.7156ZM25.0514 17.3047H27.7903V21.3172L26.8655 20.6297C26.7294 20.5302 26.5653 20.4775 26.3975 20.4795C26.2297 20.4814 26.0669 20.5379 25.933 20.6406L25.0591 21.2844L25.0514 17.3047ZM34.6953 34.0625C34.6945 34.0685 34.6915 34.0739 34.6869 34.0776C34.6823 34.0814 34.6765 34.0833 34.6706 34.0828H18.1665C18.1602 34.082 18.1545 34.0788 18.1505 34.0739C18.1464 34.069 18.1444 34.0626 18.1449 34.0563V17.3313C18.1449 17.3245 18.1474 17.3179 18.152 17.313C18.1566 17.3081 18.1629 17.3051 18.1695 17.3047H23.4839V22.8422C23.4852 22.9869 23.5255 23.1285 23.6005 23.2516C23.6754 23.3748 23.7821 23.4748 23.9091 23.5409C24.036 23.607 24.1784 23.6367 24.3208 23.6268C24.4632 23.6168 24.6002 23.5676 24.717 23.4844L26.3893 22.2531L28.0708 23.4906C28.1863 23.5856 28.326 23.6452 28.4736 23.6626C28.6213 23.68 28.7708 23.6545 28.9047 23.5889C29.0385 23.5234 29.1512 23.4205 29.2295 23.2925C29.3079 23.1644 29.3486 23.0163 29.347 22.8656V17.3047H34.6629C34.6696 17.3051 34.6759 17.3081 34.6805 17.313C34.685 17.3179 34.6876 17.3245 34.6876 17.3313L34.6953 34.0625Z" fill="#10112F"/>
<path fill-rule="evenodd" clip-rule="evenodd" d="M25.1238 30.7047C25.124 30.809 25.1039 30.9123 25.0646 31.0087C25.0253 31.1051 24.9677 31.1927 24.8949 31.2664C24.8222 31.3402 24.7358 31.3986 24.6407 31.4385C24.5456 31.4783 24.4437 31.4987 24.3408 31.4985H20.7234C20.5157 31.4985 20.3166 31.4148 20.1698 31.266C20.0229 31.1171 19.9404 30.9152 19.9404 30.7047C19.9404 30.4942 20.0229 30.2923 20.1698 30.1434C20.3166 29.9946 20.5157 29.911 20.7234 29.911H24.3408C24.4437 29.9107 24.5456 29.9311 24.6407 29.971C24.7358 30.0108 24.8222 30.0692 24.8949 30.143C24.9677 30.2167 25.0253 30.3043 25.0646 30.4007C25.1039 30.4971 25.124 30.6004 25.1238 30.7047Z" fill="#5CC3B4"/>
<path fill-rule="evenodd" clip-rule="evenodd" d="M25.1238 30.7047C25.124 30.809 25.1039 30.9123 25.0646 31.0087C25.0253 31.1051 24.9677 31.1927 24.8949 31.2664C24.8222 31.3402 24.7358 31.3986 24.6407 31.4385C24.5456 31.4783 24.4437 31.4987 24.3408 31.4985H20.7234C20.5157 31.4985 20.3166 31.4148 20.1698 31.266C20.0229 31.1171 19.9404 30.9152 19.9404 30.7047C19.9404 30.4942 20.0229 30.2923 20.1698 30.1434C20.3166 29.9946 20.5157 29.911 20.7234 29.911H24.3408C24.4437 29.9107 24.5456 29.9311 24.6407 29.971C24.7358 30.0108 24.8222 30.0692 24.8949 30.143C24.9677 30.2167 25.0253 30.3043 25.0646 30.4007C25.1039 30.4971 25.124 30.6004 25.1238 30.7047Z" fill="#5CC3B4"/>
<path fill-rule="evenodd" clip-rule="evenodd" d="M43.0505 40.7188C43.0522 40.8229 43.0335 40.9264 42.9957 41.0232C42.9578 41.1201 42.9015 41.2084 42.8299 41.2832C42.7583 41.3579 42.6729 41.4176 42.5785 41.4588C42.4841 41.5001 42.3827 41.522 42.2799 41.5234H18.1001C17.8925 41.5234 17.6933 41.4398 17.5465 41.291C17.3996 41.1421 17.3171 40.9402 17.3171 40.7297C17.3171 40.5192 17.3996 40.3173 17.5465 40.1684C17.6933 40.0196 17.8925 39.9359 18.1001 39.9359H42.2784C42.4823 39.9388 42.6771 40.0222 42.8213 40.1684C42.9655 40.3146 43.0478 40.512 43.0505 40.7188Z" fill="#5CC3B4"/>
<path fill-rule="evenodd" clip-rule="evenodd" d="M15.275 40.7188C15.2766 40.8229 15.258 40.9264 15.2201 41.0232C15.1822 41.1201 15.1259 41.2084 15.0543 41.2832C14.9827 41.3579 14.8973 41.4176 14.8029 41.4588C14.7086 41.5001 14.6071 41.522 14.5043 41.5234H10.5632C10.3556 41.5234 10.1564 41.4398 10.0096 41.291C9.86277 41.1421 9.78027 40.9402 9.78027 40.7297C9.78027 40.5192 9.86277 40.3173 10.0096 40.1684C10.1564 40.0196 10.3556 39.9359 10.5632 39.9359H14.5043C14.708 39.9392 14.9024 40.0227 15.0463 40.1689C15.1902 40.315 15.2722 40.5123 15.275 40.7188Z" fill="#5CC3B4"/>
<path fill-rule="evenodd" clip-rule="evenodd" d="M43.0506 46.5531C43.0522 46.6573 43.0336 46.7608 42.9957 46.8576C42.9579 46.9545 42.9015 47.0428 42.8299 47.1175C42.7584 47.1923 42.6729 47.252 42.5786 47.2932C42.4842 47.3344 42.3827 47.3564 42.28 47.3578H33.0523C32.8446 47.3578 32.6455 47.2742 32.4986 47.1253C32.3518 46.9765 32.2693 46.7746 32.2693 46.5641C32.2693 46.3536 32.3518 46.1517 32.4986 46.0028C32.6455 45.854 32.8446 45.7703 33.0523 45.7703H42.2784C42.4824 45.7732 42.6772 45.8565 42.8214 46.0027C42.9656 46.1489 43.0478 46.3464 43.0506 46.5531Z" fill="#5CC3B4"/>
<path fill-rule="evenodd" clip-rule="evenodd" d="M30.2255 46.5531C30.2271 46.6573 30.2085 46.7608 30.1706 46.8576C30.1328 46.9545 30.0764 47.0428 30.0048 47.1175C29.9333 47.1923 29.8478 47.252 29.7535 47.2932C29.6591 47.3344 29.5576 47.3564 29.4549 47.3578H10.5632C10.3556 47.3578 10.1564 47.2742 10.0096 47.1253C9.86277 46.9765 9.78027 46.7746 9.78027 46.5641C9.78027 46.3536 9.86277 46.1517 10.0096 46.0028C10.1564 45.854 10.3556 45.7703 10.5632 45.7703H29.4549C29.6585 45.7736 29.8529 45.8571 29.9968 46.0033C30.1407 46.1494 30.2227 46.3467 30.2255 46.5531Z" fill="#5CC3B4"/>
<path fill-rule="evenodd" clip-rule="evenodd" d="M9.79111 40.7406C9.78948 40.6365 9.80813 40.533 9.846 40.4362C9.88387 40.3393 9.9402 40.251 10.0118 40.1762C10.0834 40.1015 10.1688 40.0418 10.2632 40.0006C10.3575 39.9593 10.459 39.9374 10.5618 39.9359H14.5044C14.712 39.9359 14.9112 40.0196 15.058 40.1684C15.2049 40.3173 15.2874 40.5192 15.2874 40.7297C15.2874 40.9402 15.2049 41.1421 15.058 41.291C14.9112 41.4398 14.712 41.5234 14.5044 41.5234H10.5633C10.3593 41.521 10.1642 41.4378 10.0199 41.2915C9.87564 41.1452 9.79351 40.9475 9.79111 40.7406Z" fill="#5CC3B4"/>
<path fill-rule="evenodd" clip-rule="evenodd" d="M30.2255 46.5531C30.2271 46.6573 30.2085 46.7608 30.1706 46.8576C30.1328 46.9545 30.0764 47.0428 30.0048 47.1175C29.9333 47.1923 29.8478 47.252 29.7535 47.2932C29.6591 47.3344 29.5576 47.3564 29.4549 47.3578H10.5632C10.3556 47.3578 10.1564 47.2742 10.0096 47.1253C9.86277 46.9765 9.78027 46.7746 9.78027 46.5641C9.78027 46.3536 9.86277 46.1517 10.0096 46.0028C10.1564 45.854 10.3556 45.7703 10.5632 45.7703H29.4549C29.6585 45.7736 29.8529 45.8571 29.9968 46.0033C30.1407 46.1494 30.2227 46.3467 30.2255 46.5531Z" fill="#5CC3B4"/>
<path fill-rule="evenodd" clip-rule="evenodd" d="M25.1238 30.7047C25.124 30.809 25.1039 30.9123 25.0646 31.0087C25.0253 31.1051 24.9677 31.1927 24.8949 31.2664C24.8222 31.3402 24.7358 31.3986 24.6407 31.4385C24.5456 31.4783 24.4437 31.4987 24.3408 31.4985H20.7234C20.5157 31.4985 20.3166 31.4148 20.1698 31.266C20.0229 31.1171 19.9404 30.9152 19.9404 30.7047C19.9404 30.4942 20.0229 30.2923 20.1698 30.1434C20.3166 29.9946 20.5157 29.911 20.7234 29.911H24.3408C24.4437 29.9107 24.5456 29.9311 24.6407 29.971C24.7358 30.0108 24.8222 30.0692 24.8949 30.143C24.9677 30.2167 25.0253 30.3043 25.0646 30.4007C25.1039 30.4971 25.124 30.6004 25.1238 30.7047Z" fill="#5CC3B4"/>
<path fill-rule="evenodd" clip-rule="evenodd" d="M34.6722 15.7156H18.1695C17.7473 15.7165 17.3425 15.887 17.0441 16.1899C16.7456 16.4927 16.5778 16.9032 16.5774 17.3313V34.0625C16.5786 34.4902 16.7467 34.9 17.0451 35.2025C17.3434 35.5049 17.7477 35.6753 18.1695 35.6766H34.6722C35.0937 35.6741 35.4972 35.5033 35.7953 35.2011C36.0934 34.8989 36.2619 34.4898 36.2643 34.0625V17.3313C36.2627 16.9035 36.0945 16.4938 35.7963 16.1912C35.4981 15.8886 35.0941 15.7177 34.6722 15.7156ZM25.0514 17.3047H27.7903V21.3172L26.8655 20.6297C26.7294 20.5302 26.5653 20.4775 26.3975 20.4795C26.2297 20.4814 26.0669 20.5379 25.933 20.6406L25.0591 21.2844L25.0514 17.3047ZM34.6953 34.0625C34.6945 34.0685 34.6915 34.0739 34.6869 34.0776C34.6823 34.0814 34.6765 34.0833 34.6706 34.0828H18.1665C18.1602 34.082 18.1545 34.0788 18.1505 34.0739C18.1464 34.069 18.1444 34.0626 18.1449 34.0563V17.3313C18.1449 17.3245 18.1474 17.3179 18.152 17.313C18.1566 17.3081 18.1629 17.3051 18.1695 17.3047H23.4839V22.8422C23.4852 22.9869 23.5255 23.1285 23.6005 23.2516C23.6754 23.3748 23.7821 23.4748 23.9091 23.5409C24.036 23.607 24.1784 23.6367 24.3208 23.6268C24.4632 23.6168 24.6002 23.5676 24.717 23.4844L26.3893 22.2531L28.0708 23.4906C28.1863 23.5856 28.326 23.6452 28.4736 23.6626C28.6213 23.68 28.7708 23.6545 28.9047 23.5889C29.0385 23.5234 29.1512 23.4205 29.2295 23.2925C29.3079 23.1644 29.3486 23.0163 29.347 22.8656V17.3047H34.6629C34.6696 17.3051 34.6759 17.3081 34.6805 17.313C34.685 17.3179 34.6876 17.3245 34.6876 17.3313L34.6953 34.0625Z" fill="#10112F"/>
<path fill-rule="evenodd" clip-rule="evenodd" d="M18.1017 39.9359H42.2784C42.486 39.9359 42.6852 40.0196 42.832 40.1684C42.9788 40.3173 43.0613 40.5192 43.0613 40.7297C43.0613 40.9402 42.9788 41.1421 42.832 41.291C42.6852 41.4398 42.486 41.5234 42.2784 41.5234H18.1001C17.8925 41.5234 17.6933 41.4398 17.5465 41.291C17.3996 41.1421 17.3171 40.9402 17.3171 40.7297C17.3171 40.5192 17.3996 40.3173 17.5465 40.1684C17.6933 40.0196 17.8925 39.9359 18.1001 39.9359H18.1017Z" fill="#5CC3B4"/>
<path fill-rule="evenodd" clip-rule="evenodd" d="M43.0506 46.5531C43.0522 46.6573 43.0336 46.7608 42.9957 46.8576C42.9579 46.9545 42.9015 47.0428 42.8299 47.1175C42.7584 47.1923 42.6729 47.252 42.5786 47.2932C42.4842 47.3344 42.3827 47.3564 42.28 47.3578H33.0523C32.8446 47.3578 32.6455 47.2742 32.4986 47.1253C32.3518 46.9765 32.2693 46.7746 32.2693 46.5641C32.2693 46.3536 32.3518 46.1517 32.4986 46.0028C32.6455 45.854 32.8446 45.7703 33.0523 45.7703H42.2784C42.4824 45.7732 42.6772 45.8565 42.8214 46.0027C42.9656 46.1489 43.0478 46.3464 43.0506 46.5531Z" fill="#5CC3B4"/>
</g>
<defs>
<clipPath id="clip0_8_316">
<rect width="62" height="75" fill="white" transform="translate(-0.00390625)"/>
</clipPath>
</defs>
</svg>
