<svg width="76" height="75" viewBox="0 0 76 75" fill="none" xmlns="http://www.w3.org/2000/svg">
<g clip-path="url(#clip0_8_134)">
<path d="M2.70825 13.7637C3.31514 13.7637 3.80688 13.2718 3.80688 12.665V3.85693C3.80688 2.94185 4.55146 2.19727 5.46655 2.19727H59.9645C60.8795 2.19727 61.6241 2.94185 61.6241 3.85693V30.7866C61.6241 31.3934 62.1159 31.8853 62.7228 31.8853C63.3296 31.8853 63.8214 31.3934 63.8214 30.7866V3.85693C63.8214 1.73013 62.0911 0 59.9645 0H5.46655C3.33989 0 1.60962 1.73027 1.60962 3.85693V12.665C1.60962 13.2718 2.10151 13.7637 2.70825 13.7637Z" fill="#10112F"/>
<path d="M60.3579 50.1728C60.3579 47.0291 57.7997 44.4716 54.6553 44.4716C51.5116 44.4716 48.9541 47.0291 48.9541 50.1728C48.9541 53.3172 51.5116 55.8754 54.6553 55.8754C57.7997 55.8754 60.3579 53.3172 60.3579 50.1728ZM51.1514 50.1728C51.1514 48.2407 52.7231 46.6689 54.6553 46.6689C56.5881 46.6689 58.1606 48.2407 58.1606 50.1728C58.1606 52.1057 56.5883 53.6782 54.6553 53.6782C52.7233 53.6782 51.1514 52.1057 51.1514 50.1728Z" fill="#5CC3B4"/>
<path d="M70.51 62.2559H63.8208V60.4967C65.1951 60.9873 66.7701 60.4444 67.5248 59.1369L68.853 56.8349C69.2649 56.1224 69.3745 55.292 69.1613 54.4966C68.9483 53.7018 68.4387 53.0372 67.7262 52.6254L66.5221 51.9297C66.6085 51.3464 66.6522 50.7582 66.6522 50.1724C66.6522 49.5866 66.6085 48.9983 66.5221 48.415L67.7265 47.7192C69.1968 46.8693 69.7021 44.9813 68.8533 43.5105L67.5247 41.2077C66.7701 39.9006 65.1961 39.3574 63.8214 39.8477V35.9106C63.8214 35.3039 63.3296 34.812 62.7228 34.812C62.1159 34.812 61.6241 35.3039 61.6241 35.9106V40.408C60.8315 39.8402 59.9769 39.373 59.0658 39.0138V37.626C59.0658 35.9273 57.6838 34.5454 55.9853 34.5454H53.3252C51.6266 34.5454 50.2446 35.9273 50.2446 37.626V39.0138C49.1439 39.4477 48.1244 40.0368 47.1991 40.7736L45.9953 40.0781C44.5229 39.2309 42.6355 39.7378 41.7874 41.2074L40.457 43.5105C39.6083 44.9814 40.1138 46.8694 41.5843 47.7196L42.7896 48.4154C42.7032 48.9989 42.6595 49.5873 42.6595 50.1725C42.6595 50.7577 42.7032 51.346 42.7896 51.9296L41.5839 52.6257C40.1129 53.476 39.6075 55.3644 40.4574 56.8348L41.7872 59.1372C42.6358 60.6072 44.5235 61.114 45.9969 60.2659L47.1991 59.5712C48.1243 60.3079 49.1441 60.8972 50.2446 61.3311V62.2559H16.0134C13.8859 62.2559 12.1549 63.9861 12.1549 66.1135L12.1565 68.543C12.1565 70.8318 10.335 72.7422 8.09082 72.8019C8.05552 72.803 8.01992 72.8027 7.98286 72.8027C6.86724 72.8016 5.81855 72.3674 5.03047 71.5805C4.2415 70.7915 3.80688 69.743 3.80688 68.6279V17.7891C3.80688 17.1823 3.31514 16.6904 2.70825 16.6904C2.10137 16.6904 1.60962 17.1823 1.60962 17.7891V68.6279C1.60962 70.3299 2.27275 71.9303 3.47729 73.1348C4.68022 74.3358 6.27939 74.9982 7.98462 75H32.9236C33.5305 75 34.0222 74.5081 34.0222 73.9014C34.0222 73.2946 33.5305 72.8027 32.9236 72.8027H12.75C13.7461 71.6597 14.3538 70.1637 14.3538 68.5422L14.3521 66.1128C14.3521 65.1976 15.0975 64.4531 16.0134 64.4531H70.5099C71.4249 64.4531 72.1695 65.1977 72.1695 66.1128V68.6279C72.1695 69.7425 71.7352 70.7914 70.9479 71.58C70.1582 72.3686 69.1095 72.8027 67.9947 72.8027H38.0504C37.4435 72.8027 36.9518 73.2946 36.9518 73.9014C36.9518 74.5081 37.4435 75 38.0504 75H67.9947C69.6957 75 71.2959 74.3376 72.5018 73.1336C73.7045 71.929 74.3668 70.3289 74.3668 68.6279V66.1128C74.3669 63.9861 72.6367 62.2559 70.51 62.2559ZM61.6235 62.2559H59.0659V61.331C59.9768 60.9719 60.8312 60.5048 61.6235 59.9373V62.2559ZM51.6772 59.51C50.3256 59.0788 49.1091 58.3756 48.0608 57.4201C47.7075 57.0979 47.1856 57.0412 46.771 57.2808L44.8991 58.3624C44.4759 58.6059 43.9338 58.4607 43.6899 58.0386L42.3597 55.7355C42.1159 55.3138 42.2612 54.7721 42.683 54.5282L44.558 53.4457C44.9716 53.2069 45.1836 52.7281 45.0822 52.2612C44.9327 51.572 44.8568 50.8693 44.8568 50.1725C44.8568 49.4757 44.9327 48.773 45.0822 48.0838C45.1836 47.6169 44.9716 47.1381 44.558 46.8993L42.6835 45.8171C42.2615 45.5732 42.1165 45.0312 42.3598 44.6092L43.6902 42.3062C43.9336 41.8843 44.4761 41.7391 44.8975 41.9817L46.771 43.0642C47.1852 43.3037 47.7072 43.2472 48.0608 42.9249C49.1089 41.9694 50.3256 41.2663 51.6772 40.835C52.1327 40.6897 52.4419 40.2665 52.4419 39.7884V37.6263C52.4419 37.1392 52.8381 36.743 53.3252 36.743H55.9853C56.4723 36.743 56.8685 37.1392 56.8685 37.6263V39.7884C56.8685 40.2665 57.1776 40.6897 57.6332 40.835C58.9848 41.2663 60.2013 41.9694 61.2496 42.9249C61.603 43.2473 62.1251 43.3037 62.5395 43.0642L64.4133 41.9824C64.8364 41.7388 65.3781 41.8841 65.6217 42.3062L66.9504 44.609C67.194 45.0312 67.049 45.5732 66.6272 45.8171L64.7536 46.8996C64.3401 47.1385 64.1281 47.6174 64.2296 48.0841C64.3792 48.7726 64.4551 49.4752 64.4551 50.1727C64.4551 50.8701 64.3792 51.5728 64.2296 52.2612C64.1283 52.7281 64.3401 53.2068 64.7536 53.4457L66.6269 54.5281C66.8314 54.6463 66.9778 54.8372 67.0389 55.0655C67.1 55.2936 67.0686 55.5315 66.9503 55.7364L65.6217 58.039C65.3782 58.4612 64.8362 58.6066 64.4138 58.3632L62.5395 57.2811C62.1251 57.0415 61.603 57.098 61.2496 57.4204C60.2015 58.3759 58.9848 59.0791 57.6332 59.5103C57.1777 59.6556 56.8685 60.0788 56.8685 60.5569V62.2559H52.4417V60.5566C52.4419 60.0785 52.1328 59.6553 51.6772 59.51Z" fill="#10112F"/>
<path d="M35.318 16.5261C36.1757 16.0499 36.7086 15.1356 36.7086 14.1401V7.72852C36.7086 7.12178 36.2169 6.62988 35.61 6.62988C35.0031 6.62988 34.5114 7.12178 34.5114 7.72852V14.1401C34.5114 14.3379 34.4117 14.516 34.2516 14.6049C33.9664 14.7631 33.5958 14.4356 33.5547 14.3977C33.107 13.9879 32.4121 14.0186 32.0024 14.4662C31.5927 14.9137 31.6234 15.6086 32.0709 16.0184C32.5561 16.4624 33.292 16.847 34.0968 16.847C34.4942 16.8472 34.9089 16.7531 35.318 16.5261Z" fill="#10112F"/>
<path d="M42.801 8.90039C43.4079 8.90039 43.8997 8.4085 43.8997 7.80176C43.8997 7.19502 43.4079 6.70312 42.801 6.70312H39.4517C38.8448 6.70312 38.353 7.19502 38.353 7.80176V15.7507C38.353 16.3575 38.8448 16.8494 39.4517 16.8494H42.801C43.4079 16.8494 43.8997 16.3575 43.8997 15.7507C43.8997 15.144 43.4079 14.6521 42.801 14.6521H40.5503V12.8748H42.5541C43.1609 12.8748 43.6527 12.3829 43.6527 11.7762C43.6527 11.1694 43.1609 10.6775 42.5541 10.6775H40.5503V8.90039H42.801Z" fill="#10112F"/>
<path d="M49.5086 8.82715C50.0924 8.82715 50.6552 8.99898 51.1362 9.32388C51.639 9.66357 52.3219 9.5313 52.6616 9.02856C53.0011 8.52583 52.869 7.84292 52.3661 7.50322C51.5206 6.93193 50.5323 6.62988 49.5085 6.62988C46.691 6.62988 44.3987 8.92207 44.3987 11.7397C44.3987 14.5573 46.6909 16.8495 49.5085 16.8495C50.6372 16.8495 51.651 16.4779 52.4408 15.7748C52.5957 15.6369 52.7426 15.4853 52.8773 15.3243C53.2671 14.8592 53.2061 14.1664 52.741 13.7766C52.276 13.3869 51.583 13.4479 51.1934 13.9129C51.1267 13.9925 51.0546 14.067 50.9793 14.134C50.5931 14.4779 50.0981 14.6522 49.5085 14.6522C47.9024 14.6522 46.5959 13.3458 46.5959 11.7397C46.5959 10.1336 47.9027 8.82715 49.5086 8.82715Z" fill="#10112F"/>
<path d="M60.3913 7.72852C60.3913 7.12178 59.8996 6.62988 59.2927 6.62988H54.8624C54.2555 6.62988 53.7638 7.12178 53.7638 7.72852C53.7638 8.33525 54.2555 8.82715 54.8624 8.82715H55.9701V15.7507C55.9701 16.3575 56.4619 16.8494 57.0688 16.8494C57.6757 16.8494 58.1674 16.3575 58.1674 15.7507V8.82715H59.2928C59.8996 8.82715 60.3913 8.33525 60.3913 7.72852Z" fill="#10112F"/>
<path d="M14.0735 15.7507C14.0735 16.3575 14.5652 16.8494 15.1721 16.8494C15.779 16.8494 16.2708 16.3575 16.2708 15.7507V13.7339L18.6847 16.4766C18.9018 16.7234 19.2051 16.8494 19.5098 16.8494C19.7676 16.8494 20.0265 16.7591 20.2352 16.5754C20.6906 16.1745 20.7349 15.4803 20.3341 15.0249L18.3927 12.8191C19.6811 12.385 20.6082 11.202 20.6082 9.81343C20.6082 8.05796 19.1272 6.62988 17.3067 6.62988H15.1749C14.883 6.62988 14.6029 6.74605 14.3968 6.95288C14.1907 7.15972 14.0754 7.44009 14.0763 7.73203C14.0761 7.73218 14.0735 15.7507 14.0735 15.7507ZM17.3065 8.82715C17.9051 8.82715 18.4107 9.27876 18.4107 9.81343C18.4107 10.3481 17.9051 10.7997 17.3065 10.7997C17.0648 10.7997 16.6679 10.8012 16.2822 10.8031C16.2803 10.4285 16.2779 9.22046 16.2768 8.82715H17.3065Z" fill="#10112F"/>
<path d="M6.21167 15.7507C6.21167 16.3575 6.70342 16.8494 7.31031 16.8494C7.91719 16.8494 8.40894 16.3575 8.40894 15.7507V13.3588C8.8314 13.3567 9.27803 13.3548 9.54405 13.3548C11.4226 13.3548 12.9508 11.8463 12.9508 9.99229C12.9508 8.13823 11.4227 6.62988 9.54405 6.62988H7.31031C7.01836 6.62988 6.73843 6.74605 6.53218 6.95288C6.32608 7.15957 6.2108 7.43994 6.21167 7.73189V15.7507ZM9.54405 8.82715C10.1997 8.82715 10.7536 9.36079 10.7536 9.99243C10.7536 10.6241 10.1997 11.1577 9.54405 11.1577C9.27979 11.1577 8.83858 11.1595 8.41832 11.1617C8.41612 10.7259 8.41319 9.28418 8.41202 8.8273H9.54405V8.82715Z" fill="#10112F"/>
<path d="M31.5008 11.7395C31.5008 8.92206 29.2086 6.62973 26.3909 6.62973C23.5733 6.62973 21.2811 8.92192 21.2811 11.7395C21.2811 14.5572 23.5733 16.8494 26.3909 16.8494C29.2086 16.8494 31.5008 14.5572 31.5008 11.7395ZM23.4784 11.7395C23.4784 10.1336 24.7849 8.827 26.3909 8.827C27.997 8.827 29.3035 10.1335 29.3035 11.7395C29.3035 13.3456 27.997 14.6521 26.3909 14.6521C24.7849 14.6521 23.4784 13.3456 23.4784 11.7395Z" fill="#10112F"/>
<path d="M8.67358 20.1476C8.67358 20.7544 9.16533 21.2462 9.77222 21.2462H55.659C56.2659 21.2462 56.7577 20.7544 56.7577 20.1476C56.7577 19.5409 56.2659 19.049 55.659 19.049H9.77222C9.16533 19.049 8.67358 19.5407 8.67358 20.1476Z" fill="#5CC3B4"/>
<path d="M29.1839 24.0176H10.8123C8.50283 24.0176 6.62402 25.8965 6.62402 28.206V38.1015C6.62402 40.4109 8.50283 42.2899 10.8123 42.2899H29.1838C31.4934 42.2899 33.3722 40.4109 33.3722 38.1015V28.206C33.3722 25.8964 31.4934 24.0176 29.1839 24.0176ZM31.175 38.1015C31.175 39.1994 30.2817 40.0926 29.1838 40.0926H10.8123C9.71455 40.0926 8.82129 39.1994 8.82129 38.1015V28.206C8.82129 27.1081 9.71455 26.2148 10.8123 26.2148H29.1838C30.2817 26.2148 31.175 27.1081 31.175 28.206V38.1015Z" fill="#10112F"/>
<path d="M58.7999 29.3542C58.7999 28.7474 58.3081 28.2555 57.7012 28.2555H37.2422C36.6353 28.2555 36.1436 28.7474 36.1436 29.3542C36.1436 29.9609 36.6353 30.4528 37.2422 30.4528H57.7012C58.3081 30.4528 58.7999 29.9609 58.7999 29.3542Z" fill="#5CC3B4"/>
<path d="M50.9086 33.5921C50.9086 32.9854 50.4168 32.4935 49.81 32.4935H37.2422C36.6353 32.4935 36.1436 32.9854 36.1436 33.5921C36.1436 34.1988 36.6353 34.6907 37.2422 34.6907H49.81C50.4168 34.6907 50.9086 34.1988 50.9086 33.5921Z" fill="#5CC3B4"/>
<path d="M6.62427 46.1597C6.62427 46.7665 7.11602 47.2584 7.7229 47.2584H37.2424C37.8493 47.2584 38.3411 46.7665 38.3411 46.1597C38.3411 45.553 37.8493 45.0611 37.2424 45.0611H7.7229C7.11602 45.0611 6.62427 45.553 6.62427 46.1597Z" fill="#5CC3B4"/>
<path d="M38.3409 54.6357C38.3409 54.029 37.8492 53.5371 37.2423 53.5371H7.7229C7.11602 53.5371 6.62427 54.029 6.62427 54.6357C6.62427 55.2425 7.11602 55.7344 7.7229 55.7344H37.2424C37.8492 55.7344 38.3409 55.2425 38.3409 54.6357Z" fill="#5CC3B4"/>
<path d="M7.7229 57.8965C7.11602 57.8965 6.62427 58.3884 6.62427 58.9951C6.62427 59.6019 7.11602 60.0938 7.7229 60.0938H21.8982C22.5051 60.0938 22.9968 59.6019 22.9968 58.9951C22.9968 58.3884 22.5051 57.8965 21.8982 57.8965H7.7229Z" fill="#5CC3B4"/>
<path d="M40.2407 50.3978C40.2407 49.7911 39.7489 49.2992 39.142 49.2992H7.7229C7.11602 49.2992 6.62427 49.7911 6.62427 50.3978C6.62427 51.0045 7.11602 51.4964 7.7229 51.4964H39.142C39.7489 51.4964 40.2407 51.0045 40.2407 50.3978Z" fill="#5CC3B4"/>
<path d="M18.3369 32.2012H11.4844C10.8775 32.2012 10.3857 32.6931 10.3857 33.2999V37.684C10.3857 38.2907 10.8775 38.7826 11.4844 38.7826H18.3368C18.9437 38.7826 19.4354 38.2907 19.4354 37.684V33.2999C19.4355 32.6931 18.9437 32.2012 18.3369 32.2012ZM17.2383 36.5852H12.583V34.3984H17.2381L17.2383 36.5852Z" fill="#5CC3B4"/>
<path d="M28.5121 28.1581H21.6597C21.0528 28.1581 20.561 28.65 20.561 29.2567V37.684C20.561 38.2907 21.0528 38.7826 21.6597 38.7826H28.5121C29.1189 38.7826 29.6107 38.2907 29.6107 37.684V29.2567C29.6107 28.65 29.1188 28.1581 28.5121 28.1581ZM27.4134 36.5852H22.7583V30.3552H27.4134V36.5852Z" fill="#5CC3B4"/>
</g>
<defs>
<clipPath id="clip0_8_134">
<rect width="75" height="75" fill="white" transform="translate(0.488281)"/>
</clipPath>
</defs>
</svg>
