<svg width="80" height="81" viewBox="0 0 80 81" fill="none" xmlns="http://www.w3.org/2000/svg">
<path d="M72.5082 37.0667L77.7571 34.2541L74.2118 23.3295L68.3281 24.1427L64.2907 18.5792L66.9102 13.1619L57.6474 6.41943L53.3175 10.5805L46.7707 8.4495L45.7106 2.53125H34.2701L33.21 8.44958L26.663 10.5805L22.3333 6.41951L13.0705 13.1621L15.69 18.5793L11.6526 24.1427L5.7687 23.3296L2.22363 34.2542L7.47235 37.0668V43.9333L2.22363 46.7459L5.76886 57.6705L11.6526 56.8573L15.69 62.4208L13.0703 67.8381L22.3333 74.5806L26.6632 70.4195L33.21 72.5505L34.2701 78.4688H45.7106L46.7707 72.5504L53.3177 70.4195L57.6474 74.5805L66.9102 67.8379L64.2907 62.4207L68.3281 56.8573L74.212 57.6704L77.7571 46.7458L72.5084 43.9332L72.5082 37.0667ZM72.4868 54.8773L67.1934 54.1457L61.3797 62.1571L63.7364 67.0307L57.868 71.3024L53.9637 67.5503L44.5784 70.6052L43.6232 75.9375H36.3575L35.4023 70.6053L26.0171 67.5503L22.1127 71.3026L16.2442 67.0309L18.601 62.1572L12.7873 54.1458L7.49402 54.8774L5.25707 47.9844L9.97234 45.4575V35.5426L5.25707 33.0158L7.49386 26.1227L12.7873 26.8543L18.601 18.8429L16.2443 13.9693L22.1127 9.69759L26.017 13.4497L35.4023 10.3948L36.3575 5.0625H43.6232L44.5784 10.3947L53.9636 13.4497L57.868 9.69743L63.7364 13.9692L61.3797 18.8428L67.1934 26.8542L72.4867 26.1226L74.7236 33.0156L70.0082 35.5425L70.0084 45.4574L74.7236 47.9842L72.4868 54.8773Z" fill="#10112F"/>
<path d="M39.9902 13.9219C25.5159 13.9219 13.7402 25.8447 13.7402 40.5C13.7402 55.1553 25.5159 67.0781 39.9902 67.0781C54.4646 67.0781 66.2402 55.1553 66.2402 40.5C66.2402 25.8447 54.4646 13.9219 39.9902 13.9219ZM16.2402 40.5C16.2399 38.7982 16.418 37.1012 16.7715 35.4375H26.4548C26.9474 35.4388 27.4355 35.3413 27.8906 35.1504C28.3458 34.9595 28.759 34.6791 29.1064 34.3254L31.3919 32.0113C31.5077 31.8934 31.6454 31.8 31.7971 31.7363C31.9488 31.6727 32.1115 31.6402 32.2757 31.6406H36.9725L33.4813 35.1754C32.7496 35.9162 32.3385 36.921 32.3385 37.9688C32.3385 39.0165 32.7496 40.0213 33.4813 40.7621C34.213 41.503 35.2054 41.9192 36.2401 41.9192C37.2749 41.9192 38.2673 41.503 38.999 40.7622L39.8387 39.9122C40.1869 39.5596 40.6003 39.2799 41.0552 39.0891C41.5102 38.8983 41.9978 38.8001 42.4902 38.8001C42.9827 38.8001 43.4703 38.8983 43.9252 39.0891C44.3802 39.2799 44.7936 39.5596 45.1418 39.9122L51.3901 46.2385C51.2056 46.3681 51.0329 46.5141 50.874 46.6746L48.7402 48.8351L42.1242 42.1363L40.3563 43.9262L45.7224 49.3594H40.508L37.1242 45.9332L35.3563 47.723L36.9724 49.3594H32.2757C32.1115 49.3598 31.9488 49.3273 31.7971 49.2637C31.6454 49.2 31.5077 49.1066 31.3919 48.9887L29.1065 46.6746C28.759 46.3209 28.3458 46.0405 27.8906 45.8496C27.4355 45.6587 26.9474 45.5611 26.4548 45.5625H16.7715C16.418 43.8988 16.2399 42.2018 16.2402 40.5ZM39.9902 64.5469C29.5142 64.5469 20.6017 57.6433 17.4546 48.0938H26.4548C26.619 48.0933 26.7816 48.1258 26.9334 48.1894C27.0851 48.2531 27.2228 48.3466 27.3386 48.4645L29.624 50.7785C29.9714 51.1322 30.3847 51.4126 30.8398 51.6035C31.295 51.7944 31.783 51.892 32.2757 51.8906H47.7048C48.1974 51.892 48.6855 51.7944 49.1406 51.6035C49.5958 51.4126 50.009 51.1322 50.3565 50.7785L52.6419 48.4645C52.7577 48.3466 52.8954 48.2531 53.0471 48.1894C53.1988 48.1258 53.3615 48.0933 53.5257 48.0938H62.5258C59.3788 57.6433 50.4663 64.5469 39.9902 64.5469ZM63.7402 40.5C63.7406 42.2018 63.5625 43.8988 63.2089 45.5625H54.258L46.9096 38.1223C46.3293 37.5347 45.6403 37.0686 44.8821 36.7506C44.1238 36.4325 43.3111 36.2688 42.4903 36.2688C41.6696 36.2688 40.8569 36.4325 40.0986 36.7505C39.3403 37.0685 38.6513 37.5346 38.071 38.1222L37.2313 38.9723C36.9684 39.2381 36.612 39.3873 36.2404 39.3872C35.8688 39.387 35.5125 39.2375 35.2498 38.9715C34.9871 38.7055 34.8394 38.3447 34.8393 37.9685C34.8392 37.5923 34.9866 37.2314 35.2492 36.9652L40.508 31.6406H47.7048C47.869 31.6402 48.0316 31.6727 48.1833 31.7363C48.3351 31.8 48.4728 31.8934 48.5886 32.0113L50.874 34.3254C51.2214 34.6791 51.6347 34.9595 52.0898 35.1504C52.545 35.3413 53.033 35.4389 53.5257 35.4375H63.2089C63.5625 37.1012 63.7406 38.7982 63.7402 40.5ZM53.5257 32.9062C53.3615 32.9067 53.1988 32.8742 53.0471 32.8105C52.8954 32.7469 52.7577 32.6534 52.6419 32.5355L50.3564 30.2215C50.009 29.8678 49.5958 29.5874 49.1406 29.3965C48.6855 29.2056 48.1974 29.108 47.7048 29.1094H32.2757C31.783 29.108 31.295 29.2056 30.8398 29.3965C30.3847 29.5874 29.9714 29.8678 29.624 30.2215L27.3386 32.5355C27.2228 32.6534 27.0851 32.7469 26.9334 32.8106C26.7816 32.8742 26.619 32.9067 26.4548 32.9062H17.4546C20.6017 23.3567 29.5142 16.4531 39.9902 16.4531C50.4663 16.4531 59.3788 23.3567 62.5258 32.9062H53.5257Z" fill="#10112F"/>
<path d="M39.9904 59.4844C36.6997 59.4777 33.4682 58.5976 30.6183 56.9319C27.7683 55.2662 25.3995 52.8732 23.748 49.9913L21.584 51.2588C24.4039 56.1996 29.0459 59.8047 34.4897 61.2818C39.9336 62.759 45.734 61.9873 50.6163 59.1364L49.3644 56.9454C46.5141 58.6103 43.281 59.486 39.9904 59.4844Z" fill="#5CC3B4"/>
<path d="M51.7085 55.321L53.2722 57.2961C54.0328 56.6784 54.751 56.0088 55.4216 55.2921L53.6064 53.5517C53.0142 54.1845 52.3801 54.7757 51.7085 55.321Z" fill="#5CC3B4"/>
<path d="M39.9903 18.9844C36.7683 18.9756 33.5874 19.7158 30.6926 21.148L31.7879 23.4234C34.3418 22.1603 37.148 21.5076 39.9903 21.5156C43.2809 21.5223 46.5124 22.4024 49.3623 24.0681C52.2123 25.7338 54.5811 28.1268 56.2326 31.0087L58.3966 29.7412C56.525 26.4756 53.8405 23.7638 50.6108 21.8764C47.3812 19.989 43.7193 18.9918 39.9903 18.9844Z" fill="#5CC3B4"/>
<path d="M25.3809 24.8759L27.0999 26.7136C27.8299 26.0139 28.6138 25.3743 29.4443 24.8009L28.0365 22.7092C27.0957 23.3587 26.2077 24.0832 25.3809 24.8759Z" fill="#5CC3B4"/>
</svg>
