<svg width="78" height="79" viewBox="0 0 78 79" fill="none" xmlns="http://www.w3.org/2000/svg">
<g clip-path="url(#clip0_23_75)">
<path d="M72.9597 52.936C72.3283 52.936 71.8171 53.4478 71.8171 54.0786V72.2944H48.2657V50.6705C48.2657 49.2 47.0695 48.0039 45.5997 48.0039H32.4005C30.9306 48.0039 29.7345 49.2006 29.7345 50.6705V72.2944H6.18311V54.0786C6.18311 53.4478 5.67192 52.936 5.04053 52.936C4.40913 52.936 3.89795 53.4478 3.89795 54.0786V72.8276C3.89795 73.7934 4.68407 74.5795 5.6499 74.5795H72.3503C73.3161 74.5795 74.1022 73.7934 74.1022 72.8276V54.0786C74.1022 53.4478 73.591 52.936 72.9597 52.936ZM32.0197 72.2944V50.6705C32.0197 50.4604 32.1904 50.289 32.4005 50.289H45.5997C45.8097 50.289 45.9805 50.4604 45.9805 50.6705V72.2944H32.0197Z" fill="#10112F"/>
<path d="M67.5317 67.78C68.8731 67.78 69.9645 66.6886 69.9645 65.3473V52.8789C69.9645 51.5375 68.8731 50.4467 67.5317 50.4467H53.3917C52.0504 50.4467 50.959 51.5375 50.959 52.8789V65.3473C50.959 66.6886 52.0504 67.78 53.3917 67.78H67.5317ZM53.2441 65.3473V52.8789C53.2441 52.7979 53.3102 52.7319 53.3917 52.7319H67.5317C67.6133 52.7319 67.6793 52.7979 67.6793 52.8789V65.3473C67.6793 65.4288 67.6133 65.4948 67.5317 65.4948H53.3917C53.3102 65.4948 53.2441 65.4288 53.2441 65.3473Z" fill="#10112F"/>
<path d="M24.6084 67.78C25.9497 67.78 27.0411 66.6886 27.0411 65.3473V52.8789C27.0411 51.5375 25.9497 50.4467 24.6084 50.4467H10.4684C9.12704 50.4467 8.03564 51.5375 8.03564 52.8789V65.3473C8.03564 66.6886 9.12704 67.78 10.4684 67.78H24.6084ZM10.3208 65.3473V52.8789C10.3208 52.7979 10.3869 52.7319 10.4684 52.7319H24.6084C24.6899 52.7319 24.756 52.7979 24.756 52.8789V65.3473C24.756 65.4288 24.6899 65.4948 24.6084 65.4948H10.4684C10.3869 65.4948 10.3208 65.4288 10.3208 65.3473Z" fill="#10112F"/>
<path d="M74.6425 22.2197C74.6425 20.9992 75.6357 20.0065 76.8574 20.0065C77.4888 20.0065 78 19.4948 78 18.864V16.0682C78 15.4374 77.4888 14.9256 76.8574 14.9256H57.996C57.3646 14.9256 56.8534 15.4374 56.8534 16.0682C56.8534 16.6996 57.3646 17.2108 57.996 17.2108H75.7148V17.8684C74.1503 18.279 72.9155 19.5132 72.5043 21.0771H54.5295V10.9344C54.5295 7.86903 52.0355 5.375 48.9702 5.375H29.0304C25.9645 5.375 23.4711 7.86903 23.4711 10.9344V14.9256H1.14258C0.511185 14.9256 0 15.4374 0 16.0682V18.864C0 19.4948 0.511185 20.0065 1.14258 20.0065C2.3643 20.0065 3.35751 20.9992 3.35751 22.2197C3.35751 22.6321 3.57591 22.9933 3.90321 23.1945V30.9985H1.84717C0.880737 30.9985 0.0946198 31.7846 0.0946198 32.7505V38.9721C0.0946198 39.938 0.880737 40.7241 1.84717 40.7241H3.90321V49.5166C3.90321 50.1474 4.4144 50.6592 5.04579 50.6592C5.67719 50.6592 6.18837 50.1474 6.18837 49.5166V40.7241H71.9062V49.5184C71.9062 50.1492 72.4174 50.661 73.0488 50.661C73.6796 50.661 74.1914 50.1492 74.1914 49.5184V40.7241H76.2475C77.2139 40.7241 78 39.938 78 38.9721V32.7505C78 31.7846 77.2139 30.9985 76.2475 30.9985H74.1914V23.1296C74.4651 22.9207 74.6425 22.591 74.6425 22.2197ZM25.7556 10.9344C25.7556 9.12884 27.2249 7.66016 29.0298 7.66016H48.9696C50.7751 7.66016 52.2438 9.12884 52.2438 10.9344V23.401C52.2438 25.2065 50.7751 26.6752 48.9696 26.6752H29.0304C27.2249 26.6752 25.7562 25.2065 25.7562 23.401V10.9344H25.7556ZM75.7148 38.4389H2.37978V33.2837H75.7148V38.4389ZM6.18837 30.9985V23.3623H20.0439C20.6753 23.3623 21.1865 22.8511 21.1865 22.2197C21.1865 21.5889 20.6753 21.0771 20.0439 21.0771H5.49568C5.08447 19.5132 3.84966 18.279 2.28516 17.8684V17.2108H23.4705V23.4015C23.4705 26.4669 25.9645 28.9609 29.0298 28.9609H48.9696C52.0355 28.9609 54.5289 26.4669 54.5289 23.4015V23.3629H71.9057V30.9985H6.18837Z" fill="#10112F"/>
<path d="M34.582 60.1491H33.668C33.0366 60.1491 32.5254 60.6609 32.5254 61.2917C32.5254 61.9225 33.0366 62.4343 33.668 62.4343H34.582C35.2134 62.4343 35.7246 61.9225 35.7246 61.2917C35.7246 60.6609 35.2134 60.1491 34.582 60.1491Z" fill="#10112F"/>
<path d="M30.8158 12.2204H32.2161L33.6526 19.0877C33.9311 20.4184 35.1201 21.3848 36.4799 21.3848H43.2646C44.4589 21.3848 45.545 20.6338 45.9669 19.5168L48.2074 13.5855C48.4204 13.0208 48.3431 12.3876 48.0003 11.8919C47.6575 11.3956 47.0922 11.0992 46.4894 11.0992H36.8935C36.2627 11.0992 35.7509 11.6104 35.7509 12.2418C35.7509 12.8726 36.2627 13.3844 36.8935 13.3844H45.8407L43.8293 18.7092C43.7412 18.9425 43.5145 19.0996 43.2652 19.0996H36.4799C36.196 19.0996 35.9479 18.8973 35.8896 18.62L34.4471 11.7258C34.2299 10.688 33.3033 9.9352 32.2428 9.9352H30.8164C30.185 9.9352 29.6738 10.4464 29.6738 11.0778C29.6738 11.7086 30.185 12.2204 30.8158 12.2204Z" fill="#5CC3B4"/>
<path d="M36.6768 22.3435H36.3721C35.7407 22.3435 35.2295 22.8547 35.2295 23.4861C35.2295 24.1169 35.7407 24.6286 36.3721 24.6286H36.6768C37.3082 24.6286 37.8193 24.1169 37.8193 23.4861C37.8193 22.8547 37.3082 22.3435 36.6768 22.3435Z" fill="#5CC3B4"/>
<path d="M41.6279 22.3435H41.3232C40.6918 22.3435 40.1807 22.8547 40.1807 23.4861C40.1807 24.1169 40.6918 24.6286 41.3232 24.6286H41.6279C42.2593 24.6286 42.7705 24.1169 42.7705 23.4861C42.7705 22.8547 42.2593 22.3435 41.6279 22.3435Z" fill="#5CC3B4"/>
</g>
<defs>
<clipPath id="clip0_23_75">
<rect width="78" height="78" fill="white" transform="translate(0 0.957031)"/>
</clipPath>
</defs>
</svg>
