<svg width="66" height="67" viewBox="0 0 66 67" fill="none" xmlns="http://www.w3.org/2000/svg">
<path d="M18.5676 18.4883C19.1372 18.4883 19.5989 18.0266 19.5989 17.457C19.5989 16.8875 19.1372 16.4258 18.5676 16.4258C17.9981 16.4258 17.5364 16.8875 17.5364 17.457C17.5364 18.0266 17.9981 18.4883 18.5676 18.4883Z" fill="#5CC3B4"/>
<path d="M26.8176 18.4883C27.3872 18.4883 27.8489 18.0266 27.8489 17.457C27.8489 16.8875 27.3872 16.4258 26.8176 16.4258C26.2481 16.4258 25.7864 16.8875 25.7864 17.457C25.7864 18.0266 26.2481 18.4883 26.8176 18.4883Z" fill="#5CC3B4"/>
<path d="M27.8489 22.6133H25.7864C25.7864 23.7508 24.8613 24.6758 23.7239 24.6758H19.5989V26.7383H23.7239C25.9988 26.7383 27.8489 24.8882 27.8489 22.6133Z" fill="#5CC3B4"/>
<path d="M61.2655 10.2909C60.8437 9.02553 59.665 8.17578 58.3316 8.17578H35.8627C35.5142 6.74131 34.7861 5.40481 33.7342 4.35294L33.0051 3.62384L32.276 4.35294C31.7491 4.87991 31.1561 5.32644 30.5074 5.68634C29.9227 4.11781 28.7832 2.85041 27.2786 2.09759L26.7434 1.82947L26.2453 2.16153C24.3911 3.39697 22.2337 4.05078 20.0062 4.05078H17.9375C13.167 4.05078 9.28638 7.93137 9.28638 12.7019C9.28638 13.1804 9.32556 13.66 9.40394 14.124L10.0743 18.1459C9.58338 18.8245 9.28638 19.6515 9.28638 20.5508C9.28638 22.8257 11.1364 24.6758 13.4114 24.6758H13.4939C13.8249 26.9765 15.2377 28.9317 17.2064 29.997L16.6743 32.1235C10.0908 34.2716 4.81075 39.1287 2.13981 45.54L1.64481 46.728C1.24056 47.6964 1.03638 48.7183 1.03638 49.7692C1.03638 54.1293 4.58285 57.6758 8.94297 57.6758H9.28638V65.9258H60.8489C61.9863 65.9258 62.9114 65.0007 62.9114 63.8633V26.5485C64.1087 26.1216 64.9739 24.9872 64.9739 23.6445V21.415L61.2655 10.2909ZM59.3103 10.9437L62.5123 20.5508H54.4345L51.8564 10.2383H58.3306C58.775 10.2383 59.169 10.5208 59.3103 10.9437ZM31.9739 18.4883C33.1113 18.4883 34.0364 19.4133 34.0364 20.5508C34.0364 21.6882 33.1113 22.6133 31.9739 22.6133V18.4883ZM36.0947 10.2383H39.4185L41.9966 20.5508H36.0989C36.0989 19.6505 35.8008 18.8245 35.311 18.1449L35.5472 16.7279C35.904 14.5871 36.0855 12.4039 36.0947 10.2383ZM44.122 20.5508L41.5439 10.2383H49.731L52.3091 20.5508H44.122ZM35.5255 22.6133H42.2864V23.6445C42.2864 24.2138 41.8244 24.6758 41.2551 24.6758H35.0676C34.6448 24.6758 34.2828 24.419 34.124 24.055C34.7036 23.6971 35.1821 23.2021 35.5255 22.6133ZM44.3489 22.6133H52.5989V23.6445C52.5989 24.2138 52.1369 24.6758 51.5676 24.6758H45.3801C44.8109 24.6758 44.3489 24.2138 44.3489 23.6445V22.6133ZM11.3489 20.5508C11.3489 19.4133 12.2739 18.4883 13.4114 18.4883V22.6133C12.2739 22.6133 11.3489 21.6882 11.3489 20.5508ZM13.4114 15.3945V16.4258C12.8865 16.4258 12.3884 16.5341 11.9264 16.7135L11.4386 13.7837C11.3788 13.43 11.3489 13.066 11.3489 12.7019C11.3489 9.06884 14.3044 6.11328 17.9375 6.11328H20.0062C22.4266 6.11328 24.7768 5.46153 26.8434 4.223C27.6818 4.77987 28.3078 5.59456 28.6316 6.56497L29.3091 8.59859L31.1313 7.68903C31.7625 7.37244 32.3565 6.99294 32.9061 6.55362C33.6311 7.56941 34.0364 8.80484 34.0364 10.0609C34.0364 12.1719 33.86 14.3004 33.5125 16.3887L33.4578 16.7135C32.9969 16.5341 32.4988 16.4258 31.9739 16.4258V15.3945C31.9739 13.6888 30.5858 12.3008 28.8801 12.3008H25.7864C23.5114 12.3008 21.6614 10.4507 21.6614 8.17578H19.5989C19.5989 8.89869 19.7237 9.59272 19.9526 10.2383H18.5676C15.7245 10.2383 13.4114 12.5514 13.4114 15.3945ZM15.4739 23.6445V15.3945C15.4739 13.6888 16.8619 12.3008 18.5676 12.3008H21.1777C22.3121 13.5661 23.9569 14.3633 25.7864 14.3633H28.8801C29.4494 14.3633 29.9114 14.8253 29.9114 15.3945V23.6445C29.9114 26.4877 27.5983 28.8008 24.7551 28.8008H20.6301C17.787 28.8008 15.4739 26.4877 15.4739 23.6445ZM50.5364 30.8633H52.5989V32.9258H50.5364V30.8633ZM54.6614 34.9883V30.8633H56.7239V41.1758H46.4114V30.8633H48.4739V34.9883H54.6614ZM50.5364 43.2383V45.3008H46.4114V43.2383H50.5364ZM52.5989 47.3633V43.2383H56.7239V59.7383H40.2239V56.7105C42.6793 55.3678 44.3489 52.7598 44.3489 49.7692C44.3489 48.7183 44.1447 47.6964 43.7404 46.7291L43.2454 45.5411C42.9154 44.7491 42.5432 43.9818 42.1358 43.2393H44.3489V47.3643L52.5989 47.3633ZM41.3418 46.3341L41.8368 47.5221C42.1358 48.2378 42.2864 48.9927 42.2864 49.7692C42.2864 52.9918 39.6649 55.6133 36.4423 55.6133H31.9739V51.4883H40.2239V49.4258H36.0989V45.3008H34.0364V49.4258H29.9114V47.3633C29.9114 46.2258 28.9863 45.3008 27.8489 45.3008H26.5289L24.8366 40.2239L25.6224 38.6533L28.2005 40.7158L30.9385 35.2409C35.6059 37.5365 39.304 41.4418 41.3418 46.3341ZM17.5364 51.4883C18.6738 51.4883 19.5989 52.4133 19.5989 53.5508C19.5989 54.6882 18.6738 55.6133 17.5364 55.6133H15.4739V51.4883H17.5364ZM17.5364 57.6758C19.8113 57.6758 21.6614 55.8257 21.6614 53.5508C21.6614 51.2758 19.8113 49.4258 17.5364 49.4258V47.3633H27.8489V49.4258C25.5739 49.4258 23.7239 51.2758 23.7239 53.5508C23.7239 55.8257 25.5739 57.6758 27.8489 57.6758V59.7383H17.5364V57.6758ZM20.6662 35.2884L17.888 37.5107L16.3443 34.4232C16.7248 34.2788 17.1094 34.1447 17.5003 34.022L20.6662 35.2884ZM22.6926 36.3093L23.9755 37.3354L23.0866 39.1133H22.2987L21.4098 37.3354L22.6926 36.3093ZM22.4039 41.1758H22.9803L24.355 45.3008H21.0282L22.4039 41.1758ZM29.9114 51.4883V55.6133H27.8489C26.7114 55.6133 25.7864 54.6882 25.7864 53.5508C25.7864 52.4133 26.7114 51.4883 27.8489 51.4883H29.9114ZM29.041 34.4242L27.4972 37.5117L24.719 35.2894L27.885 34.023C28.2758 34.1457 28.6605 34.2798 29.041 34.4242ZM20.6301 30.8633H24.7551C25.2615 30.8633 25.7554 30.8097 26.2319 30.7096L26.6299 32.3019L22.6926 33.8776L18.7553 32.3029L19.1534 30.7107C19.6298 30.8097 20.1238 30.8633 20.6301 30.8633ZM3.09888 49.7692C3.09888 48.9927 3.24944 48.2378 3.5485 47.5221L4.0435 46.3341C6.08228 41.4418 9.78034 37.5365 14.4468 35.2409L17.1847 40.7158L19.7628 38.6533L20.5487 40.2239L18.8564 45.3008H17.5364C16.3989 45.3008 15.4739 46.2258 15.4739 47.3633V49.4258H11.3489V45.3008H9.28638V49.4258H5.16138V51.4883H13.4114V55.6133H8.94297C5.72031 55.6133 3.09888 52.9918 3.09888 49.7692ZM11.3489 57.6758H15.4739V59.7383C15.4739 60.8757 16.3989 61.8008 17.5364 61.8008H27.8489C28.9863 61.8008 29.9114 60.8757 29.9114 59.7383V57.6758H34.0364V63.8633H11.3489V57.6758ZM36.0989 63.8633V57.6758H36.4423C37.0332 57.6758 37.6076 57.6057 38.1614 57.4819V59.7383C38.1614 60.8757 39.0864 61.8008 40.2239 61.8008H56.7239C57.8613 61.8008 58.7864 60.8757 58.7864 59.7383V30.8633C58.7864 29.7258 57.8613 28.8008 56.7239 28.8008H46.4114C45.2739 28.8008 44.3489 29.7258 44.3489 30.8633V41.1758H40.8602C37.9438 36.9477 33.7146 33.7673 28.712 32.1266L28.1789 29.997C30.1475 28.9317 31.5593 26.9755 31.8914 24.6758H31.9739C32.0368 24.6758 32.0956 24.6603 32.1585 24.6572C32.5803 25.8648 33.7177 26.7383 35.0676 26.7383H41.2551C42.0502 26.7383 42.769 26.4279 43.3176 25.9339C43.8663 26.4289 44.585 26.7383 45.3801 26.7383H51.5676C52.3627 26.7383 53.0815 26.4279 53.6301 25.9339C54.1788 26.4289 54.8975 26.7383 55.6926 26.7383H60.8489V63.8633H36.0989ZM61.8801 24.6758H55.6926C55.1234 24.6758 54.6614 24.2138 54.6614 23.6445V22.6133H62.9114V23.6445C62.9114 24.2138 62.4494 24.6758 61.8801 24.6758Z" fill="#10112F"/>
</svg>
