<svg width="76" height="76" viewBox="0 0 76 76" fill="none" xmlns="http://www.w3.org/2000/svg">
<path d="M66.5 33.8437C66.1913 33.8437 65.8825 33.7131 65.6569 33.4994C65.4431 33.2737 65.3125 32.965 65.3125 32.6562C65.3125 32.3475 65.4431 32.0387 65.6569 31.8131C66.1081 31.3737 66.9037 31.3737 67.3431 31.8131C67.5569 32.0387 67.6875 32.3475 67.6875 32.6562C67.6875 32.9769 67.5569 33.2737 67.3431 33.4994C67.1175 33.7131 66.8088 33.8437 66.5 33.8437Z" fill="white"/>
<path d="M26.125 55.2187C25.8163 55.2187 25.5075 55.0881 25.2819 54.8744C25.0681 54.6487 24.9375 54.34 24.9375 54.0312C24.9375 53.7225 25.0681 53.4137 25.2819 53.1881C25.7331 52.7487 26.5169 52.7487 26.9681 53.1881C27.1819 53.4137 27.3125 53.7225 27.3125 54.0312C27.3125 54.34 27.1819 54.6487 26.9681 54.8744C26.7425 55.0881 26.4338 55.2187 26.125 55.2187Z" fill="white"/>
<path d="M66.5 43.3438C65.8445 43.3438 65.3125 42.8117 65.3125 42.1562V37.4062C65.3125 36.7508 65.8445 36.2188 66.5 36.2188C67.1555 36.2188 67.6875 36.7508 67.6875 37.4062V42.1562C67.6875 42.8117 67.1555 43.3438 66.5 43.3438Z" fill="white"/>
<path d="M66.5 29.0938C65.8445 29.0938 65.3125 28.5618 65.3125 27.9062V14.25C65.3125 13.5945 65.8445 13.0625 66.5 13.0625C67.1555 13.0625 67.6875 13.5945 67.6875 14.25V27.9062C67.6875 28.5618 67.1555 29.0938 66.5 29.0938Z" fill="white"/>
<path d="M26.125 50.4688C25.4695 50.4688 24.9375 49.9368 24.9375 49.2813V35.2593C24.9375 34.6038 25.4695 34.0718 26.125 34.0718C26.7805 34.0718 27.3125 34.6038 27.3125 35.2593V49.2813C27.3125 49.9368 26.7805 50.4688 26.125 50.4688Z" fill="white"/>
<path d="M26.125 64.7188C25.4695 64.7188 24.9375 64.1867 24.9375 63.5312V58.7812C24.9375 58.1258 25.4695 57.5938 26.125 57.5938C26.7805 57.5938 27.3125 58.1258 27.3125 58.7812V63.5312C27.3125 64.1867 26.7805 64.7188 26.125 64.7188Z" fill="white"/>
<path d="M41.7156 64.1345C41.0601 64.1345 40.5281 63.6025 40.5281 62.947V44.5313C40.5281 43.8758 41.0601 43.3438 41.7156 43.3438C42.3711 43.3438 42.9031 43.8758 42.9031 44.5313V62.947C42.9031 63.6025 42.3723 64.1345 41.7156 64.1345Z" fill="white"/>
<path d="M64.125 45.7188C63.4695 45.7188 62.9375 45.1867 62.9375 44.5312C62.9375 43.8758 63.4695 43.3438 64.125 43.3438C64.7793 43.3438 65.3125 42.8106 65.3125 42.1562C65.3125 41.5008 65.8445 40.9688 66.5 40.9688C67.1555 40.9688 67.6875 41.5008 67.6875 42.1562C67.6875 44.1204 66.0891 45.7188 64.125 45.7188Z" fill="white"/>
<path d="M64.125 45.7188H26.125C25.4695 45.7188 24.9375 45.1867 24.9375 44.5312C24.9375 43.8758 25.4695 43.3438 26.125 43.3438H64.125C64.7805 43.3438 65.3125 43.8758 65.3125 44.5312C65.3125 45.1867 64.7805 45.7188 64.125 45.7188Z" fill="white"/>
<path d="M59.3749 24.9375H41.9946C41.3391 24.9375 40.8071 24.4055 40.8071 23.75C40.8071 23.0945 41.3391 22.5625 41.9946 22.5625H59.3749C60.0304 22.5625 60.5624 23.0945 60.5624 23.75C60.5624 24.4055 60.0304 24.9375 59.3749 24.9375Z" fill="white"/>
<path d="M59.375 29.6875H43.3259C42.6704 29.6875 42.1384 29.1555 42.1384 28.5C42.1384 27.8445 42.6704 27.3125 43.3259 27.3125H59.375C60.0305 27.3125 60.5625 27.8445 60.5625 28.5C60.5625 29.1555 60.0305 29.6875 59.375 29.6875Z" fill="white"/>
<path d="M59.3751 34.4375H40.9629C40.3074 34.4375 39.7754 33.9055 39.7754 33.25C39.7754 32.5945 40.3074 32.0625 40.9629 32.0625H59.3751C60.0306 32.0625 60.5626 32.5945 60.5626 33.25C60.5626 33.9055 60.0306 34.4375 59.3751 34.4375Z" fill="white"/>
<path d="M54.625 20.1875H32.0625C31.407 20.1875 30.875 19.6555 30.875 19C30.875 18.3445 31.407 17.8125 32.0625 17.8125H54.625C55.2805 17.8125 55.8125 18.3445 55.8125 19C55.8125 19.6555 55.2805 20.1875 54.625 20.1875Z" fill="white"/>
<path d="M43.3438 13.0625C42.6883 13.0625 42.1562 12.5305 42.1562 11.875V9.5C42.1562 8.8445 42.6883 8.3125 43.3438 8.3125C43.9992 8.3125 44.5312 8.8445 44.5312 9.5V11.875C44.5312 12.5305 43.9992 13.0625 43.3438 13.0625Z" fill="white"/>
<path d="M20.1875 20.1828C19.532 20.1828 19 19.6508 19 18.9953V14.25C19 13.5945 19.532 13.0625 20.1875 13.0625C20.843 13.0625 21.375 13.5945 21.375 14.25V18.9953C21.375 19.6508 20.843 20.1828 20.1875 20.1828Z" fill="white"/>
<path d="M20.1875 15.4375C19.532 15.4375 19 14.9055 19 14.25C19 12.2859 20.5984 10.6875 22.5625 10.6875C23.218 10.6875 23.75 11.2195 23.75 11.875C23.75 12.5305 23.218 13.0625 22.5625 13.0625C21.9082 13.0625 21.375 13.5957 21.375 14.25C21.375 14.9055 20.843 15.4375 20.1875 15.4375Z" fill="white"/>
<path d="M64.125 13.0625H22.5625C21.907 13.0625 21.375 12.5305 21.375 11.875C21.375 11.2195 21.907 10.6875 22.5625 10.6875H64.125C64.7805 10.6875 65.3125 11.2195 65.3125 11.875C65.3125 12.5305 64.7805 13.0625 64.125 13.0625Z" fill="white"/>
<path d="M66.5 15.4375C65.8445 15.4375 65.3125 14.9055 65.3125 14.25C65.3125 13.5957 64.7793 13.0625 64.125 13.0625C63.4695 13.0625 62.9375 12.5305 62.9375 11.875C62.9375 11.2195 63.4695 10.6875 64.125 10.6875C66.0891 10.6875 67.6875 12.2859 67.6875 14.25C67.6875 14.9055 67.1555 15.4375 66.5 15.4375Z" fill="white"/>
<path d="M12.8726 32.7774C12.3703 32.7774 11.9024 32.4555 11.7421 31.9497C11.5426 31.325 11.8881 30.6565 12.5127 30.4582C16.3424 29.2362 20.4524 28.9952 24.3996 29.7623C25.0433 29.887 25.4636 30.5104 25.3401 31.154C25.2154 31.7977 24.5944 32.2133 23.9484 32.0945C20.3894 31.4022 16.6856 31.6207 13.2348 32.7215C13.1136 32.7584 12.9925 32.7774 12.8726 32.7774Z" fill="white"/>
<path d="M24.174 32.1148C23.7275 32.1148 23.2988 31.8618 23.097 31.4284C22.8203 30.8346 23.0768 30.1281 23.6717 29.8502L34.7178 24.7C35.3092 24.4221 36.0193 24.6786 36.296 25.2748C36.5727 25.8685 36.3162 26.5751 35.7213 26.853L24.6751 32.0031C24.5136 32.0803 24.3426 32.1148 24.174 32.1148Z" fill="white"/>
<path d="M37.2282 31.2692C36.7817 31.2692 36.353 31.0163 36.1511 30.584C35.8744 29.9903 36.1309 29.2825 36.7247 29.0058C37.6818 28.5593 37.3125 27.6402 37.2282 27.4609C37.1451 27.2816 36.6831 26.41 35.7201 26.8541C35.1275 27.132 34.4186 26.8755 34.1419 26.2793C33.8652 25.6856 34.1217 24.979 34.7166 24.7012C36.7876 23.7333 38.6318 24.852 39.3799 26.4575C40.1281 28.0618 39.8003 30.1922 37.7281 31.1588C37.5678 31.2336 37.3968 31.2692 37.2282 31.2692Z" fill="white"/>
<path d="M26.125 36.4468C25.6785 36.4468 25.2498 36.1938 25.0479 35.7616C24.7712 35.1667 25.0277 34.4601 25.6215 34.1834L36.7246 29.0059C37.3183 28.7268 38.0261 28.9857 38.3028 29.5795C38.5795 30.1744 38.323 30.881 37.7292 31.1577L26.6261 36.3352C26.4646 36.4112 26.2936 36.4468 26.125 36.4468Z" fill="white"/>
<path d="M30.6006 67.6875C30.2693 67.6875 29.9392 67.5498 29.7052 67.2802C29.2742 66.785 29.3264 66.0357 29.8204 65.6047L40.9366 55.9218C41.4318 55.4907 42.1811 55.543 42.6122 56.037C43.0432 56.5322 42.991 57.2815 42.497 57.7125L31.3808 67.3954C31.1552 67.5913 30.8773 67.6875 30.6006 67.6875Z" fill="white"/>
<path d="M52.832 67.6875C52.5553 67.6875 52.2774 67.5913 52.053 67.3954L40.9368 57.7125C40.4416 57.2815 40.3905 56.5322 40.8216 56.037C41.2515 55.543 42.002 55.4907 42.4972 55.9218L53.6133 65.6047C54.1085 66.0357 54.1596 66.785 53.7285 67.2802C53.4934 67.5498 53.1645 67.6875 52.832 67.6875Z" fill="white"/>
<path d="M9.5 49.5734C8.8445 49.5734 8.3125 49.0414 8.3125 48.3859V36.1356C8.3125 35.4801 8.8445 34.9481 9.5 34.9481C10.1555 34.9481 10.6875 35.4801 10.6875 36.1356V48.3859C10.6875 49.0414 10.1555 49.5734 9.5 49.5734Z" fill="white"/>
<path d="M9.5 37.3231C8.8445 37.3231 8.3125 36.7911 8.3125 36.1356C8.3125 33.5005 10.0071 31.217 12.5293 30.4522C13.1563 30.261 13.8201 30.6173 14.0101 31.2443C14.2001 31.8725 13.8451 32.5351 13.2181 32.7251C11.704 33.1847 10.6875 34.555 10.6875 36.1356C10.6875 36.7911 10.1555 37.3231 9.5 37.3231Z" fill="white"/>
<path d="M14.25 64.7188C13.5945 64.7188 13.0625 64.1868 13.0625 63.5313V37.4241C13.0625 36.7686 13.5945 36.2366 14.25 36.2366C14.9055 36.2366 15.4375 36.7686 15.4375 37.4241V63.5313C15.4375 64.1868 14.9055 64.7188 14.25 64.7188Z" fill="white"/>
<path d="M20.1875 31.6932C16.4243 31.6932 13.2441 28.5131 13.2441 24.7499C13.2441 20.9867 16.4243 17.8066 20.1875 17.8066C23.9506 17.8066 27.1308 20.9855 27.1308 24.7499C27.1308 28.5143 23.9506 31.6932 20.1875 31.6932ZM20.1875 20.1828C17.7115 20.1828 15.6191 22.2751 15.6191 24.7511C15.6191 27.227 17.7115 29.3194 20.1875 29.3194C22.6634 29.3194 24.7558 27.227 24.7558 24.7511C24.7558 22.274 22.6634 20.1828 20.1875 20.1828Z" fill="white"/>
<path d="M20.1875 64.7187C19.532 64.7187 19 64.1867 19 63.5312V48.3859C19 47.7304 19.532 47.1984 20.1875 47.1984C20.843 47.1984 21.375 47.7304 21.375 48.3859V63.5312C21.375 64.1867 20.843 64.7187 20.1875 64.7187Z" fill="white"/>
<path d="M11.875 51.8712C10.1044 51.8712 8.3125 50.6742 8.3125 48.3859C8.3125 47.7304 8.8445 47.1984 9.5 47.1984C10.1555 47.1984 10.6875 47.7304 10.6875 48.3859C10.6875 49.4427 11.6767 49.4962 11.875 49.4962C12.0733 49.4962 13.0625 49.4427 13.0625 48.3859C13.0625 47.7304 13.5945 47.1984 14.25 47.1984C14.9055 47.1984 15.4375 47.7304 15.4375 48.3859C15.4375 50.6742 13.6456 51.8712 11.875 51.8712Z" fill="white"/>
<path d="M23.1562 67.5901C22.0946 67.5901 21.0947 67.2339 20.3407 66.5855C19.4762 65.8421 19 64.7567 19 63.5312C19 62.8758 19.532 62.3438 20.1875 62.3438C20.843 62.3438 21.375 62.8758 21.375 63.5312C21.375 65.1676 22.9746 65.2151 23.1562 65.2151C23.3379 65.2151 24.9375 65.1676 24.9375 63.5312C24.9375 62.8758 25.4695 62.3438 26.125 62.3438C26.7805 62.3438 27.3125 62.8758 27.3125 63.5312C27.3125 66.196 25.2213 67.5901 23.1562 67.5901Z" fill="white"/>
<path d="M17.2188 67.5901C16.1571 67.5901 15.1572 67.2339 14.4032 66.5855C13.5387 65.8421 13.0625 64.7567 13.0625 63.5312C13.0625 62.8758 13.5945 62.3438 14.25 62.3438C14.9055 62.3438 15.4375 62.8758 15.4375 63.5312C15.4375 65.1676 17.0371 65.2151 17.2188 65.2151C17.4004 65.2151 19 65.1676 19 63.5312C19 62.8758 19.532 62.3438 20.1875 62.3438C20.843 62.3438 21.375 62.8758 21.375 63.5312C21.375 66.196 19.2838 67.5901 17.2188 67.5901Z" fill="white"/>
</svg>
