<svg width="67" height="66" viewBox="0 0 67 66" fill="none" xmlns="http://www.w3.org/2000/svg">
<path d="M61.4345 16.4466H60.7553C60.3538 15.0577 59.793 13.7251 59.0801 12.4652L59.5628 11.9895C60.1152 11.4457 60.4191 10.7203 60.4191 9.94706C60.4191 9.17377 60.1152 8.44856 59.5624 7.90407L56.346 4.73938C55.7936 4.19192 55.0564 3.89055 54.27 3.89055C53.4836 3.89055 52.7463 4.19192 52.1967 4.73667L51.7145 5.21168C50.4346 4.50722 49.0813 3.95371 47.6722 3.55837V2.88949C47.6723 1.29625 46.3566 0 44.7391 0H40.1915C38.5742 0 37.2583 1.29625 37.2583 2.88949V3.55837C35.8495 3.95358 34.4954 4.50722 33.2129 5.21219L32.7329 4.73938C32.1803 4.19192 31.443 3.89055 30.6567 3.89068C29.8704 3.89068 29.1332 4.19218 28.5836 4.7368L25.3678 7.90472C24.8154 8.44856 24.5115 9.1739 24.5115 9.94718C24.5115 10.7205 24.8154 11.4457 25.3676 11.9895L25.8502 12.465C25.1343 13.7288 24.5732 15.0617 24.174 16.4466H23.4924C21.875 16.4466 20.5591 17.7428 20.5591 19.3361V23.8196C20.5591 25.4128 21.875 26.7091 23.4924 26.7091H24.174C24.5732 28.0939 25.1343 29.4267 25.8502 30.6906L25.3676 31.1662C24.8153 31.71 24.5113 32.4353 24.5113 33.2086C24.5113 33.9818 24.8153 34.7071 25.3675 35.251L28.5808 38.4163C29.1332 38.9638 29.8703 39.2651 30.6566 39.2651H30.6567C31.443 39.2651 32.1804 38.9638 32.7301 38.419L33.2127 37.9435C34.4966 38.6491 35.8507 39.202 37.2581 39.5951V40.2663C37.2581 41.8596 38.574 43.1558 40.1914 43.1558H44.7389C46.3563 43.1558 47.6722 41.8596 47.6722 40.2663V39.5951C49.0801 39.2018 50.4331 38.6492 51.7145 37.944L52.1939 38.4163C52.7463 38.9638 53.4835 39.2651 54.2698 39.2651C55.0563 39.2651 55.7936 38.9636 56.3427 38.4195L59.5628 35.251C60.115 34.707 60.419 33.9817 60.419 33.2085C60.419 32.4352 60.115 31.71 59.5628 31.1662L59.08 30.6905C59.7929 29.4306 60.3536 28.098 60.7552 26.7091H61.4343C63.0517 26.7091 64.3676 25.4128 64.3676 23.8196V19.3361C64.3677 17.7428 63.052 16.4466 61.4345 16.4466ZM45.0552 40.2662C45.0552 40.4351 44.9105 40.5776 44.7391 40.5776H40.1915C40.0201 40.5776 39.8754 40.4351 39.8754 40.2662V38.5926V30.4662C39.8754 29.9271 39.5349 29.445 39.022 29.2576C35.5056 27.973 33.1431 24.6393 33.1431 20.9622C33.1431 18.0481 34.6162 15.3164 37.0828 13.6555C37.1935 13.581 37.2914 13.5201 37.377 13.4702C37.3723 13.6378 37.3602 13.7971 37.3538 13.8803C37.344 14.0111 37.3361 14.1144 37.3361 14.2168V20.3007C37.3361 23.0931 39.5511 25.4252 42.3785 25.6099C42.4362 25.6137 42.4941 25.6137 42.5518 25.6099C45.3772 25.4253 47.5905 23.0932 47.5905 20.3007V14.2168C47.5905 14.1149 47.5828 14.0123 47.5731 13.8822C47.5669 13.7987 47.5548 13.6385 47.5502 13.4701C47.6356 13.5199 47.7329 13.5806 47.8432 13.6549C50.3105 15.3163 51.7836 18.048 51.7836 20.9621C51.7836 24.6388 49.4224 27.9726 45.9081 29.2576C45.3953 29.4452 45.0549 29.9271 45.0549 30.4661V38.5925V40.2662H45.0552ZM61.7506 23.8196C61.7506 23.9855 61.6029 24.131 61.4345 24.131H59.7393C59.128 24.131 58.598 24.548 58.4631 25.1354C58.0487 26.9392 57.3309 28.6448 56.3298 30.2049C56.0029 30.7144 56.078 31.379 56.5106 31.8051L57.7125 32.9891C57.7905 33.0659 57.8022 33.1595 57.8022 33.2085C57.8022 33.2574 57.7905 33.3511 57.7129 33.4274L54.4901 36.5986C54.4164 36.6716 54.3296 36.6869 54.27 36.6869C54.2104 36.6869 54.1238 36.6716 54.0474 36.5958L52.8455 35.4118C52.4122 34.9852 51.7368 34.9117 51.2197 35.2345C50.1027 35.9317 48.9138 36.485 47.6723 36.8938V31.3236C51.732 29.4625 54.4009 25.4068 54.4009 20.9619C54.4009 17.1958 52.5016 13.6685 49.3205 11.5265C48.8332 11.1984 47.3512 10.2003 46.0551 10.9352C44.7824 11.6571 44.9092 13.3492 44.9632 14.0718C44.9679 14.1346 44.9725 14.1873 44.9736 14.2168V20.3007C44.9736 21.7116 43.8788 22.8946 42.4653 23.0306C41.0498 22.8945 39.9534 21.7115 39.9534 20.3007L39.9533 14.2261C39.9544 14.1873 39.9591 14.1346 39.9639 14.0716C40.0184 13.3493 40.1463 11.6581 38.8746 10.9359C37.579 10.1997 36.0948 11.1982 35.6066 11.5265C32.4252 13.6686 30.526 17.1959 30.526 20.9621C30.526 25.4075 33.1964 29.4635 37.2583 31.3241V36.894C36.0166 36.4851 34.8262 35.9316 33.7059 35.234C33.4905 35.0999 33.2482 35.0345 33.007 35.0345C32.669 35.0345 32.3338 35.1633 32.0813 35.4121L30.877 36.5986C30.8033 36.6717 30.7165 36.6871 30.6569 36.6871C30.5972 36.6871 30.5107 36.6717 30.4343 36.5961L27.2183 33.428C27.1402 33.3512 27.1286 33.2575 27.1286 33.2086C27.1286 33.1596 27.1402 33.0661 27.2183 32.9891L28.4201 31.8051C28.8527 31.379 28.9278 30.7144 28.601 30.2049C27.5947 28.6366 26.8771 26.9317 26.4681 25.1376C26.3342 24.5492 25.8037 24.1309 25.1914 24.1309H23.4926C23.3242 24.1309 23.1765 23.9854 23.1765 23.8195V19.336C23.1765 19.1671 23.3212 19.0245 23.4926 19.0245H25.1914C25.8037 19.0245 26.334 18.6062 26.4681 18.0178C26.8771 16.2237 27.5946 14.5187 28.601 12.9505C28.9278 12.4411 28.8527 11.7764 28.4201 11.3503L27.2182 10.1663C27.1402 10.0895 27.1286 9.99591 27.1286 9.94693C27.1286 9.89794 27.1402 9.80436 27.2183 9.7274L30.437 6.55665C30.5107 6.48369 30.5973 6.46835 30.657 6.46835C30.7167 6.46835 30.8033 6.48369 30.8797 6.55936L32.0815 7.74333C32.5144 8.16961 33.189 8.24347 33.7061 7.92147C35.2961 6.93124 37.0288 6.22292 38.8554 5.81649C39.4521 5.68372 39.8757 5.16153 39.8757 4.55917V2.88949C39.8757 2.72063 40.0204 2.57806 40.1918 2.57806H44.7393C44.9107 2.57806 45.0555 2.72063 45.0555 2.88949V4.55943C45.0555 5.16192 45.479 5.68398 46.0756 5.81675C47.9039 6.22356 49.6346 6.9315 51.22 7.92109C51.7372 8.24386 52.4125 8.17039 52.8457 7.74372L54.0502 6.55704C54.1239 6.48408 54.2107 6.46874 54.2702 6.46874C54.3299 6.46874 54.4165 6.48408 54.4935 6.56026L57.7128 9.72779C57.7908 9.80462 57.8024 9.8982 57.8024 9.94718C57.8024 9.99617 57.7908 10.0898 57.7127 10.1667L56.5109 11.3507C56.0783 11.7768 56.0031 12.4415 56.33 12.9509C57.3311 14.511 58.049 16.2165 58.4634 18.0204C58.5983 18.6078 59.1282 19.0248 59.7396 19.0248H61.4347C61.6061 19.0248 61.7509 19.1674 61.7509 19.3362V23.8196H61.7506Z" fill="white"/>
<path d="M50.0898 56.7587C49.5788 57.2621 49.5788 58.0783 50.0898 58.5818C50.3454 58.8335 50.6802 58.9594 51.0151 58.9594C51.35 58.9594 51.6848 58.8335 51.9404 58.5818L51.9441 58.5782C52.4551 58.0748 52.4532 57.2604 51.9421 56.757C51.431 56.2537 50.6008 56.2556 50.0898 56.7587Z" fill="white"/>
<path d="M56.1519 44.2717L45.7631 49.5272C44.8825 48.6287 43.6485 48.0683 42.2835 48.0683H35.1655C34.7669 48.0683 34.6696 48.0371 34.663 48.0349C34.6053 48.005 34.4229 47.8361 34.2765 47.7005L34.2116 47.6404C28.4528 42.3004 23.5883 42.6388 18.0563 44.7894C17.1613 45.1374 17.144 45.1382 16.2451 45.176L14.6356 45.1771C14.1771 43.8145 12.8722 42.8284 11.3371 42.8284H6.10341C4.18938 42.8284 2.63232 44.364 2.63232 46.2514V59.7822C2.63232 61.6675 4.18938 63.2015 6.10341 63.2015H11.3371C12.8721 63.2015 14.1768 62.2165 14.6355 60.8556H17.5797C17.8398 60.8556 17.8398 60.8556 18.1422 60.9395C18.2521 60.97 18.3858 61.0072 18.5586 61.0529L32.1014 64.622C32.6983 64.7808 33.2458 64.9372 33.7754 65.0882C35.5106 65.5835 36.9691 65.9998 38.4892 65.9998C40.2074 65.9998 42.0039 65.468 44.3668 63.9168C44.3782 63.9093 44.3895 63.9016 44.4008 63.8937L46.9862 62.0776C47.5747 61.6642 47.7116 60.8593 47.2919 60.2796C46.8723 59.6998 46.0549 59.5651 45.4669 59.9785L42.8986 61.7825C39.4696 64.0292 38.0136 63.6138 34.5038 62.612C33.9631 62.4577 33.404 62.2981 32.781 62.1324L19.2372 58.5632C19.0786 58.5211 18.9541 58.4866 18.8521 58.4582C18.358 58.3211 18.1732 58.2778 17.5799 58.2778H14.812V47.7562H16.2262C16.245 47.7562 16.2636 47.7558 16.2824 47.755L16.357 47.7519C17.454 47.7058 17.7609 47.6763 19.0173 47.1876C23.8759 45.2989 27.6262 45.0745 32.4195 49.5195L32.4843 49.5794C33.3034 50.3377 33.7751 50.6466 35.1656 50.6466H42.2837C43.1191 50.6466 43.8475 51.1034 44.2273 51.7764C44.2313 51.7839 44.236 51.791 44.2402 51.7985C44.4098 52.1075 44.5064 52.4609 44.5064 52.8363C44.5064 54.0416 43.5094 55.0222 42.2838 55.0222H30.7479C30.0253 55.0222 29.4394 55.5993 29.4394 56.3112C29.4394 57.0232 30.0253 57.6003 30.7479 57.6003H42.2838C44.9525 57.6003 47.1235 55.4632 47.1235 52.8363C47.1235 52.4792 47.0822 52.1317 47.0063 51.7969L57.3476 46.5654C58.3264 46.0704 59.6648 46.1235 60.3292 47.1857C60.917 48.1219 60.5937 49.3663 59.5776 50.0799L55.0412 53.2626C54.4525 53.6756 54.3151 54.4804 54.7344 55.0604C54.9897 55.4134 55.3924 55.6018 55.8014 55.6018C56.064 55.6018 56.3291 55.524 56.5593 55.3626L61.0962 52.1796C63.2509 50.6664 63.8779 47.9365 62.556 45.8314C61.2561 43.7532 58.5031 43.0827 56.1519 44.2717ZM12.1948 59.7822C12.1948 60.2383 11.8021 60.6234 11.3371 60.6234H6.10341C5.64044 60.6234 5.24945 60.2381 5.24945 59.7822V46.2515C5.24945 45.7857 5.63259 45.4066 6.10341 45.4066H11.3371C11.8021 45.4066 12.1948 45.7934 12.1948 46.2515V59.7822Z" fill="white"/>
</svg>
